<svg width="53" height="52" viewBox="0 0 53 52" fill="none" xmlns="http://www.w3.org/2000/svg">
<g clip-path="url(#clip0_13_390)">
<path fill-rule="evenodd" clip-rule="evenodd" d="M18.3279 0.19139C18.1076 0.369835 18.0869 0.480742 18.02 1.84178C17.9392 3.48953 17.8059 4.0333 17.1894 5.23052C16.639 6.29936 15.4449 7.51374 14.418 8.04898C14.0213 8.25586 12.5897 8.90271 11.2367 9.48669C7.84084 10.9521 6.90413 11.5339 5.37501 13.1267C3.0344 15.5646 1.8514 18.5275 1.85698 21.9375C1.85973 23.6352 2.01369 24.5188 2.57381 26.0508L2.94512 27.0665L2.99926 33.1321L3.05339 39.1977L3.27622 39.4205C3.59634 39.7404 4.08872 39.7167 4.38975 39.3668L4.62761 39.0902V33.0051V26.9199L4.3669 26.3331C2.36429 21.8244 3.72451 16.3153 7.59618 13.2537C8.66594 12.4078 9.14937 12.1543 12.29 10.7922C13.7392 10.1636 15.1711 9.50061 15.472 9.31881C17.2975 8.21594 18.7497 6.29062 19.36 4.16411C19.5187 3.6112 19.5931 3.00427 19.6316 1.95005C19.6832 0.538226 19.6783 0.490796 19.451 0.248874C19.165 -0.0556101 18.6646 -0.0812038 18.3279 0.19139ZM33.8733 0.279343C33.6621 0.544929 33.6539 0.628515 33.7053 1.98051C33.8038 4.57361 34.5874 6.39503 36.3317 8.08554C37.3972 9.11812 38.0433 9.49594 40.6513 10.6118C41.9252 11.1569 43.3331 11.7842 43.78 12.006C45.2563 12.7385 46.5628 13.8006 47.5014 15.0314C47.7968 15.4188 48.1657 15.7884 48.3213 15.8528C48.7113 16.0144 49.1567 15.82 49.3243 15.4152C49.438 15.1409 49.4253 15.0541 49.2132 14.6544C48.9273 14.1154 47.4163 12.4944 46.6455 11.8997C45.6228 11.1107 44.4675 10.4955 42.1392 9.5003C38.7613 8.05639 38.3393 7.82219 37.3815 6.85907C35.9667 5.43648 35.4241 4.12023 35.3129 1.84178C35.2465 0.480437 35.2258 0.369835 35.0055 0.19139C34.6483 -0.0978601 34.142 -0.0584538 33.8733 0.279343ZM49.5737 17.4833C49.246 17.741 49.2514 17.9688 49.6218 19.5C49.8083 20.2709 49.8551 20.7507 49.855 21.8868C49.8548 23.548 49.6841 24.4824 49.131 25.8477L48.7608 26.7618L48.7317 32.9243L48.7027 39.0867L48.9421 39.365C49.2699 39.7462 49.7658 39.7469 50.0929 39.3668L50.3307 39.0902V33.1721V27.2538L50.5888 26.6187C51.3193 24.8209 51.6487 22.591 51.4527 20.7705C51.2832 19.1957 50.9061 17.7792 50.5805 17.4942C50.2527 17.2074 49.929 17.2038 49.5737 17.4833ZM11.9578 20.9538L11.737 21.1889V27.7535C11.737 32.2352 11.7007 34.4889 11.6226 34.8564C11.5597 35.1524 11.3311 35.7478 11.1148 36.1795C10.6443 37.1182 10.6156 37.4803 10.989 37.7739C11.5045 38.1795 11.9572 37.99 12.414 37.1772L12.6934 36.6802L13.0373 37.3006L13.3812 37.921L13.0143 44.0211C12.8125 47.3761 12.6209 50.4182 12.5884 50.7813C12.5365 51.361 12.5567 51.4762 12.754 51.726C12.9443 51.9669 13.0418 52.0059 13.3887 51.9799C14.0157 51.933 14.1549 51.6666 14.2268 50.375C14.2594 49.7885 14.3088 49.1602 14.3365 48.9786L14.3869 48.6485H22.9181H31.4494L31.6986 48.3992C32.0481 48.0497 32.0397 47.5167 31.6803 47.234C31.4144 47.0248 31.3577 47.0235 22.9459 47.0235H14.4792V46.6326C14.4792 46.4176 14.5087 45.892 14.5449 45.4646L14.6105 44.6875L17.2617 44.686C20.2323 44.6844 20.7266 44.6149 21.8718 44.0382C22.2507 43.8473 22.7943 43.4813 23.0798 43.2245L23.5989 42.7579H26.6667H29.7345L30.2246 43.1985C30.4942 43.4409 31.0311 43.8055 31.418 44.0087C32.5638 44.6109 33.069 44.6843 36.0717 44.686L38.7229 44.6875L38.7885 45.4646C38.8246 45.892 38.8542 46.4176 38.8542 46.6326V47.0235H36.5319C34.3364 47.0235 34.1951 47.035 33.9421 47.234C33.5827 47.5167 33.5743 48.0497 33.9238 48.3992L34.1731 48.6485H36.5624H38.9519L38.9986 48.877C39.0243 49.0027 39.0726 49.6311 39.106 50.2735C39.1807 51.7085 39.305 51.9493 39.9714 51.9493C40.3183 51.9493 40.4452 51.8974 40.5978 51.693C40.7856 51.4415 40.7836 51.3478 40.4845 46.5133C40.317 43.8055 40.13 40.7672 40.0691 39.7618L39.9581 37.9336L40.298 37.3052L40.6379 36.6766L40.9183 37.1755C41.3763 37.99 41.8284 38.1797 42.3444 37.7739C42.7184 37.4797 42.6891 37.1175 42.2146 36.1738C41.9959 35.7391 41.7674 35.1147 41.7068 34.7863C41.6346 34.3963 41.5964 31.9305 41.5964 27.6763C41.5964 21.2623 41.5932 21.16 41.3893 20.9411C41.1097 20.641 40.4837 20.6364 40.2156 20.9325C40.0338 21.1333 40.0204 21.3745 39.9932 24.9442L39.9642 28.7422H26.6667H13.3691L13.3401 24.9442C13.3129 21.3745 13.2995 21.1333 13.1177 20.9325C12.8456 20.632 12.2499 20.6429 11.9578 20.9538ZM13.362 31.4844V32.6016L14.1491 32.6031C14.582 32.6039 15.0505 32.6624 15.1901 32.733C15.5532 32.9167 15.7273 33.3236 15.5934 33.6757C15.4222 34.1262 15.2098 34.2199 14.3522 34.2234C13.9194 34.2252 13.5651 34.2427 13.5651 34.2623C13.5651 34.2819 13.6153 34.4418 13.6766 34.6177L13.7881 34.9375H14.577C15.5713 34.9375 15.901 35.1399 15.901 35.75C15.901 36.2695 15.5475 36.5625 14.9208 36.5625H14.4757L14.745 37.0937C15.0106 37.6181 15.0132 37.6435 14.9442 39.0619L14.8744 40.4988L15.2325 40.5659C15.6562 40.6455 15.901 40.9517 15.901 41.402C15.901 41.7914 15.512 42.1485 15.0875 42.1485C14.8571 42.1485 14.7984 42.203 14.7458 42.4659C14.6152 43.1189 14.4211 43.0776 17.4499 43.0418C20.0726 43.0108 20.2483 42.9967 20.8084 42.772C21.2774 42.5839 21.3849 42.5002 21.3286 42.367C21.1546 41.9551 21.1737 41.7636 21.4168 41.4809C21.6263 41.2374 21.7692 41.1789 22.262 41.1349C22.8294 41.0844 22.8648 41.0645 23.0777 40.6758C23.2 40.4524 23.3301 40.1487 23.3667 40.001L23.4333 39.7325L22.5529 39.6964C21.7271 39.6624 21.6568 39.6419 21.418 39.3644C21.2204 39.1346 21.177 38.9984 21.224 38.755C21.3286 38.2123 21.5939 38.086 22.6281 38.086H23.5436L23.4782 37.7559C23.4423 37.5743 23.3389 37.2315 23.2486 36.9942L23.0844 36.5625H22.4936C21.7698 36.5625 21.4355 36.421 21.2815 36.049C21.1504 35.7326 21.2138 35.4284 21.4625 35.1797C21.6153 35.0269 21.6132 35.0037 21.4365 34.8745C20.9467 34.5163 20.1039 34.3046 18.9537 34.2509C17.9149 34.2023 17.7665 34.1717 17.5572 33.9622C17.1086 33.5137 17.3435 32.8038 17.9944 32.6405C18.4082 32.5366 20.1491 32.6748 20.776 32.8613C21.6809 33.1303 22.7075 33.7256 23.3481 34.3524L23.9461 34.9375H26.6667H29.3872L29.9852 34.3524C30.613 33.7381 31.6168 33.1507 32.5573 32.8472C33.0346 32.6931 33.6143 32.6609 36.5436 32.626L39.9714 32.5852V31.4762V30.3672H26.6667H13.362V31.4844ZM33.3096 34.3313C32.8417 34.424 32.2151 34.6697 31.8689 34.8962C31.6546 35.0364 31.649 35.0638 31.7927 35.269C31.878 35.3908 31.9479 35.637 31.9479 35.8161C31.9479 36.3075 31.5647 36.5625 30.8264 36.5625H30.24L30.0276 37.1916C29.9107 37.5376 29.8151 37.8804 29.8151 37.9533C29.8151 38.0519 30.0327 38.086 30.6607 38.086C31.4132 38.086 31.5306 38.1119 31.7271 38.321C31.961 38.5701 32.0134 38.9926 31.8485 39.3008C31.71 39.5596 31.2123 39.711 30.4998 39.711H29.8946L29.9639 39.9903C30.002 40.1438 30.1335 40.4524 30.2561 40.6758C30.4635 41.0535 30.518 41.0869 31.0331 41.1499C31.7297 41.2352 31.9742 41.4917 31.9309 42.0914L31.901 42.504L32.5084 42.7579C33.0981 43.0044 33.1966 43.0127 35.8835 43.0431L38.651 43.0745L38.6496 42.84C38.6467 42.3372 38.5367 42.1485 38.2466 42.1485C37.2619 42.1485 37.1337 40.7474 38.1019 40.5658L38.4609 40.4984L38.39 39.1025C38.3211 37.7437 38.3261 37.6913 38.5811 37.1345L38.8429 36.5625H38.4053C37.7862 36.5625 37.4323 36.267 37.4323 35.75C37.4323 35.1399 37.7621 34.9375 38.7564 34.9375H39.5452L39.6567 34.6177C39.7181 34.4418 39.7682 34.2819 39.7682 34.2623C39.7682 34.1879 33.7059 34.2527 33.3096 34.3313ZM17.4707 35.1869C17.3017 35.3558 17.2214 35.5498 17.2214 35.7888C17.2214 36.2942 17.5912 36.5625 18.2878 36.5625C19.0058 36.5625 19.3542 36.2972 19.3542 35.75C19.3542 35.1976 19.0069 34.9375 18.2695 34.9375C17.8214 34.9375 17.6739 34.9836 17.4707 35.1869ZM34.2468 35.1481C34.0403 35.3104 33.9792 35.4481 33.9792 35.75C33.9792 36.2972 34.3275 36.5625 35.0456 36.5625C35.7636 36.5625 36.112 36.2972 36.112 35.75C36.112 35.2029 35.7636 34.9375 35.0456 34.9375C34.662 34.9375 34.4401 34.996 34.2468 35.1481ZM24.8736 36.7104C24.9048 36.7918 24.9873 37.1345 25.0571 37.4721L25.1839 38.086H26.6667H28.1495L28.2762 37.4721C28.346 37.1345 28.4286 36.7918 28.4598 36.7104C28.5082 36.5843 28.2443 36.5625 26.6667 36.5625C25.089 36.5625 24.8251 36.5843 24.8736 36.7104ZM25.0417 39.913C25.0417 40.0241 24.9546 40.344 24.8483 40.6239L24.6549 41.1329H26.6667H28.6784L28.485 40.6239C28.3787 40.344 28.2917 40.0241 28.2917 39.913C28.2917 39.7197 28.2211 39.711 26.6667 39.711C25.1123 39.711 25.0417 39.7197 25.0417 39.913ZM17.6596 40.6203C17.1594 40.8343 17.0602 41.6007 17.489 41.9379C17.8864 42.2506 18.8298 42.2365 19.1334 41.9135C19.4218 41.6063 19.43 41.0299 19.1495 40.776C18.916 40.5647 18.0107 40.4701 17.6596 40.6203ZM34.487 40.5901C34.1445 40.7282 33.9792 40.9705 33.9792 41.3341C33.9792 41.8951 34.3008 42.1485 35.0131 42.1485C35.7345 42.1485 36.112 41.8882 36.112 41.3906C36.112 40.8499 35.8333 40.5993 35.1894 40.5612C34.8868 40.5433 34.5708 40.5563 34.487 40.5901Z" fill="white"/>
</g>
<defs>
<clipPath id="clip0_13_390">
<rect width="52" height="52" fill="white" transform="translate(0.666656)"/>
</clipPath>
</defs>
</svg>
