<svg width="18" height="18" viewBox="0 0 18 18" fill="none" xmlns="http://www.w3.org/2000/svg">
<g clip-path="url(#clip0_157_745)">
<mask id="mask0_157_745" style="mask-type:luminance" maskUnits="userSpaceOnUse" x="0" y="0" width="18" height="18">
<path d="M18 0H0V18H18V0Z" fill="white"/>
</mask>
<g mask="url(#mask0_157_745)">
<path d="M6.32812 0C8.09157 0 9.855 0 11.6719 0C11.6719 0.348047 11.6719 0.696094 11.6719 1.05469C11.231 1.05469 10.7902 1.05469 10.3359 1.05469C10.3359 6.29859 10.3359 11.5425 10.3359 16.9453C10.7768 16.9453 11.2177 16.9453 11.6719 16.9453C11.6719 17.2934 11.6719 17.6414 11.6719 18C9.90844 18 8.145 18 6.32812 18C6.32812 17.652 6.32812 17.3039 6.32812 16.9453C6.76899 16.9453 7.20984 16.9453 7.66406 16.9453C7.66406 11.7014 7.66406 6.4575 7.66406 1.05469C7.2232 1.05469 6.78234 1.05469 6.32812 1.05469C6.32812 0.706641 6.32812 0.358594 6.32812 0Z" fill="#D6AB37"/>
<path d="M0 0C1.75184 0 3.50367 0 5.30859 0C5.30859 0.348047 5.30859 0.696094 5.30859 1.05469C4.78652 1.05469 4.26445 1.05469 3.72656 1.05469C3.72878 1.58465 3.73143 2.11461 3.73485 2.64457C3.73642 2.89071 3.73781 3.13684 3.73874 3.38298C3.73964 3.62097 3.74109 3.85894 3.74285 4.09692C3.74343 4.18726 3.74384 4.2776 3.74406 4.36794C3.74572 4.9862 3.77267 5.58131 3.95508 6.17651C3.96372 6.20491 3.97236 6.2333 3.98126 6.26255C4.20986 6.97256 4.58128 7.59134 5.0625 8.15625C5.08389 8.18199 5.10528 8.20773 5.12732 8.23425C5.26864 8.40126 5.42042 8.54538 5.58984 8.68359C5.62234 8.71038 5.65483 8.73716 5.68831 8.76476C5.72503 8.79415 5.76179 8.82349 5.79858 8.85278C5.81644 8.86747 5.8343 8.88216 5.8527 8.89729C5.96499 8.98548 6.06386 9.04541 6.20055 9.08831C6.38329 9.15232 6.53256 9.22337 6.64453 9.38672C6.74221 9.73893 6.70343 10.1252 6.68557 10.4865C6.67942 10.6241 6.67672 10.7617 6.67371 10.8994C6.66733 11.1688 6.65716 11.4379 6.64453 11.707C5.5533 11.497 4.54659 10.6898 3.76172 9.94922C3.73163 9.92103 3.70154 9.89284 3.67053 9.8638C2.41437 8.65136 1.62307 6.81661 1.5729 5.07568C1.56866 4.81795 1.57012 4.56027 1.57173 4.30252C1.57193 4.20825 1.57208 4.11398 1.57218 4.01972C1.57251 3.79923 1.57337 3.57876 1.57444 3.35828C1.57563 3.10669 1.5762 2.8551 1.57672 2.6035C1.57782 2.08723 1.57975 1.57096 1.58203 1.05469C1.05996 1.05469 0.537891 1.05469 0 1.05469C0 0.706641 0 0.358594 0 0Z" fill="#D6AB37"/>
<path d="M12.6911 0C14.4429 0 16.1948 0 17.9997 0C17.9997 0.348047 17.9997 0.696094 17.9997 1.05469C17.4776 1.05469 16.9555 1.05469 16.4176 1.05469C16.4184 1.17858 16.4191 1.30247 16.4199 1.43012C16.4222 1.84322 16.4238 2.25632 16.4249 2.66943C16.4256 2.91946 16.4266 3.16949 16.4283 3.41952C16.4297 3.63796 16.4306 3.8564 16.4309 4.07484C16.4311 4.19004 16.4315 4.30523 16.4325 4.42043C16.4396 5.30487 16.3499 6.15524 16.0661 6.99609C16.0561 7.02587 16.0462 7.05564 16.0359 7.08632C15.7817 7.83111 15.4191 8.51586 14.9411 9.14062C14.9162 9.17362 14.8913 9.20661 14.8657 9.2406C14.0023 10.352 12.8015 11.2546 11.4606 11.707C11.4258 11.707 11.391 11.707 11.3551 11.707C11.3412 11.4106 11.3306 11.1143 11.3242 10.8177C11.3211 10.6798 11.3169 10.5423 11.3101 10.4046C11.2672 9.51518 11.2672 9.51518 11.4115 9.30441C11.5493 9.18034 11.7013 9.12027 11.8761 9.065C12.0072 9.01397 12.1094 8.92689 12.2165 8.8374C12.2376 8.82024 12.2587 8.80308 12.2804 8.7854C12.3357 8.74028 12.3904 8.69448 12.445 8.64844C12.4754 8.62301 12.5058 8.59759 12.5371 8.5714C12.7104 8.42208 12.8633 8.26329 13.0075 8.08594C13.0482 8.03665 13.0482 8.03665 13.0897 7.98637C13.3221 7.69898 13.5057 7.39415 13.6755 7.06641C13.6867 7.04494 13.698 7.02347 13.7096 7.00135C13.845 6.74066 13.9491 6.47472 14.0358 6.19409C14.044 6.16791 14.0523 6.14173 14.0608 6.11475C14.2427 5.49354 14.2544 4.87647 14.2559 4.23386C14.2565 4.14175 14.2572 4.04965 14.2579 3.95754C14.2594 3.74167 14.2604 3.52579 14.2612 3.30991C14.2622 3.06367 14.2637 2.81745 14.2653 2.57121C14.2685 2.06571 14.271 1.5602 14.2731 1.05469C13.751 1.05469 13.229 1.05469 12.6911 1.05469C12.6911 0.706641 12.6911 0.358594 12.6911 0Z" fill="#D6AB37"/>
</g>
</g>
<defs>
<clipPath id="clip0_157_745">
<rect width="18" height="18" fill="white"/>
</clipPath>
</defs>
</svg>
