<svg width="64" height="64" viewBox="0 0 64 64" fill="none" xmlns="http://www.w3.org/2000/svg">
<g clip-path="url(#clip0_2154_27480)">
<path d="M13.2032 0.281266C14.0125 0.741278 14.5205 1.28095 15.0196 2.05129C15.081 2.14414 15.1424 2.237 15.2056 2.33267C15.3388 2.53444 15.4716 2.7365 15.6039 2.93884C15.8898 3.37585 16.1778 3.81142 16.4657 4.24707C16.618 4.4774 16.7701 4.7078 16.9221 4.93826C17.693 6.10606 18.4765 7.26517 19.2611 8.42384C19.7154 9.09551 20.1679 9.7684 20.6206 10.4412C21.0177 11.0312 21.4165 11.6201 21.8172 12.2077C22.042 12.5383 22.265 12.8701 22.4876 13.2023C22.5874 13.3506 22.688 13.4983 22.7894 13.6455C23.5546 14.757 24.1822 15.9366 23.9454 17.3281C23.6327 18.8802 22.7129 19.701 21.5001 20.625C21.3749 20.7223 21.2497 20.8197 21.1207 20.9199C20.6123 21.3133 20.101 21.7027 19.5899 22.0924C19.2834 22.3266 18.9776 22.5617 18.6719 22.7969C18.5741 22.8713 18.4763 22.9457 18.3755 23.0224C18.2835 23.0933 18.1915 23.1642 18.0967 23.2373C18.0148 23.3001 17.9328 23.3628 17.8484 23.4274C17.4647 23.7669 17.2727 24.0406 17.1392 24.5376C17.1225 25.0842 17.2675 25.4317 17.5235 25.8985C17.5683 25.9835 17.6132 26.0686 17.6594 26.1563C17.8111 26.4396 17.9673 26.72 18.1251 27C18.1808 27.0997 18.2366 27.1993 18.294 27.302C19.1632 28.8401 20.1428 30.2501 21.2501 31.625C21.3519 31.7534 21.4537 31.8819 21.5587 32.0142C22.125 32.7191 22.7216 33.3916 23.334 34.0567C23.5773 34.3228 23.8133 34.5927 24.0469 34.8672C24.489 35.3774 24.9684 35.8471 25.4486 36.3209C25.8045 36.6737 26.1447 37.0313 26.4688 37.4141C26.8122 37.8168 27.1841 38.1527 27.5875 38.4942C27.9484 38.8153 28.2859 39.1562 28.6251 39.5C29.1018 39.9814 29.5807 40.451 30.0977 40.8897C30.3162 41.0751 30.5318 41.264 30.7462 41.4541C32.7942 43.2615 35.0523 44.7858 37.4297 46.125C37.5349 46.1852 37.64 46.2454 37.7483 46.3074C38.3286 46.6282 38.821 46.875 39.5001 46.875C40.1056 46.6609 40.4306 46.3469 40.8282 45.8516C40.8808 45.7865 40.9335 45.7215 40.9877 45.6544C41.4134 45.1231 41.8199 44.5772 42.2266 44.0313C42.4837 43.687 42.7415 43.3432 43.0001 43C43.0677 42.9101 43.1353 42.8203 43.205 42.7277C44.2049 41.4106 45.0915 40.2847 46.8209 40.023C48.2603 39.9144 49.4516 40.5367 50.6046 41.3394C50.7072 41.4093 50.8099 41.4793 50.9156 41.5513C51.1366 41.702 51.3572 41.8533 51.5775 42.005C52.1716 42.4142 52.7684 42.8194 53.3648 43.2251C53.4882 43.3092 53.6116 43.3933 53.7388 43.48C55.2081 44.4798 56.6938 45.4546 58.1802 46.4288C59.2874 47.1545 60.3938 47.8811 61.4869 48.6279C61.5662 48.6819 61.6456 48.7358 61.7274 48.7914C62.4413 49.2825 63.1034 49.7476 63.5391 50.5156C63.6005 50.6217 63.6619 50.7277 63.7252 50.8369C64.1491 51.6516 64.1327 52.607 64.0001 53.5C63.7629 54.2246 63.3919 54.8488 63.0001 55.5C62.9216 55.6324 62.8431 55.7648 62.7623 55.9013C62.1452 56.9417 61.5129 57.9722 60.8751 59C60.7797 59.1548 60.7797 59.1548 60.6825 59.3126C59.2648 61.611 57.6703 62.9421 55.025 63.6382C53.6006 63.9573 52.204 64.0466 50.7501 64.0391C50.6537 64.0388 50.5573 64.0385 50.458 64.0381C44.7688 64.0098 39.3418 61.8988 34.5001 59C34.3488 58.9096 34.3488 58.9096 34.1946 58.8175C29.8439 56.2025 25.8345 53.0284 22.1114 49.584C21.8075 49.3031 21.5014 49.025 21.1945 48.7474C20.5021 48.1194 19.835 47.4703 19.1815 46.8018C18.9034 46.5191 18.6348 46.2575 18.3199 46.0152C17.9577 45.7149 17.6733 45.382 17.3682 45.0254C16.9357 44.5356 16.4658 44.083 16.0001 43.625C15.303 42.9397 14.6331 42.245 14.0001 41.5C13.9366 41.4261 13.8731 41.3521 13.8077 41.276C13.6241 41.0619 13.4409 40.8474 13.2579 40.6328C12.8418 40.1455 12.4232 39.6619 11.9922 39.1875C11.4671 38.5999 10.9836 37.9813 10.5015 37.3584C10.2533 37.0378 10.0011 36.7213 9.74469 36.4072C3.9001 29.1767 -0.771051 20.2041 0.0375974 10.6831C0.335635 8.25358 1.12276 6.01185 3.04352 4.40138C3.88078 3.74824 4.79453 3.22744 5.711 2.69533C5.9676 2.54507 6.22404 2.39453 6.48047 2.24399C6.65034 2.14441 6.82036 2.04506 6.9905 1.94596C7.41647 1.69759 7.84006 1.44618 8.26013 1.18794C8.34289 1.13731 8.42565 1.08667 8.51092 1.0345C8.66581 0.939449 8.82029 0.843729 8.97423 0.747165C10.2591 -0.039558 11.7812 -0.408435 13.2032 0.281266ZM10.1563 2.6797C10.075 2.7277 9.99369 2.7757 9.90991 2.82515C9.71947 2.93829 9.52972 3.05261 9.34052 3.1678C9.01605 3.36529 8.69035 3.56062 8.36429 3.75546C7.97677 3.98722 7.58992 4.22009 7.20319 4.45314C7.12826 4.49824 7.05334 4.54333 6.97615 4.5898C4.93738 5.77637 4.93738 5.77637 3.37506 7.50002C3.32656 7.57382 3.27806 7.64761 3.22809 7.72365C1.67967 10.4379 1.94168 14.7997 2.62506 17.75C2.6499 17.8605 2.67473 17.971 2.70032 18.0848C3.87334 23.1978 6.426 28.0242 9.50006 32.25C9.60399 32.394 9.60399 32.394 9.71002 32.5408C10.5651 33.7233 11.4367 34.8822 12.3751 36C12.5549 36.2212 12.7346 36.4426 12.9141 36.6641C13.9219 37.8944 14.9589 39.0958 16.0416 40.2608C16.295 40.5375 16.5411 40.8172 16.7857 41.1016C17.2741 41.6621 17.7981 42.1824 18.3282 42.7031C19.2989 43.6569 19.2989 43.6569 19.6905 44.1358C20.0122 44.5143 20.3562 44.8186 20.733 45.1402C21.294 45.6335 21.8074 46.1777 22.3306 46.7105C22.9072 47.2934 23.5036 47.8405 24.1251 48.375C24.326 48.5568 24.5266 48.739 24.7266 48.9219C25.2669 49.4095 25.8231 49.8724 26.3892 50.3296C26.6989 50.5831 27.0023 50.8423 27.3045 51.1046C28.3143 51.9768 29.385 52.7592 30.4648 53.5419C30.7234 53.7305 30.9798 53.9216 31.2354 54.1143C36.7296 58.2452 43.5661 61.8158 50.5782 61.7969C50.7082 61.7969 50.7082 61.7969 50.8409 61.7969C53.3816 61.7907 55.8332 61.448 57.7501 59.625C58.0341 59.2539 58.0341 59.2539 58.2828 58.8394C58.3299 58.7639 58.377 58.6884 58.4256 58.6106C58.5771 58.3664 58.7264 58.121 58.8751 57.875C58.9252 57.7924 58.9753 57.7097 59.0269 57.6246C59.3892 57.0255 59.7459 56.4232 60.1016 55.8203C60.2067 55.643 60.3117 55.4657 60.4168 55.2883C60.6954 54.8177 60.9739 54.3471 61.2501 53.875C61.2968 53.7956 61.3436 53.7162 61.3918 53.6343C61.7591 53.0035 61.8413 52.7186 61.7501 52C61.3758 51.2822 60.8605 50.9388 60.1871 50.5112C60.0268 50.4069 60.0268 50.4069 59.8634 50.3004C59.6322 50.15 59.4006 50.0003 59.1687 49.8512C58.5456 49.4506 57.9257 49.0452 57.3052 48.6406C57.113 48.5156 57.113 48.5156 56.9169 48.388C55.5541 47.5005 54.206 46.5916 52.8594 45.6797C52.6414 45.5321 52.4234 45.3846 52.2054 45.237C52.1006 45.1662 51.9959 45.0953 51.8881 45.0223C51.4846 44.7494 51.081 44.4766 50.6772 44.204C50.4699 44.064 50.2626 43.9239 50.0553 43.7838C49.7433 43.573 49.4308 43.3629 49.1182 43.1528C49.0236 43.0888 48.929 43.0248 48.8315 42.9588C48.7441 42.9002 48.6566 42.8416 48.5665 42.7813C48.49 42.7298 48.4136 42.6783 48.3348 42.6252C47.8504 42.336 47.2984 42.2703 46.7501 42.375C46.053 42.7441 45.6536 43.2657 45.1876 43.8906C45.0338 44.0925 44.88 44.2943 44.7261 44.4961C44.6478 44.5997 44.5695 44.7033 44.4888 44.8101C44.103 45.319 43.7118 45.8236 43.3204 46.3281C43.2511 46.4182 43.1818 46.5083 43.1104 46.6012C41.7056 48.4165 41.7056 48.4165 40.9766 48.7422C40.8743 48.7897 40.772 48.8373 40.6666 48.8862C39.4572 49.3582 38.4109 49.119 37.2501 48.625C36.7341 48.3723 36.2338 48.0964 35.7344 47.8125C35.5982 47.7355 35.4619 47.6586 35.3215 47.5792C34.1597 46.9133 33.0685 46.1805 32.0001 45.375C31.8585 45.2703 31.7169 45.1657 31.5753 45.0611C29.5732 43.566 27.7054 41.857 25.9557 40.0755C25.7418 39.867 25.5188 39.6753 25.2891 39.4844C24.7541 39.024 24.2871 38.5103 23.8131 37.9889C23.4346 37.5729 23.0494 37.1682 22.6485 36.7735C22.2494 36.3786 21.8711 35.9751 21.5064 35.5484C21.3054 35.3144 21.1019 35.0837 20.8961 34.854C18.7814 32.4791 17.0254 29.8677 15.5313 27.0625C15.479 26.9646 15.4267 26.8667 15.3727 26.7659C14.8698 25.7975 14.7074 24.8521 14.9561 23.7735C15.4293 22.3174 16.4376 21.5709 17.6281 20.6856C18.1006 20.3305 18.5654 19.9653 19.0313 19.6016C19.2142 19.4591 19.3972 19.3167 19.5801 19.1743C19.6687 19.1052 19.7572 19.0361 19.8485 18.965C20.0433 18.8135 20.2387 18.6629 20.4346 18.5129C20.5353 18.4355 20.636 18.3581 20.7398 18.2783C20.8771 18.1733 20.8771 18.1733 21.0172 18.0662C21.4916 17.6766 21.6072 17.3839 21.6876 16.7813C21.6475 15.7718 20.8251 14.8385 20.2735 14.0327C20.2037 13.9299 20.134 13.8271 20.0621 13.7211C19.9118 13.4996 19.7613 13.2782 19.6106 13.0569C19.2046 12.4606 18.8002 11.8632 18.3961 11.2656C18.3124 11.1419 18.2287 11.0181 18.1424 10.8906C17.0682 9.29944 16.016 7.69374 14.9651 6.08702C14.3377 5.12885 13.7082 4.17198 13.0523 3.23293C13.0033 3.16121 12.9542 3.0895 12.9037 3.01562C12.642 2.64684 12.4347 2.39498 12.0001 2.25002C11.2553 2.1839 10.7953 2.28438 10.1563 2.6797Z" fill="white"/>
<path d="M36.7427 8.44486C36.89 8.44747 36.89 8.44747 37.0402 8.45014C39.0034 8.50931 40.8952 8.86514 42.7505 9.49955C42.8347 9.52775 42.9189 9.55594 43.0057 9.585C45.9325 10.5767 48.3701 12.28 50.6255 14.3745C50.7059 14.4467 50.7863 14.5189 50.8691 14.5933C54.2392 17.7585 56.0678 22.4664 56.5317 26.9839C56.549 27.1466 56.549 27.1466 56.5667 27.3126C56.7234 29.0089 56.7234 29.0089 56.3052 29.6949C55.9575 29.8999 55.6642 29.9396 55.2627 29.9532C54.8387 29.826 54.5909 29.6275 54.3755 29.2495C54.257 28.7333 54.2252 28.2146 54.188 27.687C53.9853 25.4685 53.5533 23.4058 52.6255 21.3745C52.5586 21.2271 52.4917 21.0797 52.4228 20.9278C50.4753 16.8392 46.8904 13.5404 42.637 11.9645C40.5831 11.2584 38.5485 10.8831 36.3784 10.8047C35.8759 10.7314 35.5197 10.5581 35.2036 10.1558C35.0858 9.73191 35.1445 9.42331 35.2505 8.99955C35.6561 8.42916 36.0889 8.42524 36.7427 8.44486Z" fill="white"/>
<path d="M39.1732 15.121C41.3919 15.5905 43.5583 16.6099 45.2499 18.1249C45.361 18.2184 45.4722 18.3118 45.5868 18.4081C48.5733 20.987 49.9733 24.6042 50.2601 28.4696C50.2471 28.9843 50.1407 29.3134 49.8314 29.7231C49.4913 29.9731 49.1786 29.9333 48.7699 29.9193C48.4999 29.8749 48.4999 29.8749 48.1874 29.6562C47.861 29.1666 47.8535 28.6745 47.8069 28.0945C47.5933 25.5661 46.8047 23.3143 45.1249 21.3749C45.0446 21.2753 44.9644 21.1758 44.8817 21.0732C42.8632 18.6673 39.9719 17.5512 36.914 17.2766C35.7102 17.1545 35.7102 17.1545 35.2499 16.6249C35.1062 16.1313 35.0709 15.8712 35.2811 15.3984C36.1147 14.3564 38.0061 14.8977 39.1732 15.121Z" fill="white"/>
<path d="M40.1013 22.2647C41.8789 23.3112 43.046 24.8769 43.6096 26.8667C43.8121 27.7938 44.0087 28.8216 43.5003 29.6636C42.9786 29.957 42.7196 29.9595 42.1253 29.8746C41.7284 29.5879 41.6334 29.4069 41.512 28.9278C41.4857 28.7566 41.461 28.5852 41.4378 28.4136C41.2552 27.2836 40.9092 26.4441 40.2503 25.4996C40.1884 25.3603 40.1884 25.3603 40.1253 25.2183C39.9612 24.9313 39.7971 24.8923 39.5003 24.7496C39.1916 24.5621 38.8853 24.3711 38.5794 24.1792C37.801 23.7543 37.0255 23.6822 36.1555 23.5943C35.6954 23.4867 35.5332 23.3721 35.2503 22.9996C35.1172 22.5117 35.0756 22.2422 35.2737 21.773C36.3711 20.4485 38.8835 21.6129 40.1013 22.2647Z" fill="white"/>
</g>
<defs>
<clipPath id="clip0_2154_27480">
<rect width="64" height="64" fill="white"/>
</clipPath>
</defs>
</svg>
