<svg width="64" height="64" viewBox="0 0 64 64" fill="none" xmlns="http://www.w3.org/2000/svg">
<path d="M21.8423 3.85764C21.9823 3.85693 22.1223 3.85621 22.2666 3.85548C22.4184 3.85534 22.5702 3.8552 22.7265 3.85505C22.8878 3.85443 23.049 3.85381 23.2152 3.85317C23.656 3.85154 24.0969 3.85073 24.5377 3.85017C24.8133 3.8498 25.0889 3.84929 25.3645 3.84873C26.2274 3.84703 27.0903 3.84582 27.9532 3.84533C28.9484 3.84477 29.9435 3.84257 30.9386 3.83896C31.7088 3.83626 32.479 3.83499 33.2492 3.83483C33.7089 3.8347 34.1685 3.83396 34.6281 3.83173C35.1404 3.82928 35.6527 3.82983 36.165 3.83064C36.317 3.82949 36.4691 3.82834 36.6257 3.82715C36.8352 3.82819 36.8352 3.82819 37.0489 3.82926C37.17 3.82907 37.291 3.82889 37.4157 3.8287C37.9822 3.90744 38.3717 4.21532 38.7674 4.61156C38.8742 4.71749 38.8742 4.71749 38.983 4.82556C39.0589 4.90213 39.1348 4.97871 39.213 5.0576C39.2945 5.13894 39.3761 5.22028 39.4602 5.30408C39.7287 5.57213 39.9963 5.84107 40.2639 6.11006C40.4504 6.29674 40.637 6.48337 40.8236 6.66996C41.214 7.06057 41.604 7.45159 41.9937 7.84294C42.4939 8.34534 42.995 8.84691 43.4964 9.3482C43.8814 9.73323 44.2661 10.1186 44.6506 10.5041C44.8354 10.6892 45.0202 10.8742 45.2051 11.0592C45.4627 11.3171 45.72 11.5755 45.9771 11.834C46.054 11.9108 46.1309 11.9876 46.2101 12.0668C46.7308 12.5914 46.891 12.8029 46.8894 13.5347C46.8894 13.6723 46.8894 13.8099 46.8893 13.9517C46.8887 14.1008 46.8881 14.2499 46.8874 14.4035C46.8871 14.6319 46.8871 14.6319 46.8869 14.8649C46.8862 15.3527 46.8846 15.8405 46.883 16.3283C46.8824 16.6584 46.8818 16.9885 46.8813 17.3186C46.8799 18.1291 46.8778 18.9396 46.8752 19.7502C46.9523 19.7494 47.0294 19.7485 47.1088 19.7477C47.9159 19.7393 48.723 19.7337 49.5302 19.7296C49.8309 19.7277 50.1315 19.7252 50.4322 19.7219C50.866 19.7173 51.2998 19.7152 51.7336 19.7136C51.8666 19.7116 51.9996 19.7097 52.1366 19.7077C53.5324 19.7074 54.7288 20.0367 55.7668 20.9968C56.9172 22.2002 57.146 23.5049 57.1402 25.121C57.1404 25.2859 57.1404 25.2859 57.1405 25.4542C57.1407 25.8212 57.1401 26.1881 57.1394 26.5551C57.1393 26.8188 57.1394 27.0824 57.1394 27.3461C57.1395 28.0609 57.1387 28.7757 57.1379 29.4905C57.1371 30.2379 57.137 30.9853 57.1369 31.7327C57.1365 33.1475 57.1354 34.5624 57.1342 35.9772C57.1328 37.5881 57.1321 39.1991 57.1315 40.81C57.1302 44.1234 57.128 47.4368 57.1252 50.7502C57.2638 50.7444 57.4023 50.7386 57.5451 50.7326C57.728 50.7279 57.911 50.7234 58.0939 50.7189C58.1851 50.7148 58.2763 50.7106 58.3703 50.7062C58.815 50.6982 59.0713 50.7109 59.4356 50.9765C59.708 51.3697 59.6899 51.6691 59.6916 52.1442C59.6921 52.2312 59.6925 52.3182 59.693 52.4079C59.6934 52.5923 59.6925 52.7767 59.6904 52.961C59.6877 53.2377 59.6903 53.5139 59.6935 53.7905C59.6974 55.702 59.2223 57.2189 57.9221 58.6486C56.4621 60.0445 54.6826 60.1633 52.7671 60.1578C52.5804 60.1582 52.3938 60.1586 52.2071 60.1592C51.6969 60.1605 51.1867 60.1602 50.6765 60.1597C50.1252 60.1594 49.5739 60.1605 49.0226 60.1615C47.9436 60.1631 46.8646 60.1633 45.7856 60.163C44.9083 60.1628 44.031 60.163 43.1538 60.1635C42.9663 60.1636 42.9663 60.1636 42.775 60.1637C42.5211 60.1639 42.2672 60.164 42.0133 60.1642C39.6334 60.1656 37.2535 60.1653 34.8737 60.1645C32.6979 60.1639 30.5223 60.1653 28.3465 60.1677C26.1108 60.1701 23.875 60.1711 21.6392 60.1706C20.3847 60.1704 19.1302 60.1707 17.8757 60.1725C16.8077 60.174 15.7398 60.1741 14.6719 60.1726C14.1274 60.1719 13.5829 60.1718 13.0384 60.1733C12.5392 60.1746 12.0401 60.1742 11.5409 60.1725C11.361 60.1721 11.1812 60.1724 11.0014 60.1734C9.10925 60.1833 7.39011 59.8785 5.96893 58.5549C4.59665 57.1071 4.32844 55.4827 4.32886 53.5648C4.32831 53.2803 4.32374 52.9961 4.31903 52.7116C4.3183 52.5298 4.3178 52.348 4.31757 52.1662C4.31654 52.0024 4.31551 51.8385 4.31445 51.6698C4.37518 51.2502 4.37518 51.2502 4.56453 50.9759C4.99869 50.6605 5.39227 50.6953 5.90643 50.7189C5.99957 50.7212 6.0927 50.7235 6.18866 50.7258C6.41757 50.7316 6.6464 50.7406 6.87518 50.7502C6.87495 50.6136 6.87472 50.477 6.87449 50.3363C6.86893 47.0102 6.86483 43.6842 6.86223 40.3581C6.86094 38.7497 6.85919 37.1412 6.85632 35.5328C6.85383 34.1306 6.85222 32.7284 6.85166 31.3262C6.85134 30.584 6.85057 29.8418 6.84875 29.0996C6.84705 28.4004 6.84653 27.7012 6.84691 27.002C6.84684 26.7459 6.84634 26.4899 6.84538 26.2339C6.83808 24.1891 6.83667 22.4979 8.27362 20.8986C9.12175 20.0996 10.2585 19.7332 11.4063 19.736C11.5977 19.736 11.5977 19.736 11.793 19.736C11.9973 19.737 11.9973 19.737 12.2057 19.738C12.3464 19.7382 12.487 19.7383 12.6319 19.7385C13.0802 19.7392 13.5284 19.7408 13.9767 19.7424C14.281 19.743 14.5853 19.7436 14.8896 19.7441C15.6348 19.7455 16.38 19.7476 17.1252 19.7502C17.1241 19.5998 17.123 19.4494 17.1218 19.2944C17.1117 17.8729 17.1042 16.4514 17.0993 15.0298C17.0967 14.2991 17.0931 13.5684 17.0875 12.8377C17.082 12.1317 17.079 11.4258 17.0777 10.7199C17.0768 10.4513 17.075 10.1828 17.0723 9.91422C17.054 8.02327 17.0745 6.57437 18.4533 5.1457C19.445 4.24208 20.5033 3.86175 21.8423 3.85764ZM19.5002 6.62519C18.7945 7.59281 18.7315 8.42351 18.7335 9.59673C18.7332 9.71908 18.7329 9.84144 18.7326 9.9675C18.7318 10.3771 18.7319 10.7868 18.732 11.1964C18.7317 11.4902 18.7312 11.7841 18.7308 12.0779C18.7296 12.876 18.7294 13.674 18.7293 14.4721C18.7292 15.0544 18.7288 15.6367 18.7284 16.219C18.7274 17.7853 18.7269 19.3517 18.727 20.918C18.727 21.0069 18.727 21.0958 18.727 21.1874C18.727 21.2764 18.727 21.3654 18.727 21.4571C18.7271 22.8991 18.7259 24.3411 18.7241 25.7832C18.7223 27.2651 18.7215 28.747 18.7216 30.2289C18.7216 31.0603 18.7213 31.8918 18.7199 32.7233C18.7187 33.5054 18.7187 34.2875 18.7196 35.0696C18.7198 35.3564 18.7195 35.6432 18.7187 35.9299C18.7177 36.322 18.7183 36.714 18.7193 37.106C18.7186 37.219 18.718 37.3319 18.7173 37.4483C18.7236 38.6085 18.8625 39.5887 19.6965 40.4538C20.4277 41.1342 21.1699 41.281 22.1632 41.2836C22.2509 41.2842 22.3385 41.2848 22.4289 41.2853C22.7204 41.2869 23.0118 41.2867 23.3033 41.2865C23.5132 41.2873 23.7232 41.2881 23.9331 41.2891C24.5018 41.2913 25.0705 41.2918 25.6392 41.292C25.995 41.2922 26.3507 41.2927 26.7064 41.2934C27.9487 41.2957 29.191 41.2967 30.4333 41.2965C31.5894 41.2964 32.7454 41.299 33.9014 41.303C34.8956 41.3062 35.8898 41.3076 36.8839 41.3074C37.477 41.3073 38.07 41.308 38.6631 41.3107C39.2211 41.3131 39.7791 41.3131 40.3372 41.3113C40.5412 41.3111 40.7453 41.3116 40.9494 41.3132C42.1685 41.3216 43.3161 41.3115 44.3049 40.5002C44.3693 40.4177 44.4338 40.3352 44.5002 40.2502C44.5672 40.1677 44.6342 40.0852 44.7033 40.0002C45.2654 39.1826 45.2691 38.3202 45.2652 37.3493C45.2653 37.2496 45.2654 37.1498 45.2655 37.047C45.2657 36.7146 45.2651 36.3822 45.2644 36.0498C45.2643 35.8107 45.2644 35.5717 45.2644 35.3327C45.2645 34.685 45.2637 34.0373 45.2629 33.3897C45.2621 32.7124 45.262 32.0351 45.2619 31.3577C45.2615 30.0757 45.2604 28.7937 45.2592 27.5117C45.2578 26.0519 45.2571 24.5921 45.2565 23.1323C45.2552 20.1299 45.253 17.1276 45.2502 14.1252C45.1408 14.1241 45.1408 14.1241 45.0291 14.123C44.2666 14.115 43.5041 14.1044 42.7416 14.0924C42.4575 14.0882 42.1733 14.0847 41.8891 14.0819C41.4795 14.0777 41.0699 14.0711 40.6603 14.0642C40.5343 14.0634 40.4082 14.0626 40.2783 14.0617C39.3024 14.0416 38.467 13.8887 37.7111 13.2189C37.6317 13.1513 37.5522 13.0836 37.4704 13.0139C36.8127 12.2264 36.8172 11.4053 36.8112 10.4226C36.809 10.2851 36.8067 10.1476 36.8044 10.0059C36.7977 9.56913 36.7934 9.13234 36.7892 8.69551C36.7851 8.39839 36.7808 8.10127 36.7763 7.80415C36.7657 7.07785 36.7572 6.35154 36.7502 5.62519C34.7302 5.61642 32.7102 5.60982 30.6903 5.60576C29.7523 5.60383 28.8143 5.6012 27.8763 5.5969C27.0585 5.59316 26.2407 5.59075 25.4229 5.58991C24.9901 5.58942 24.5574 5.58828 24.1246 5.58555C23.6407 5.58251 23.1569 5.58245 22.673 5.58262C22.5305 5.58127 22.388 5.57993 22.2412 5.57854C21.1211 5.58288 20.2497 5.71357 19.5002 6.62519ZM38.3752 6.87519C38.369 7.44892 38.3645 8.02263 38.3615 8.59639C38.3602 8.79134 38.3585 8.98628 38.3563 9.18122C38.3533 9.46236 38.3519 9.74346 38.3508 10.0246C38.3495 10.111 38.3482 10.1973 38.3469 10.2863C38.3467 11.0465 38.4303 11.5367 38.9497 12.1058C39.4223 12.4628 39.8584 12.4558 40.4328 12.4362C40.581 12.4349 40.581 12.4349 40.7323 12.4335C41.0456 12.4301 41.3588 12.4222 41.6721 12.4143C41.8854 12.4111 42.0988 12.4083 42.3122 12.4057C42.8333 12.3988 43.3542 12.3881 43.8752 12.3752C43.2976 11.6822 42.6832 11.0399 42.0446 10.403C41.9433 10.3016 41.842 10.2002 41.7376 10.0957C41.5251 9.88304 41.3123 9.67053 41.0995 9.45817C40.772 9.13142 40.4453 8.804 40.1186 8.47651C39.9117 8.26969 39.7047 8.0629 39.4977 7.85615C39.3505 7.70852 39.3505 7.70852 39.2003 7.55791C39.1101 7.46813 39.0199 7.37836 38.927 7.28587C38.8474 7.20635 38.7678 7.12682 38.6858 7.04489C38.5267 6.86114 38.5267 6.86114 38.3752 6.87519ZM9.26581 22.4768C9.19652 22.5549 9.12723 22.6331 9.05585 22.7136C8.6046 23.4295 8.58927 24.1806 8.59512 25.0007C8.59491 25.1112 8.59469 25.2217 8.59447 25.3355C8.59406 25.7042 8.59543 26.0729 8.5968 26.4416C8.59687 26.7065 8.59683 26.9714 8.59669 27.2363C8.59662 27.9544 8.59809 28.6726 8.59983 29.3908C8.6014 30.1416 8.60154 30.8925 8.60184 31.6434C8.60262 33.0649 8.60467 34.4864 8.60718 35.9079C8.60997 37.5264 8.61135 39.1448 8.6126 40.7633C8.61521 44.0923 8.61961 47.4212 8.62518 50.7502C8.70859 50.7506 8.79199 50.751 8.87792 50.7514C10.9059 50.7616 12.934 50.7731 14.962 50.7861C15.9427 50.7924 16.9234 50.7982 17.9041 50.8029C18.7588 50.807 19.6135 50.812 20.4681 50.818C20.9208 50.8212 21.3734 50.8239 21.8261 50.8256C22.3311 50.8275 22.836 50.8313 23.3409 50.8353C23.4915 50.8356 23.6421 50.8359 23.7973 50.8362C23.9345 50.8376 24.0718 50.8389 24.2132 50.8404C24.3924 50.8414 24.3924 50.8414 24.5753 50.8425C24.8752 50.8752 24.8752 50.8752 25.2502 51.1252C25.2914 52.1152 25.3327 53.1052 25.3752 54.1252C29.7477 54.1252 34.1202 54.1252 38.6252 54.1252C38.6664 53.1352 38.7077 52.1452 38.7502 51.1252C39.167 50.8473 39.3009 50.8432 39.7872 50.8404C39.9931 50.8383 39.9931 50.8383 40.2031 50.8362C40.429 50.8358 40.429 50.8358 40.6595 50.8353C40.818 50.8341 40.9766 50.8328 41.1399 50.8315C41.5748 50.8281 42.0097 50.8262 42.4446 50.8246C42.899 50.8227 43.3534 50.8193 43.8079 50.8161C44.6685 50.8102 45.5291 50.8057 46.3897 50.8015C47.3694 50.7967 48.3491 50.7906 49.3289 50.7843C51.3443 50.7713 53.3597 50.7602 55.3752 50.7502C55.3839 47.2656 55.3906 43.7809 55.3946 40.2963C55.3965 38.6783 55.3992 37.0603 55.4035 35.4423C55.4072 34.032 55.4096 32.6216 55.4105 31.2113C55.411 30.4646 55.4121 29.718 55.4148 28.9713C55.4174 28.2682 55.4182 27.5651 55.4176 26.862C55.4177 26.6042 55.4184 26.3465 55.4199 26.0888C55.4218 25.7361 55.4213 25.3835 55.4203 25.0308C55.4214 24.9295 55.4225 24.8282 55.4236 24.7238C55.4173 23.9141 55.2667 23.1395 54.8029 22.4621C54.734 22.3973 54.665 22.3326 54.5939 22.2658C54.5263 22.1991 54.4586 22.1324 54.3889 22.0637C53.541 21.4576 52.7831 21.449 51.7702 21.4636C51.6299 21.4641 51.4897 21.4646 51.3452 21.4652C50.8994 21.4673 50.4537 21.472 50.008 21.4768C49.7049 21.4786 49.4017 21.4803 49.0986 21.4819C48.3574 21.486 47.6163 21.4925 46.8752 21.5002C46.8752 22.2427 46.8752 22.9852 46.8752 23.7502C47.1278 23.7539 47.1278 23.7539 47.3856 23.7577C48.0097 23.7672 48.6338 23.7783 49.2578 23.7899C49.5281 23.7947 49.7984 23.799 50.0686 23.8029C50.4568 23.8086 50.8449 23.8159 51.2331 23.8234C51.3542 23.8249 51.4753 23.8263 51.6001 23.8278C51.769 23.8315 51.769 23.8315 51.9413 23.8353C52.0403 23.837 52.1394 23.8387 52.2415 23.8404C52.5002 23.8752 52.5002 23.8752 52.8752 24.1252C53.0224 24.5669 53.0179 24.9651 53.0169 25.4246C53.0172 25.5195 53.0175 25.6144 53.0178 25.7122C53.0185 26.0312 53.0184 26.3501 53.0183 26.6691C53.0187 26.8974 53.0191 27.1257 53.0196 27.354C53.0207 27.9749 53.021 28.5957 53.0211 29.2166C53.0212 29.7345 53.0217 30.2523 53.0221 30.7702C53.0231 31.9916 53.0234 33.213 53.0233 34.4345C53.0233 35.6956 53.0246 36.9567 53.0266 38.2178C53.0282 39.2997 53.0289 40.3815 53.0288 41.4634C53.0288 42.1099 53.0291 42.7564 53.0304 43.403C53.0316 44.0109 53.0317 44.6188 53.0307 45.2267C53.0306 45.45 53.0309 45.6733 53.0317 45.8967C53.0326 46.2011 53.0321 46.5055 53.0311 46.8099C53.0317 46.8987 53.0324 46.9874 53.033 47.0789C53.0299 47.5289 53.0118 47.8748 52.7502 48.2502C52.4461 48.4022 52.2459 48.3935 51.906 48.3973C51.7208 48.3997 51.7208 48.3997 51.5318 48.4022C51.331 48.4036 51.331 48.4036 51.1262 48.405C50.9204 48.4065 50.9204 48.4065 50.7104 48.408C50.4198 48.4098 50.1292 48.4111 49.8385 48.4121C49.3935 48.4142 48.9486 48.4197 48.5036 48.4252C48.2215 48.4265 47.9395 48.4276 47.6574 48.4284C47.5241 48.4306 47.3907 48.4328 47.2533 48.435C46.3321 48.4323 46.3321 48.4323 45.9156 48.1419C45.7094 47.8094 45.6812 47.6346 45.7502 47.2502C47.0812 45.9191 49.4933 46.795 51.3752 46.7502C51.3752 39.7377 51.3752 32.7252 51.3752 25.5002C49.8902 25.5002 48.4052 25.5002 46.8752 25.5002C46.8734 26.1199 46.8734 26.1199 46.8716 26.7521C46.8674 28.1201 46.8605 29.4881 46.8522 30.8562C46.8473 31.6853 46.8432 32.5143 46.8413 33.3434C46.8394 34.1442 46.8351 34.9449 46.8291 35.7457C46.8273 36.0505 46.8263 36.3554 46.8262 36.6602C46.8259 37.0887 46.8225 37.517 46.8184 37.9454C46.819 38.0702 46.8197 38.195 46.8203 38.3236C46.8004 39.685 46.3851 40.7524 45.4357 41.7297C44.0196 42.9633 42.217 42.9125 40.4382 42.9075C40.2333 42.9079 40.0284 42.9083 39.8236 42.9089C39.2709 42.91 38.7182 42.9096 38.1655 42.9088C37.585 42.9081 37.0044 42.9087 36.4238 42.9091C35.4491 42.9096 34.4745 42.909 33.4998 42.9078C32.3757 42.9064 31.2517 42.9069 30.1276 42.9082C29.1595 42.9094 28.1914 42.9095 27.2233 42.9089C26.6464 42.9085 26.0695 42.9084 25.4926 42.9093C24.9501 42.91 24.4075 42.9095 23.865 42.908C23.6668 42.9077 23.4686 42.9078 23.2705 42.9084C21.4955 42.9129 19.7743 42.8615 18.3986 41.6018C17.6792 40.8262 17.2388 39.8456 17.2304 38.7883C17.2292 38.6709 17.228 38.5535 17.2267 38.4325C17.226 38.3045 17.2253 38.1766 17.2245 38.0448C17.2233 37.9093 17.222 37.7739 17.2208 37.6344C17.2168 37.1867 17.2137 36.739 17.2106 36.2912C17.2081 35.9808 17.2054 35.6705 17.2028 35.3601C17.1966 34.6266 17.1909 33.893 17.1855 33.1595C17.1787 32.2423 17.1711 31.3251 17.1635 30.4079C17.1501 28.772 17.1374 27.1361 17.1252 25.5002C15.6402 25.5002 14.1552 25.5002 12.6252 25.5002C12.6252 32.5127 12.6252 39.5252 12.6252 46.7502C14.5879 46.7549 16.5507 46.7595 18.5729 46.7644C19.8131 46.7681 21.0532 46.772 22.2934 46.7763C24.2637 46.7831 26.2341 46.7896 28.2044 46.7935C29.6392 46.7964 31.074 46.8005 32.5088 46.8063C33.2688 46.8093 34.0289 46.8116 34.7889 46.8124C35.5038 46.8132 36.2185 46.8156 36.9333 46.8195C37.1962 46.8206 37.4591 46.821 37.722 46.8208C38.0799 46.8206 38.4377 46.8227 38.7956 46.8254C38.953 46.8244 38.953 46.8244 39.1136 46.8235C39.8203 46.8322 39.8203 46.8322 40.0887 47.0423C40.2502 47.2502 40.2502 47.2502 40.3049 47.6252C40.2502 48.0002 40.2502 48.0002 40.0674 48.2082C39.5912 48.4589 39.1507 48.4265 38.6201 48.422C38.4468 48.4227 38.4468 48.4227 38.27 48.4235C37.882 48.4247 37.4941 48.4232 37.1061 48.4217C36.8283 48.422 36.5505 48.4225 36.2727 48.4231C35.5176 48.4243 34.7625 48.4231 34.0073 48.4215C33.2181 48.42 32.4288 48.4205 31.6396 48.4208C30.3142 48.4209 28.9888 48.4195 27.6634 48.4172C26.2991 48.4148 24.9349 48.414 23.5707 48.4147C21.9273 48.4155 20.2839 48.4151 18.6404 48.4135C18.0124 48.4129 17.3844 48.4128 16.7563 48.4131C16.0173 48.4133 15.2783 48.4123 14.5393 48.4103C14.2675 48.4098 13.9958 48.4097 13.724 48.41C13.3541 48.4104 12.9843 48.4093 12.6144 48.4078C12.5059 48.4083 12.3974 48.4087 12.2856 48.4092C11.543 48.4037 11.543 48.4037 11.1252 48.1252C10.9779 47.6835 10.9825 47.2853 10.9835 46.8258C10.9832 46.7309 10.9829 46.636 10.9826 46.5382C10.9818 46.2192 10.9819 45.9003 10.982 45.5813C10.9817 45.353 10.9812 45.1247 10.9808 44.8964C10.9796 44.2755 10.9794 43.6546 10.9793 43.0338C10.9792 42.5159 10.9787 41.9981 10.9783 41.4802C10.9772 40.2588 10.9769 39.0373 10.977 37.8159C10.9771 36.5548 10.9758 35.2937 10.9738 34.0326C10.9722 32.9507 10.9715 31.8689 10.9716 30.787C10.9716 30.1405 10.9713 29.4939 10.9699 28.8474C10.9687 28.2395 10.9687 27.6316 10.9696 27.0237C10.9698 26.8004 10.9695 26.5771 10.9687 26.3537C10.9677 26.0493 10.9683 25.7449 10.9693 25.4405C10.9686 25.3517 10.968 25.263 10.9673 25.1715C10.9705 24.7215 10.9886 24.3756 11.2502 24.0002C11.5412 23.8547 11.7205 23.8559 12.0449 23.8495C12.2138 23.8458 12.2138 23.8458 12.3861 23.842C12.5079 23.8399 12.6296 23.8378 12.7551 23.8356C12.8796 23.833 13.0041 23.8304 13.1323 23.8278C13.531 23.8196 13.9296 23.8122 14.3283 23.8049C14.5982 23.7995 14.868 23.794 15.1379 23.7885C15.8003 23.7751 16.4627 23.7625 17.1252 23.7502C17.1252 23.0077 17.1252 22.2652 17.1252 21.5002C16.2356 21.4878 15.3461 21.4787 14.4564 21.4727C14.154 21.4702 13.8517 21.4668 13.5493 21.4625C13.1137 21.4564 12.6781 21.4536 12.2424 21.4514C12.1081 21.4488 11.9738 21.4462 11.8354 21.4435C10.7916 21.4432 9.97312 21.6459 9.26581 22.4768ZM6.12518 52.5002C6.01201 55.1229 6.01201 55.1229 7.12518 57.2502C8.3931 58.2932 9.61896 58.4309 11.2208 58.4228C11.4076 58.4232 11.5944 58.4238 11.7812 58.4246C12.2924 58.4261 12.8036 58.4254 13.3148 58.4242C13.867 58.4234 14.4191 58.4247 14.9713 58.4257C16.0521 58.4274 17.1329 58.427 18.2138 58.4259C19.0923 58.4251 19.9708 58.425 20.8493 58.4254C21.037 58.4255 21.037 58.4255 21.2285 58.4255C21.4826 58.4257 21.7368 58.4258 21.991 58.4259C24.3734 58.427 26.7559 58.4258 29.1384 58.4237C31.182 58.4221 33.2256 58.4224 35.2692 58.4241C37.6433 58.4261 40.0173 58.4269 42.3913 58.4257C42.6446 58.4256 42.8978 58.4255 43.151 58.4254C43.2756 58.4253 43.4002 58.4253 43.5285 58.4252C44.4059 58.4249 45.2832 58.4254 46.1605 58.4263C47.2299 58.4274 48.2993 58.4271 49.3686 58.4251C49.9141 58.4241 50.4595 58.4237 51.005 58.4249C51.5046 58.4261 52.0042 58.4254 52.5039 58.4235C52.6843 58.423 52.8647 58.4232 53.0451 58.4242C54.4959 58.4309 55.6743 58.3008 56.7551 57.2531C58.1361 55.7918 57.8752 54.6703 57.8752 52.5002C52.0589 52.5002 46.2427 52.5002 40.2502 52.5002C40.2089 53.4489 40.1677 54.3977 40.1252 55.3752C39.707 55.7934 39.6713 55.7971 39.1192 55.7978C38.9888 55.7989 38.8584 55.7999 38.724 55.801C38.581 55.8003 38.438 55.7995 38.2907 55.7987C38.1401 55.7994 37.9894 55.8 37.8342 55.8007C37.421 55.8021 37.0078 55.8018 36.5946 55.8006C36.1624 55.7996 35.7301 55.8005 35.2979 55.8011C34.572 55.8018 33.8461 55.8009 33.1202 55.7991C32.2807 55.797 31.4412 55.7977 30.6017 55.7998C29.8812 55.8015 29.1607 55.8017 28.4402 55.8007C28.0098 55.8001 27.5794 55.8001 27.1489 55.8013C26.6691 55.8026 26.1894 55.8008 25.7097 55.7987C25.4952 55.7999 25.4952 55.7999 25.2763 55.801C25.1459 55.8 25.0155 55.7989 24.8812 55.7978C24.711 55.7976 24.711 55.7976 24.5373 55.7974C24.2502 55.7502 24.2502 55.7502 23.8752 55.3752C23.8339 54.4264 23.7927 53.4777 23.7502 52.5002C17.9339 52.5002 12.1177 52.5002 6.12518 52.5002Z" fill="white"/>
<path d="M29.2756 33.1874C29.4501 33.1864 29.4501 33.1864 29.6281 33.1854C30.0126 33.1838 30.397 33.1859 30.7815 33.1881C31.0486 33.1881 31.3157 33.1879 31.5829 33.1876C32.1427 33.1874 32.7026 33.189 33.2624 33.1918C33.9804 33.1953 34.6983 33.195 35.4163 33.1934C35.9679 33.1925 36.5195 33.1935 37.0711 33.1951C37.3358 33.1956 37.6006 33.1957 37.8653 33.1952C38.2352 33.1948 38.605 33.1969 38.9748 33.1996C39.0845 33.199 39.1941 33.1985 39.307 33.1979C40.0464 33.207 40.0464 33.207 40.4398 33.4222C40.6938 33.7002 40.7413 33.8741 40.7502 34.2501C40.476 34.8247 40.476 34.8247 40.1252 35.0001C39.7541 35.0131 39.3859 35.0185 39.0147 35.0183C38.8996 35.0187 38.7846 35.0191 38.666 35.0195C38.2843 35.0207 37.9025 35.021 37.5207 35.0211C37.2561 35.0215 36.9914 35.0219 36.7267 35.0224C36.1712 35.0231 35.6158 35.0234 35.0603 35.0233C34.3479 35.0233 33.6356 35.025 32.9233 35.0271C32.3764 35.0285 31.8295 35.0288 31.2826 35.0287C31.0199 35.0289 30.7573 35.0294 30.4947 35.0304C30.1275 35.0316 29.7603 35.0312 29.3931 35.0305C29.2298 35.0315 29.2298 35.0315 29.0633 35.0326C28.963 35.0321 28.8628 35.0316 28.7595 35.031C28.6727 35.0311 28.5859 35.0312 28.4965 35.0312C28.2017 34.994 28.0028 34.9051 27.7502 34.7501C27.5727 34.395 27.5859 34.1433 27.6252 33.7501C28.0515 33.1114 28.5766 33.1797 29.2756 33.1874Z" fill="white"/>
<path d="M29.2756 24.0624C29.4501 24.0614 29.4501 24.0614 29.6281 24.0604C30.0126 24.0588 30.397 24.0609 30.7815 24.0631C31.0486 24.0631 31.3157 24.0629 31.5829 24.0626C32.1427 24.0624 32.7026 24.064 33.2624 24.0668C33.9804 24.0703 34.6983 24.07 35.4163 24.0684C35.9679 24.0675 36.5195 24.0685 37.0711 24.0701C37.3358 24.0706 37.6006 24.0707 37.8653 24.0702C38.2352 24.0698 38.605 24.0719 38.9748 24.0746C39.0845 24.074 39.1941 24.0735 39.307 24.0729C40.0464 24.082 40.0464 24.082 40.4398 24.2972C40.6938 24.5752 40.7413 24.7491 40.7502 25.1251C40.476 25.6997 40.476 25.6997 40.1252 25.8751C39.7541 25.8881 39.3859 25.8935 39.0147 25.8933C38.8996 25.8937 38.7846 25.8941 38.666 25.8945C38.2843 25.8957 37.9025 25.896 37.5207 25.8961C37.2561 25.8965 36.9914 25.8969 36.7267 25.8974C36.1712 25.8981 35.6158 25.8984 35.0603 25.8983C34.3479 25.8983 33.6356 25.9 32.9233 25.9021C32.3764 25.9035 31.8295 25.9038 31.2826 25.9037C31.0199 25.9039 30.7573 25.9044 30.4947 25.9054C30.1275 25.9066 29.7603 25.9062 29.3931 25.9055C29.2298 25.9065 29.2298 25.9065 29.0633 25.9076C28.963 25.9071 28.8628 25.9066 28.7595 25.906C28.6727 25.9061 28.5859 25.9062 28.4965 25.9062C28.2017 25.869 28.0028 25.7801 27.7502 25.6251C27.5727 25.27 27.5859 25.0183 27.6252 24.6251C28.0515 23.9864 28.5766 24.0547 29.2756 24.0624Z" fill="white"/>
<path d="M28.5071 19.577C28.6102 19.576 28.7132 19.5749 28.8194 19.5738C28.932 19.5746 29.0446 19.5753 29.1606 19.5761C29.2796 19.5755 29.3985 19.5748 29.5211 19.5741C29.9149 19.5725 30.3088 19.5736 30.7026 19.5748C30.9759 19.5746 31.2491 19.5742 31.5223 19.5738C32.0952 19.5732 32.6681 19.574 33.241 19.5758C33.9762 19.5779 34.7113 19.5767 35.4465 19.5744C36.0108 19.5731 36.575 19.5735 37.1393 19.5745C37.4104 19.5747 37.6816 19.5744 37.9527 19.5735C38.3313 19.5726 38.7098 19.574 39.0884 19.5761C39.201 19.5754 39.3136 19.5746 39.4296 19.5738C39.5327 19.5749 39.6357 19.5759 39.7419 19.577C39.8314 19.5772 39.9209 19.5773 40.0131 19.5775C40.3197 19.6387 40.4297 19.7603 40.6245 19.9997C40.7718 20.3396 40.7566 20.4762 40.648 20.8356C40.4995 21.1247 40.4995 21.1247 40.2495 21.2497C39.8663 21.2633 39.4859 21.2693 39.1026 21.2698C38.9837 21.2704 38.8647 21.271 38.7422 21.2717C38.3477 21.2735 37.9531 21.2744 37.5586 21.275C37.2852 21.2758 37.0118 21.2765 36.7384 21.2772C36.1648 21.2785 35.5911 21.2792 35.0175 21.2797C34.2813 21.2804 33.5451 21.2834 32.809 21.2869C32.2442 21.2893 31.6794 21.2899 31.1146 21.2901C30.8431 21.2905 30.5716 21.2915 30.3002 21.2931C29.921 21.2952 29.5418 21.295 29.1626 21.2942C28.9934 21.2959 28.9934 21.2959 28.8208 21.2977C28.7176 21.297 28.6143 21.2963 28.508 21.2956C28.3735 21.2959 28.3735 21.2959 28.2363 21.2961C27.9238 21.2348 27.8138 21.1275 27.6245 20.8747C27.5425 20.1091 27.5425 20.1091 27.7832 19.7878C28.047 19.5889 28.1794 19.5775 28.5071 19.577Z" fill="white"/>
<path d="M28.5075 28.702C28.6106 28.701 28.7136 28.6999 28.8198 28.6988C28.9324 28.6996 29.045 28.7003 29.161 28.7011C29.28 28.7005 29.3989 28.6998 29.5214 28.6991C29.9153 28.6975 30.3091 28.6986 30.703 28.6998C30.9762 28.6996 31.2495 28.6992 31.5227 28.6988C32.0956 28.6982 32.6685 28.699 33.2414 28.7008C33.9766 28.7029 34.7117 28.7017 35.4469 28.6994C36.0112 28.6981 36.5754 28.6985 37.1397 28.6995C37.4108 28.6997 37.6819 28.6994 37.9531 28.6985C38.3317 28.6976 38.7102 28.699 39.0888 28.7011C39.2014 28.7004 39.314 28.6996 39.43 28.6988C39.5331 28.6999 39.6361 28.7009 39.7423 28.702C39.8318 28.7022 39.9213 28.7023 40.0135 28.7025C40.3201 28.7637 40.4301 28.8853 40.6249 29.1247C40.7722 29.4646 40.757 29.6012 40.6483 29.9606C40.4999 30.2497 40.4999 30.2497 40.2499 30.3747C39.8667 30.389 39.4863 30.3956 39.103 30.3968C38.984 30.3976 38.8651 30.3984 38.7426 30.3993C38.3481 30.4017 37.9535 30.4032 37.559 30.4044C37.4245 30.4049 37.2901 30.4055 37.1516 30.406C36.4403 30.4086 35.7291 30.4104 35.0179 30.4115C34.2817 30.4129 33.5455 30.4172 32.8094 30.4222C32.2446 30.4255 31.6798 30.4265 31.115 30.427C30.8435 30.4276 30.572 30.429 30.3006 30.4313C29.9213 30.4344 29.5422 30.4343 29.163 30.4334C29.0502 30.435 28.9374 30.4366 28.8212 30.4382C28.064 30.4319 28.064 30.4319 27.7426 30.1449C27.5834 29.7793 27.5746 29.519 27.6249 29.1247C27.8924 28.775 28.0734 28.7027 28.5075 28.702Z" fill="white"/>
<path d="M29.3052 14.5627C29.4198 14.5625 29.5344 14.5623 29.6526 14.5621C29.8946 14.5623 30.1367 14.5638 30.3788 14.5664C30.7492 14.57 31.1193 14.5689 31.4897 14.5673C31.7251 14.5681 31.9604 14.5691 32.1958 14.5705C32.3618 14.5699 32.3618 14.5699 32.5312 14.5694C33.2962 14.5811 33.2962 14.5811 33.6951 14.8004C33.9179 15.0466 33.943 15.1704 33.938 15.4997C33.9393 15.5848 33.9406 15.6698 33.9419 15.7575C33.8755 15.9997 33.8755 15.9997 33.6951 16.1989C33.208 16.4668 32.7432 16.4307 32.1958 16.4289C32.0238 16.4299 32.0238 16.4299 31.8484 16.4309C31.6063 16.4317 31.3643 16.4315 31.1222 16.4304C30.7518 16.4294 30.3816 16.433 30.0112 16.4369C29.7759 16.4371 29.5405 16.4371 29.3052 16.4367C29.1945 16.4381 29.0838 16.4395 28.9698 16.441C28.2054 16.4323 28.2054 16.4323 27.8057 16.1443C27.5585 15.7745 27.5528 15.5606 27.6255 15.1247C28.0566 14.4797 28.5992 14.5537 29.3052 14.5627Z" fill="white"/>
<path d="M24.125 33.1958C24.2259 33.1949 24.3267 33.194 24.4307 33.1931C24.8693 33.1978 25.173 33.2105 25.5664 33.4145C25.75 33.6255 25.75 33.6255 25.8125 34.0551C25.75 34.5005 25.75 34.5005 25.562 34.7739C25.1232 35.0925 24.7172 35.0783 24.1953 35.0708C24.0545 35.0752 24.0545 35.0752 23.9109 35.0798C23.3811 35.0784 23.1797 35.0438 22.75 34.7036C22.5 34.3755 22.5 34.3755 22.4297 34.0551C22.6398 33.1449 23.3449 33.1765 24.125 33.1958Z" fill="white"/>
<path d="M24.125 24.0708C24.2259 24.0699 24.3267 24.069 24.4307 24.0681C24.8693 24.0728 25.173 24.0855 25.5664 24.2895C25.75 24.5005 25.75 24.5005 25.8125 24.9301C25.75 25.3755 25.75 25.3755 25.562 25.6489C25.1232 25.9675 24.7172 25.9533 24.1953 25.9458C24.0545 25.9502 24.0545 25.9502 23.9109 25.9548C23.3811 25.9534 23.1797 25.9188 22.75 25.5786C22.5 25.2505 22.5 25.2505 22.4297 24.9301C22.6398 24.0199 23.3449 24.0515 24.125 24.0708Z" fill="white"/>
<path d="M24.1172 14.5701C24.2186 14.5676 24.3201 14.5651 24.4246 14.5625C24.9083 14.5629 25.1673 14.5647 25.5669 14.8547C25.8176 15.2244 25.823 15.437 25.75 15.8748C25.562 16.1438 25.562 16.1438 25.25 16.3748C24.8784 16.4283 24.5657 16.4504 24.1953 16.4451C24.0545 16.4495 24.0545 16.4495 23.9109 16.4541C23.383 16.4527 23.1777 16.4154 22.7456 16.0823C22.5 15.7498 22.5 15.7498 22.5 15.3591C22.7975 14.5038 23.3133 14.5631 24.1172 14.5701Z" fill="white"/>
<path d="M23.7669 28.7094C23.94 28.71 23.94 28.71 24.1167 28.7106C24.2892 28.7076 24.2892 28.7076 24.4651 28.7045C24.6308 28.7044 24.6308 28.7044 24.7998 28.7043C24.901 28.7039 25.0022 28.7035 25.1064 28.7031C25.4413 28.7612 25.5508 28.852 25.7495 29.1247C25.8314 29.8892 25.8314 29.8892 25.5928 30.2111C25.1833 30.518 24.6881 30.4334 24.1948 30.4294C24.0338 30.4331 24.0338 30.4331 23.8694 30.4369C23.0887 30.4363 23.0887 30.4363 22.6739 30.1496C22.4995 29.8747 22.4995 29.8747 22.5152 29.4215C22.7164 28.6452 23.0614 28.715 23.7669 28.7094Z" fill="white"/>
<path d="M23.7669 19.5844C23.94 19.585 23.94 19.585 24.1167 19.5856C24.2892 19.5826 24.2892 19.5826 24.4651 19.5795C24.6308 19.5794 24.6308 19.5794 24.7998 19.5793C24.901 19.5789 25.0022 19.5785 25.1064 19.5781C25.4413 19.6362 25.5508 19.727 25.7495 19.9997C25.8314 20.7642 25.8314 20.7642 25.5928 21.0861C25.1833 21.393 24.6881 21.3084 24.1948 21.3044C24.0338 21.3081 24.0338 21.3081 23.8694 21.3119C23.0887 21.3113 23.0887 21.3113 22.6739 21.0246C22.4995 20.7497 22.4995 20.7497 22.5152 20.2965C22.7164 19.5202 23.0614 19.59 23.7669 19.5844Z" fill="white"/>
<path d="M43.5003 46.75C43.805 46.9453 43.805 46.9453 44.0003 47.25C44.0003 47.7264 43.9754 48.0064 43.6644 48.375C43.2663 48.5471 43.0366 48.4975 42.6253 48.375C42.3909 48.2266 42.3909 48.2266 42.2503 48C42.1827 47.5462 42.1923 47.3347 42.4534 46.9531C42.8393 46.6891 43.0413 46.6735 43.5003 46.75Z" fill="white"/>
</svg>
