<svg width="18" height="13" viewBox="0 0 18 13" fill="none" xmlns="http://www.w3.org/2000/svg">
<path fillRule="evenodd" clipRule="evenodd" d="M5.38074 0.0275652C4.62164 0.123868 3.93308 0.327491 3.31229 0.639267C2.67803 0.957804 2.28523 1.24368 1.75381 1.77352C0.879136 2.64556 0.351972 3.61333 0.0841771 4.83858C-0.028059 5.35204 -0.028059 6.675 0.0841771 7.18847C0.340033 8.35911 0.865968 9.34861 1.67598 10.1834C2.55157 11.0857 3.63996 11.6762 4.88606 11.9251C5.16268 11.9803 5.4748 12.0015 5.99525 12.0002C6.78745 11.9982 7.31764 11.9139 7.93685 11.6916C8.31135 11.5571 8.97067 11.2436 9.00882 11.1819C9.02343 11.1583 7.88233 9.98568 6.47299 8.57621L3.91057 6.01352L6.47299 3.45083C7.88233 2.04136 9.02343 0.868788 9.00882 0.845173C8.97067 0.783415 8.31135 0.469926 7.93685 0.335435C7.4124 0.147132 6.78047 0.0377923 6.12693 0.0221662C5.80102 0.014397 5.46524 0.0168112 5.38074 0.0275652ZM8.98002 3.0068L5.97348 6.01361L8.9802 9.02033L11.9869 12.027L14.9935 9.02024L18 6.01343L14.9933 3.00672L11.9866 0L8.98002 3.0068Z" fill="#D6AB37"/>
</svg>
