<svg width="64" height="64" viewBox="0 0 64 64" fill="none" xmlns="http://www.w3.org/2000/svg">
<g clip-path="url(#clip0_2154_27464)">
<path d="M31.9765 -0.0551411C32.1736 -0.0535852 32.1736 -0.0535852 32.3746 -0.0519978C34.9656 0.00413254 36.8196 1.29648 38.8335 2.78586C39.3089 3.13441 39.791 3.47327 40.2734 3.81205C40.4419 3.93052 40.6103 4.04901 40.7788 4.16752C40.884 4.24135 40.884 4.24135 40.9913 4.31669C41.25 4.49955 41.25 4.49955 41.4297 4.65143C42.0128 5.11956 42.4374 5.21414 43.1743 5.20102C43.2754 5.20173 43.3766 5.20244 43.4808 5.20317C43.8127 5.20485 44.1446 5.20225 44.4765 5.19974C44.7086 5.20043 44.9407 5.20145 45.1727 5.20277C45.7823 5.20563 46.3919 5.20511 47.0014 5.20355C47.977 5.20126 48.9526 5.20251 49.9281 5.20678C50.2679 5.20754 50.6076 5.20589 50.9474 5.20403C51.1568 5.2044 51.3662 5.20486 51.5757 5.20542C51.6693 5.20426 51.763 5.2031 51.8595 5.2019C52.6492 5.20784 53.2207 5.39608 53.8437 5.9058C54.5717 6.79553 54.5327 7.55132 54.4804 8.65677C54.4735 8.95982 54.4671 9.26288 54.4614 9.56595C54.4512 10.0405 54.4375 10.5137 54.413 10.9877C54.265 12.727 54.265 12.727 54.8522 14.2982C55.4075 14.8058 56.0306 15.1497 56.7054 15.4736C57.1512 15.702 57.5357 15.9974 57.9297 16.3042C58.6442 16.8362 59.3705 17.3498 60.1015 17.8589C60.9492 18.4499 61.7938 19.0447 62.6328 19.648C62.7273 19.7156 62.8217 19.7831 62.9191 19.8528C63.0065 19.9159 63.094 19.979 63.1841 20.044C63.2604 20.099 63.3368 20.1539 63.4155 20.2106C63.9858 20.6571 63.9858 20.6571 64.0471 21.0579C64.0472 21.1817 64.0474 21.3056 64.0475 21.4332C64.0486 21.5762 64.0496 21.7191 64.0507 21.8664C64.05 22.0241 64.0492 22.1819 64.0484 22.3444C64.049 22.5132 64.0496 22.6819 64.0505 22.8506C64.0523 23.3153 64.0517 23.78 64.0508 24.2447C64.0502 24.7455 64.0518 25.2462 64.0531 25.747C64.0552 26.7287 64.0553 27.7103 64.0547 28.6919C64.0542 29.4898 64.0544 30.2877 64.055 31.0856C64.0551 31.1991 64.0552 31.3125 64.0553 31.4294C64.0555 31.6599 64.0557 31.8904 64.0559 32.1208C64.0576 34.2839 64.0569 36.447 64.0555 38.6101C64.0542 40.589 64.0559 42.5678 64.0588 44.5467C64.0619 46.5779 64.0631 48.6091 64.0623 50.6404C64.0618 51.781 64.0621 52.9216 64.0643 54.0622C64.0661 55.0336 64.0662 56.005 64.064 56.9763C64.063 57.4719 64.0627 57.9674 64.0646 58.463C64.0664 58.917 64.0658 59.3708 64.0633 59.8248C64.0626 60.0662 64.0644 60.3077 64.0663 60.5491C64.0575 61.579 63.9291 62.2659 63.227 63.0572C63.0876 63.1756 63.0876 63.1756 62.9453 63.2964C62.8526 63.3773 62.76 63.4582 62.6645 63.5415C62.0479 63.9845 61.4895 64.0358 60.7466 64.0317C60.6457 64.0321 60.5449 64.0326 60.4409 64.033C60.1015 64.0342 59.7621 64.0336 59.4227 64.033C59.1774 64.0334 58.9322 64.034 58.6869 64.0347C58.0119 64.0362 57.3368 64.0362 56.6618 64.0359C55.9342 64.0358 55.2066 64.0372 54.479 64.0384C53.053 64.0405 51.6271 64.0412 50.2012 64.0413C49.0424 64.0414 47.8836 64.0419 46.7248 64.0427C46.3913 64.043 46.0578 64.0432 45.7244 64.0434C45.6415 64.0435 45.5586 64.0435 45.4732 64.0436C43.1411 64.0451 40.809 64.0461 38.4769 64.046C38.389 64.046 38.3011 64.046 38.2105 64.046C37.7647 64.046 37.319 64.0459 36.8733 64.0459C36.7405 64.0459 36.7405 64.0459 36.6051 64.0459C36.426 64.0459 36.247 64.0459 36.068 64.0459C33.2827 64.0457 30.4975 64.0476 27.7122 64.051C24.5835 64.0548 21.4548 64.057 18.3261 64.0568C16.6693 64.0567 15.0125 64.0574 13.3558 64.0601C11.9452 64.0623 10.5347 64.0629 9.12417 64.0612C8.40431 64.0604 7.68447 64.0604 6.9646 64.0625C6.30573 64.0645 5.6469 64.0641 4.98804 64.0619C4.74956 64.0616 4.51109 64.062 4.27262 64.0634C3.94853 64.0652 3.62459 64.0639 3.3005 64.0618C3.20785 64.063 3.1152 64.0643 3.01974 64.0655C2.1459 64.0537 1.38862 63.7127 0.773407 63.0855C0.70557 63.0189 0.637733 62.9524 0.567841 62.8838C-0.0858343 62.0051 -0.0546375 61.1537 -0.051857 60.0937C-0.0527373 59.9244 -0.0537784 59.7552 -0.054966 59.5859C-0.0577392 59.1221 -0.0581749 58.6584 -0.0582123 58.1946C-0.0586506 57.6939 -0.0612283 57.1932 -0.0635033 56.6925C-0.0680511 55.5985 -0.0698006 54.5045 -0.0709839 53.4105C-0.0717369 52.7274 -0.0730818 52.0443 -0.0745468 51.3611C-0.0785151 49.4694 -0.0818549 47.5776 -0.0826416 45.6858C-0.0827179 45.5043 -0.0827201 45.5043 -0.082798 45.3192C-0.082899 45.0739 -0.0829989 44.8287 -0.0830994 44.5834C-0.0831501 44.4617 -0.0831997 44.3399 -0.083252 44.2145C-0.0833022 44.0926 -0.0833528 43.9707 -0.0834045 43.8451C-0.0843414 41.8686 -0.0899047 39.8922 -0.0974846 37.9157C-0.105206 35.886 -0.109188 33.8563 -0.109371 31.8266C-0.109559 30.6872 -0.111341 29.5478 -0.117222 28.4083C-0.122207 27.4385 -0.123766 26.4687 -0.12085 25.4988C-0.119464 25.004 -0.119695 24.5093 -0.124283 24.0145C-0.128445 23.5613 -0.127977 23.1084 -0.123848 22.6553C-0.122843 22.414 -0.126761 22.1728 -0.130859 21.9315C-0.114972 20.9019 -0.114973 20.9019 0.214758 20.4649C0.466259 20.2406 0.716271 20.0557 0.999969 19.8745C1.15218 19.7651 1.30423 19.6555 1.45602 19.5454C1.61091 19.441 1.7662 19.3372 1.92184 19.2339C2.65846 18.7366 3.38339 18.2263 4.10153 17.7027C4.97059 17.0703 5.85053 16.4563 6.74109 15.8546C6.92786 15.7281 7.11235 15.5981 7.29474 15.4653C7.56015 15.2919 7.79461 15.1707 8.08142 15.0438C8.61426 14.7814 9.05664 14.5138 9.37497 13.9995C9.67826 12.8865 9.56257 11.6794 9.52341 10.5386C9.51452 10.0656 9.50811 9.59269 9.50331 9.11964C9.49954 8.82631 9.493 8.53301 9.48331 8.23982C9.46049 7.27968 9.53265 6.66794 10.1562 5.9058C10.8677 5.32366 11.5003 5.19435 12.4025 5.22129C12.5014 5.22262 12.6003 5.22396 12.7022 5.22534C12.9159 5.22828 13.1296 5.232 13.3433 5.23642C13.6837 5.24281 14.024 5.24575 14.3645 5.24759C15.3322 5.25283 16.2997 5.25935 17.2672 5.27994C20.6045 5.49096 20.6045 5.49096 23.5065 4.13276C23.6525 3.98945 23.7959 3.84337 23.9359 3.6941C24.2012 3.42108 24.5013 3.22196 24.8203 3.01615C24.9138 2.9525 25.0074 2.88885 25.1037 2.82328C25.1932 2.76285 25.2827 2.70243 25.375 2.64017C25.9857 2.22641 26.5919 1.80994 27.1875 1.37455C28.6266 0.366931 30.2333 -0.0730222 31.9765 -0.0551411ZM29.625 2.62455C29.4715 2.69343 29.4715 2.69343 29.3149 2.76371C28.0786 3.38279 26.8536 4.27087 25.875 5.24955C29.9175 5.24955 33.96 5.24955 38.125 5.24955C37.7172 4.84174 37.4116 4.53904 36.9546 4.22562C36.8539 4.15658 36.7533 4.08753 36.6496 4.01639C36.5461 3.94638 36.4426 3.87637 36.3359 3.80423C36.2338 3.73374 36.1318 3.66324 36.0266 3.59061C34.7267 2.70504 33.6038 2.19858 32.0156 2.21048C31.9166 2.21119 31.8177 2.21189 31.7158 2.21262C30.9656 2.22817 30.315 2.3135 29.625 2.62455ZM11.75 7.49955C11.7113 10.9723 11.6726 14.445 11.6328 18.023C11.6157 19.1176 11.5986 20.2122 11.5811 21.34C11.5748 22.3252 11.5748 22.3252 11.571 23.3105C11.5693 23.7479 11.5623 24.1849 11.552 24.6221C11.3612 27.1257 11.3612 27.1257 12.1551 29.3871C12.5289 29.7552 12.9276 30.0191 13.3954 30.253C13.746 30.4386 14.0303 30.6931 14.3281 30.9527C14.491 31.0846 14.491 31.0846 14.6572 31.2193C15.0462 31.5374 15.4296 31.8616 15.8125 32.187C16.4185 32.702 17.031 33.208 17.6479 33.71C18.0422 34.0343 18.4315 34.3641 18.8203 34.6949C19.2913 35.0955 19.7653 35.4904 20.25 35.8745C20.8065 36.3157 21.3483 36.7723 21.8891 37.2325C22.3182 37.5971 22.7507 37.9567 23.1875 38.312C23.6924 38.7231 24.1913 39.1405 24.6875 39.562C25.4097 40.175 26.1384 40.7789 26.875 41.3745C27.0171 41.4924 27.1592 41.6102 27.3012 41.7281C29.0809 43.1867 30.8125 43.8319 33.125 43.6245C34.8103 43.2924 36.0449 42.2653 37.3026 41.1697C37.5928 40.9195 37.8899 40.6783 38.1875 40.437C38.6924 40.026 39.1913 39.6086 39.6875 39.187C40.2836 38.6808 40.8849 38.1816 41.4912 37.6875C42.6885 36.7111 43.8815 35.7296 45.0585 34.7286C45.5829 34.2833 46.1149 33.8479 46.6484 33.4136C47.0397 33.0919 47.4264 32.7651 47.8125 32.437C48.4177 31.9227 49.0294 31.4174 49.6455 30.916C50.1221 30.5242 50.5926 30.1253 51.0622 29.7251C51.3532 29.4776 51.6351 29.2429 51.9558 29.0343C52.2849 28.7701 52.2849 28.7701 52.3269 28.3562C52.3263 28.1999 52.3257 28.0437 52.3251 27.8827C52.3257 27.7957 52.3262 27.7087 52.3268 27.6191C52.3278 27.3267 52.3243 27.0345 52.3209 26.7421C52.3207 26.5293 52.3208 26.3165 52.3212 26.1036C52.3213 25.5333 52.3177 24.9631 52.3133 24.3929C52.3097 23.8579 52.3095 23.3229 52.3091 22.7879C52.3058 21.223 52.2971 19.6582 52.289 18.0933C52.2761 14.5974 52.2633 11.1014 52.25 7.49955C38.885 7.49955 25.52 7.49955 11.75 7.49955ZM8.49216 17.4136C7.79979 17.9381 7.10071 18.4481 6.38278 18.937C6.30202 18.9921 6.22127 19.0472 6.13806 19.1039C5.97158 19.2174 5.80509 19.3309 5.63858 19.4444C5.15826 19.7727 4.68014 20.104 4.20309 20.437C4.11158 20.5001 4.02007 20.5632 3.92578 20.6282C3.84102 20.6876 3.75625 20.747 3.66891 20.8081C3.59393 20.8603 3.51894 20.9124 3.44168 20.9661C3.21506 21.1379 3.21506 21.1379 2.99997 21.4995C3.91714 22.2909 4.83736 23.0762 5.7778 23.8399C6.16797 24.1598 6.55299 24.4853 6.93747 24.812C7.46193 25.2567 7.98682 25.7007 8.51559 26.1402C8.6242 26.2307 8.7328 26.3213 8.8447 26.4146C9.12233 26.6456 9.12233 26.6456 9.49997 26.7495C9.49997 23.4495 9.49997 20.1495 9.49997 16.7495C9.17667 16.7495 8.75446 17.2131 8.49216 17.4136ZM54.5 16.7495C54.5 20.0495 54.5 23.3495 54.5 26.7495C55.0124 26.4933 55.395 26.1785 55.8203 25.8042C55.9777 25.6674 56.1353 25.5307 56.2929 25.3941C56.3706 25.3267 56.4483 25.2594 56.5283 25.19C56.9378 24.8382 57.3582 24.4999 57.7773 24.1597C58.1704 23.8372 58.5581 23.5088 58.9453 23.1792C59.6195 22.6057 60.3046 22.0474 61 21.4995C60.502 20.9685 59.9601 20.5526 59.3672 20.1324C59.2699 20.0628 59.1727 19.9933 59.0725 19.9216C58.7573 19.6967 58.4413 19.473 58.125 19.2495C58.0157 19.1724 57.9065 19.0952 57.7939 19.0157C57.2643 18.6421 56.7339 18.2696 56.2026 17.8985C56.1181 17.8394 56.0336 17.7804 55.9465 17.7195C55.4674 17.3917 54.983 17.0716 54.5 16.7495ZM2.24997 23.8745C2.24997 35.9195 2.24997 47.9645 2.24997 60.3745C2.79171 60.0512 2.79171 60.0512 3.27048 59.6744C3.3403 59.6137 3.41012 59.5531 3.48206 59.4906C3.555 59.4265 3.62794 59.3624 3.70309 59.2964C3.86006 59.1602 4.01712 59.0242 4.17429 58.8882C4.25125 58.8216 4.32821 58.755 4.4075 58.6863C4.80569 58.3443 5.21333 58.0142 5.62057 57.6831C6.81758 56.7095 8.0081 55.7282 9.1835 54.7286C9.70788 54.2833 10.2399 53.8479 10.7734 53.4136C11.1647 53.0919 11.5514 52.7651 11.9375 52.437C12.5336 51.9308 13.1349 51.4316 13.7412 50.9375C14.9385 49.9611 16.1315 48.9796 17.3085 47.9786C17.8329 47.5333 18.3649 47.0979 18.8984 46.6636C19.2897 46.3419 19.6764 46.0151 20.0625 45.687C20.6674 45.173 21.2786 44.6679 21.8945 44.167C22.3793 43.7681 22.8574 43.3615 23.3342 42.9532C23.6316 42.6996 23.9242 42.4667 24.25 42.2495C24.25 42.167 24.25 42.0845 24.25 41.9995C24.0615 41.8277 23.8643 41.6653 23.664 41.5074C23.5385 41.407 23.413 41.3066 23.2837 41.2032C23.2167 41.1497 23.1498 41.0962 23.0808 41.0411C22.7363 40.7624 22.3997 40.4745 22.0625 40.187C21.5664 39.7654 21.0674 39.3481 20.5625 38.937C19.9869 38.4686 19.4199 37.9908 18.8545 37.5103C18.3175 37.0547 17.7733 36.6086 17.227 36.1641C16.8327 35.8398 16.4435 35.51 16.0547 35.1792C15.5836 34.7786 15.1097 34.3837 14.625 33.9995C14.0684 33.5584 13.5266 33.1018 12.9858 32.6416C12.5568 32.277 12.1242 31.9174 11.6875 31.562C11.1119 31.0936 10.5449 30.6158 9.97946 30.1353C9.44245 29.6797 8.89826 29.2336 8.35202 28.7891C7.95774 28.4648 7.56847 28.135 7.17966 27.8042C6.61121 27.3208 6.03474 26.85 5.44968 26.3868C5.06237 26.074 4.68349 25.7522 4.30466 25.4292C3.34442 24.4466 3.34442 24.4466 2.24997 23.8745ZM60.8906 24.4917C60.7406 24.6198 60.5905 24.7477 60.4404 24.8755C60.3654 24.9394 60.2905 25.0032 60.2132 25.069C59.8161 25.4052 59.4121 25.7329 59.0088 26.0616C57.8114 27.038 56.6184 28.0195 55.4414 29.0205C54.9171 29.4658 54.3851 29.9012 53.8515 30.3355C53.4602 30.6572 53.0735 30.984 52.6875 31.312C52.0814 31.827 51.4689 32.333 50.852 32.835C50.4577 33.1593 50.0685 33.4891 49.6797 33.8199C49.1109 34.3036 48.5339 34.7745 47.9487 35.2383C47.4961 35.6036 47.0538 35.9806 46.6108 36.3575C46.1818 36.7221 45.7492 37.0817 45.3125 37.437C44.8075 37.8481 44.3086 38.2654 43.8125 38.687C43.2078 39.2009 42.5967 39.706 41.9809 40.2066C41.492 40.609 41.0101 41.0194 40.5298 41.4319C40.0269 41.8611 40.0269 41.8611 39.75 41.9995C39.9048 42.464 40.0862 42.5739 40.4687 42.8745C40.5931 42.9738 40.7175 43.0731 40.8457 43.1753C40.9118 43.228 40.978 43.2807 41.0461 43.335C41.3902 43.6127 41.726 43.9001 42.0625 44.187C42.5585 44.6087 43.0575 45.026 43.5625 45.437C44.0674 45.8481 44.5663 46.2655 45.0625 46.687C45.7844 47.3002 46.515 47.9021 47.25 48.4995C48.0556 49.1544 48.8542 49.8165 49.6454 50.4887C50.0725 50.8511 50.5031 51.2085 50.9375 51.562C51.513 52.0305 52.08 52.5083 52.6455 52.9888C53.1825 53.4444 53.7267 53.8905 54.2729 54.335C54.6672 54.6593 55.0565 54.9891 55.4453 55.3199C55.9163 55.7205 56.3903 56.1154 56.875 56.4995C57.3597 56.8837 57.8336 57.2786 58.3047 57.6792C59.9254 59.3447 59.9254 59.3447 61.75 60.3745C61.75 48.3295 61.75 36.2845 61.75 23.8745C61.4536 23.8745 61.1164 24.2974 60.8906 24.4917ZM25.1406 44.3667C24.4677 44.955 23.7879 45.5313 23.0932 46.0938C22.7012 46.4144 22.3153 46.7416 21.9297 47.0699C21.3609 47.5536 20.7839 48.0245 20.1987 48.4883C19.7461 48.8536 19.3038 49.2306 18.8608 49.6075C18.4318 49.9721 17.9992 50.3317 17.5625 50.687C17.0575 51.0981 16.5586 51.5154 16.0625 51.937C15.4564 52.452 14.8439 52.958 14.227 53.46C13.8327 53.7843 13.4435 54.1141 13.0547 54.4449C12.4859 54.9286 11.9089 55.3995 11.3237 55.8633C10.8711 56.2286 10.4288 56.6056 9.98581 56.9825C9.55675 57.3471 9.12423 57.7067 8.68747 58.062C8.11261 58.53 7.54615 59.0069 6.98166 59.4872C6.42986 59.9557 5.86944 60.4129 5.30466 60.8658C4.97877 61.1426 4.67731 61.4472 4.37497 61.7495C22.6075 61.7495 40.84 61.7495 59.625 61.7495C59.1114 61.2342 59.1114 61.2342 58.5771 60.7476C58.5016 60.6821 58.4261 60.6166 58.3483 60.549C58.2694 60.4811 58.1906 60.4133 58.1093 60.3433C58.0265 60.2717 57.9436 60.2001 57.8582 60.1263C57.2773 59.6262 56.6883 59.1373 56.0927 58.6548C55.7037 58.3367 55.3203 58.0125 54.9375 57.687C54.3413 57.1808 53.7401 56.6816 53.1338 56.1875C51.9364 55.2111 50.7434 54.2296 49.5664 53.2286C49.0421 52.7833 48.5101 52.3479 47.9765 51.9136C47.5852 51.5919 47.1985 51.2651 46.8125 50.937C46.2163 50.4308 45.6151 49.9316 45.0088 49.4375C43.8115 48.4611 42.6187 47.4796 41.4417 46.4789C40.916 46.0325 40.3834 45.5951 39.8486 45.1597C39.2286 44.6526 38.6145 44.1383 38 43.6245C37.6834 43.8114 37.3718 44.0017 37.0659 44.2056C34.9424 45.6213 32.6129 46.1178 30.0864 45.668C28.6773 45.3263 27.426 44.6648 26.2988 43.7578C25.8657 43.4258 25.4689 44.0776 25.1406 44.3667Z" fill="white"/>
<path d="M39.7501 13.5624C39.9182 13.7066 40.0849 13.8524 40.2501 13.9999C40.3402 14.071 40.4303 14.142 40.5231 14.2152C42.5597 15.8777 43.6921 18.4339 44.0001 20.9999C44.1985 24.0011 43.4808 26.6814 41.5001 28.9999C40.5247 30.0366 39.2636 30.6826 37.8385 30.7772C36.4709 30.8124 35.5936 30.6496 34.5788 29.7147C34.3751 29.4999 34.3751 29.4999 34.1251 29.1249C34.0523 29.1808 33.9795 29.2367 33.9044 29.2943C32.2582 30.5083 30.6426 30.9127 28.6251 30.7499C27.3553 30.5228 26.3154 29.8469 25.5158 28.8358C24.5354 27.3201 24.4377 25.461 24.7736 23.7343C24.9634 22.9333 25.2485 22.2294 25.6251 21.4999C25.6775 21.3884 25.7299 21.2769 25.7838 21.162C26.6832 19.3477 28.3273 17.7988 30.2501 17.1249C31.3659 16.7595 32.9474 16.8816 34.0001 17.3749C34.626 17.7341 35.1975 18.1614 35.7501 18.6249C35.7714 18.548 35.7927 18.4712 35.8146 18.392C36.0585 17.5784 36.0585 17.5784 36.3439 17.2421C36.762 17.0679 37.0519 17.062 37.5001 17.1249C37.8673 17.3593 37.8673 17.3593 38.1251 17.7499C38.2299 18.5968 38.0739 19.4332 37.901 20.2602C37.8775 20.377 37.854 20.4939 37.8298 20.6143C37.7801 20.8607 37.7297 21.107 37.6788 21.3533C37.6029 21.7205 37.5288 22.0881 37.455 22.4557C37.188 23.7738 36.9023 25.0846 36.5668 26.3871C36.4177 26.9848 36.346 27.5088 36.3751 28.1249C36.8466 28.4392 37.3299 28.4356 37.8751 28.3749C39.0217 28.1405 39.6876 27.5675 40.3283 26.6093C41.5908 24.5211 41.9743 22.3248 41.3961 19.9472C40.6905 17.7855 39.3919 15.9447 37.3392 14.8882C34.7828 13.6516 31.8918 13.7185 29.2406 14.6186C26.1306 15.7389 23.6613 18.1508 22.1515 21.0551C21.1491 23.2254 20.9967 25.4267 21.7228 27.7113C22.5932 30.0743 24.1702 31.719 26.4391 32.7719C27.4185 33.1924 28.459 33.4145 29.5001 33.6249C29.6442 33.6542 29.7882 33.6836 29.9367 33.7138C33.583 34.354 37.573 34.0351 40.7501 31.9999C41.5321 31.4299 42.2225 30.8182 42.8327 30.0663C43.1003 29.7604 43.2523 29.7497 43.6642 29.7108C44.1971 29.756 44.3776 29.8774 44.7501 30.2499C44.9399 30.6294 44.9372 30.8236 44.8751 31.2499C43.4957 33.6468 40.6092 35.0747 38.0314 35.789C34.5553 36.6363 30.9639 36.4956 27.5001 35.6249C27.3664 35.5913 27.3664 35.5913 27.2299 35.5571C25.3234 35.0602 23.7138 34.2022 22.2501 32.8749C22.1726 32.809 22.0951 32.7431 22.0153 32.6752C20.1083 30.9452 19.0241 28.1485 18.8751 25.6249C18.87 25.5427 18.8648 25.4605 18.8595 25.3759C18.753 21.8487 20.3481 18.7215 22.697 16.1878C26.9008 11.788 34.4797 9.58457 39.7501 13.5624ZM28.402 21.2787C28.2113 21.5543 28.0403 21.8332 27.8751 22.1249C27.8187 22.2225 27.7624 22.3202 27.7042 22.4208C27.01 23.7067 26.6434 25.083 27.0314 26.5155C27.2679 27.2294 27.533 27.7721 28.1955 28.164C29.0751 28.5958 29.9366 28.6452 30.8883 28.3998C31.8554 28.0357 32.547 27.4979 33.2501 26.7499C33.3602 26.6386 33.4703 26.5272 33.5836 26.4125C34.3143 25.5869 34.6607 24.7983 34.922 23.7265C34.9512 23.6122 34.9805 23.4979 35.0106 23.3802C35.2251 22.3512 34.9516 21.6492 34.4069 20.7743C33.7807 20.0078 33.2091 19.3534 32.1823 19.2035C30.572 19.1631 29.3862 20.049 28.402 21.2787Z" fill="white"/>
</g>
<defs>
<clipPath id="clip0_2154_27464">
<rect width="64" height="64" fill="white"/>
</clipPath>
</defs>
</svg>
