<svg width="52" height="52" viewBox="0 0 52 52" fill="none" xmlns="http://www.w3.org/2000/svg">
<g clip-path="url(#clip0_23_66)">
<path fill-rule="evenodd" clip-rule="evenodd" d="M24.0703 0.96467C22.4966 1.28195 20.9646 2.02437 19.6734 3.09555C17.6709 4.75691 16.259 7.6424 16.247 10.0988L16.244 10.7149L15.6209 11.0703C14.4839 11.7191 13.8125 12.8847 13.8125 14.2095C13.8125 15.0648 14.2175 16.717 14.5781 17.3322C14.837 17.774 15.4443 18.2977 15.9453 18.5112C16.085 18.5707 16.6101 18.6462 17.1124 18.6789L18.0255 18.7383L18.5962 22.293C18.9101 24.2481 19.1384 25.8705 19.1037 25.8985C18.3449 26.5083 17.3075 26.9911 12.5937 28.9277C7.25958 31.1192 7.31676 31.0935 6.34766 31.7368C4.23353 33.1404 2.65596 35.4352 2.13454 37.8654C1.95162 38.7175 0.729523 51.037 0.818999 51.1262C0.843374 51.1505 1.22708 51.1856 1.67162 51.2043L2.47995 51.2383L3.06495 45.043C3.3867 41.6356 3.7245 38.5278 3.8156 38.1367C4.19392 36.513 5.32969 34.6871 6.59557 33.6674C7.60053 32.8579 8.19233 32.5758 13.2031 30.5165C15.7447 29.4719 18.0527 28.5024 18.332 28.362C19.6678 27.6901 21.1817 26.5127 22.0476 25.4722L22.5532 24.8647L21.8808 24.3556L21.2084 23.8466L20.9328 24.1106L20.6573 24.3745L20.4906 23.3366C20.3989 22.7656 20.3405 22.2819 20.3608 22.2616C20.3812 22.2413 20.6414 22.4186 20.9391 22.6558C22.411 23.8279 25.0407 24.5541 26.8379 24.2845C28.6248 24.0165 30.0353 23.4725 31.0609 22.6558C31.3586 22.4186 31.6188 22.2413 31.6392 22.2616C31.6595 22.2819 31.601 22.7659 31.5093 23.3372L31.3425 24.3757L31.0141 24.0575L30.6858 23.7392L30.0233 24.2257L29.3608 24.7121L29.5794 25.019C29.9683 25.5653 31.3145 26.86 31.9922 27.3395C33.1218 28.1389 33.8334 28.4715 38.6953 30.472C41.2928 31.5408 43.7218 32.5747 44.0932 32.7695C44.9754 33.2324 46.0626 34.1551 46.67 34.9566C47.2805 35.7621 47.9698 37.209 48.1851 38.1367C48.2758 38.5278 48.6133 41.6356 48.935 45.043L49.52 51.2383L50.3284 51.2043C50.7729 51.1856 51.1563 51.1509 51.1802 51.127C51.2245 51.0828 50.2455 40.4353 50.0606 38.9492C49.6914 35.9829 48.1299 33.3924 45.738 31.7783C44.7794 31.1315 44.6896 31.0911 39.457 28.9456C34.5943 26.9519 33.9085 26.6315 32.8432 25.8566C32.8365 25.8517 33.0882 24.2481 33.4027 22.293L33.9745 18.7383L34.8876 18.6849C36.7315 18.5771 37.4757 17.8571 37.9926 15.6808C38.4109 13.9195 38.1199 12.6005 37.0918 11.5992C36.8192 11.3337 36.4059 11.0305 36.1731 10.9256L35.75 10.7348V10.1087C35.75 7.66099 34.3344 4.76108 32.3266 3.09565C31.0184 2.01056 29.4599 1.26651 27.8446 0.955835C26.9314 0.780233 24.9624 0.784803 24.0703 0.96467ZM24.9906 2.54376C21.8141 2.9749 19.2225 5.146 18.2954 8.15286C17.9494 9.27472 17.8533 10.3981 17.9778 11.8623C18.1914 14.3742 18.7425 16.3777 19.8272 18.586C20.3785 19.7082 20.546 19.9502 21.2703 20.6712C22.2687 21.665 23.1984 22.162 24.6005 22.4513C25.7807 22.6949 26.2193 22.6949 27.3995 22.4513C29.7144 21.9736 31.2 20.7029 32.3695 18.2002C33.9444 14.83 34.4925 10.7216 33.7089 8.1618C33.0796 6.10617 31.5708 4.33604 29.6091 3.352C28.2252 2.65772 26.4457 2.34633 24.9906 2.54376ZM35.5162 13.6981C35.4208 14.3023 35.2043 15.2896 35.0351 15.8922C34.8659 16.4948 34.7493 17.0098 34.7761 17.0365C34.8896 17.15 35.6972 16.7869 35.8793 16.5407C36.143 16.184 36.5716 14.3958 36.4927 13.9812C36.4129 13.562 36.1261 12.9943 35.883 12.7745C35.6948 12.6043 35.6851 12.629 35.5162 13.6981ZM16.0241 12.8731C15.8026 13.1257 15.5783 13.6067 15.5072 13.9812C15.4285 14.3959 15.8572 16.1842 16.1207 16.5407C16.3028 16.7869 17.1104 17.15 17.2239 17.0365C17.2507 17.0098 17.1359 16.5014 16.9691 15.9067C16.8021 15.3122 16.5874 14.3463 16.4919 13.7605C16.3965 13.1747 16.2872 12.6953 16.2491 12.6953C16.2111 12.6953 16.1097 12.7753 16.0241 12.8731ZM24.1719 26.2378C21.9193 26.9085 20.2154 28.6885 19.643 30.9689C19.4185 31.863 19.489 33.6204 19.7859 34.5328C20.4068 36.4412 22.0979 38.1151 24.0195 38.724C24.5962 38.9067 24.9703 38.9492 26 38.9492C27.0297 38.9492 27.4038 38.9067 27.9805 38.724C29.9103 38.1126 31.5905 36.4492 32.2141 34.5328C32.5431 33.5219 32.5846 31.8495 32.306 30.8339C32.0361 29.8499 31.7151 29.2134 31.1211 28.4841C30.4789 27.6957 30.1252 27.3841 29.3141 26.893C27.8427 26.0018 25.8269 25.7449 24.1719 26.2378ZM25.1875 27.7404C22.6765 28.152 20.837 30.682 21.2283 33.1856C21.6389 35.8133 24.0559 37.6327 26.6522 37.2685C28.2505 37.0443 29.6487 36.025 30.3283 34.5887C31.7199 31.6469 29.9227 28.24 26.7109 27.7312C25.9695 27.6137 25.9597 27.6138 25.1875 27.7404ZM24.6289 29.5365C23.8707 29.9083 23.3487 30.4452 22.997 31.2155C22.7554 31.7445 22.7306 31.9007 22.7712 32.6373C22.8425 33.93 23.4412 34.8651 24.5781 35.4597C24.9647 35.6618 25.184 35.6986 26 35.6986C26.816 35.6986 27.0353 35.6618 27.4219 35.4597C28.0447 35.1339 28.6046 34.5812 28.9282 33.9727C29.1659 33.5257 29.1983 33.3493 29.1984 32.5C29.1987 31.4068 29.0246 30.9411 28.3506 30.2315C27.7439 29.5928 27.1059 29.3219 26.1016 29.2767C25.3102 29.2411 25.1875 29.2627 24.6289 29.5365ZM25.6054 30.976C25.1381 31.0876 24.5855 31.6623 24.4736 32.1532C24.2119 33.3006 25.2728 34.3244 26.4098 34.0214C26.8495 33.9043 27.3921 33.3642 27.5207 32.9157C27.846 31.7816 26.7747 30.6966 25.6054 30.976ZM14.625 33.2964C14.625 34.1135 14.6276 34.1218 14.9043 34.183C15.5564 34.3273 15.8392 34.4555 16.1851 34.7635C16.6827 35.2065 17.2186 36.1416 17.5364 37.1211C17.7841 37.8846 17.803 38.0884 17.8505 40.4981L17.9011 43.0625H18.7006H19.5V40.5181C19.5 37.7384 19.4218 37.1396 18.8901 35.8504C18.0903 33.9107 16.7324 32.6891 15.2006 32.531L14.625 32.4716V33.2964ZM36.207 32.6424C34.8329 33.0781 33.8207 34.1265 33.1099 35.8504C32.5782 37.1396 32.5 37.7384 32.5 40.5181V43.0625H33.2994H34.0989L34.1538 40.4981C34.2146 37.6627 34.2694 37.3356 34.8976 36.0639C35.4764 34.8921 36.0292 34.4192 37.0957 34.183C37.3718 34.1219 37.375 34.1121 37.375 33.3106V32.5L36.9941 32.5068C36.7847 32.5106 36.4305 32.5716 36.207 32.6424ZM8.78516 41.4092C8.45 41.4961 8.16268 41.5779 8.14663 41.5908C8.10763 41.6222 10.5275 51.288 10.59 51.3505C10.6941 51.4545 12.1369 51.0196 12.1622 50.8765C12.1765 50.7962 11.648 48.6053 10.9878 46.0078C9.63818 40.6976 9.84689 41.1335 8.78516 41.4092ZM42.1572 41.6153C41.7401 43.1943 39.8111 51.0156 39.8341 51.0343C39.9649 51.1395 41.3682 51.3971 41.4308 51.3273C41.571 51.1711 43.8868 41.713 43.8031 41.6385C43.7351 41.5782 42.4645 41.2344 42.3092 41.2344C42.281 41.2344 42.2125 41.4058 42.1572 41.6153Z" fill="white"/>
</g>
<defs>
<clipPath id="clip0_23_66">
<rect width="52" height="52" fill="white"/>
</clipPath>
</defs>
</svg>
