<svg width="53" height="52" viewBox="0 0 53 52" fill="none" xmlns="http://www.w3.org/2000/svg">
<g clip-path="url(#clip0_23_79)">
<path fill-rule="evenodd" clip-rule="evenodd" d="M18.3562 0.249336C18.1095 0.49593 18.1069 0.518375 18.1069 2.37169V4.2447L16.8627 4.28147C15.7954 4.31306 15.5464 4.35358 15.1108 4.56645C13.0504 5.57334 12.5806 8.29949 14.1901 9.90895C14.9356 10.6545 15.5579 10.8672 16.9936 10.8672H18.1069V14.3604V17.8536L16.9135 17.8921C15.5155 17.9372 14.8915 18.1626 14.1777 18.8804C13.4772 19.5849 13.2824 20.0962 13.2842 21.2266C13.2855 22.0746 13.3186 22.2543 13.5578 22.7102C13.9011 23.3644 14.7135 24.1012 15.3399 24.3265C15.6335 24.4321 16.268 24.5201 16.9643 24.5517L18.1069 24.6037V25.8975C18.1069 27.0527 18.1294 27.2201 18.3174 27.4589C18.6085 27.829 19.1287 27.829 19.4198 27.4589C19.615 27.2108 19.6303 27.0588 19.6303 25.3723C19.6303 23.5764 19.6272 23.5501 19.381 23.304C19.1405 23.0634 19.0825 23.0547 17.7306 23.0541C16.04 23.0535 15.6994 22.9711 15.2278 22.4491C14.3723 21.5021 14.5992 20.1442 15.7022 19.6103C16.0851 19.4249 16.3268 19.3984 17.6357 19.3984C19.0887 19.3984 19.139 19.3912 19.381 19.1491C19.6278 18.9024 19.6303 18.8807 19.6303 17.0163V15.1328H24.7638H29.8974L30.1466 14.8835C30.5377 14.4924 30.4671 14.0086 29.9824 13.758C29.7416 13.6334 28.8807 13.6094 24.6627 13.6094H19.6303V11.795C19.6303 9.34599 19.707 9.44552 17.8202 9.4447C16.1743 9.44409 15.7482 9.34497 15.2498 8.8465C14.4461 8.04284 14.5285 6.81454 15.4324 6.12442C15.7968 5.84614 15.8415 5.83873 17.4384 5.78906C19.0825 5.73798 19.4395 5.66038 19.5676 5.32655C19.6021 5.23666 19.6303 4.34413 19.6303 3.34323V1.52344H26.3335H33.0366V3.29601C33.0366 5.09509 33.1038 5.49687 33.4311 5.65297C33.5213 5.69593 34.3302 5.75555 35.2285 5.78551C36.8227 5.83852 36.8707 5.84665 37.2345 6.12442C38.1384 6.81454 38.2208 8.04284 37.4171 8.8465C36.9187 9.34497 36.4926 9.44409 34.8467 9.4447C33.4673 9.44531 33.4561 9.44714 33.2471 9.71293C33.0745 9.93241 33.0366 10.125 33.0366 10.7839C33.0366 11.5015 33.0632 11.614 33.2859 11.8366C33.423 11.9737 33.6536 12.0859 33.7983 12.0859C34.1813 12.0859 34.56 11.664 34.56 11.2375V10.8876L35.8549 10.851C37.0614 10.8169 37.1866 10.7941 37.6885 10.517C38.7826 9.91291 39.3455 9.0153 39.4117 7.76953C39.4677 6.71105 39.2133 5.99158 38.5386 5.30065C37.7649 4.50846 37.2724 4.32494 35.8042 4.28147L34.56 4.2447V2.37169C34.56 0.518375 34.5574 0.49593 34.3107 0.249336L34.0614 0H26.3335H18.6055L18.3562 0.249336ZM22.8125 4.45362C20.5998 5.21828 19.8792 8.02628 21.4475 9.77234C21.6929 10.0455 22.127 10.3917 22.4123 10.5416C22.905 10.8005 23.017 10.8159 24.6401 10.8493C26.6014 10.8897 26.7397 10.8434 26.7397 10.1463C26.7397 9.53784 26.5192 9.44542 25.0667 9.4447C23.5957 9.44409 23.1794 9.34141 22.6666 8.853C21.9511 8.17141 21.8983 7.16158 22.5386 6.40077C22.9669 5.89164 23.1338 5.84604 24.7742 5.79048C26.0991 5.74549 26.3422 5.71147 26.5261 5.54481C26.8049 5.29232 26.8102 4.74236 26.5366 4.46875C26.3514 4.2836 26.2005 4.26593 24.8354 4.26898C23.6674 4.27152 23.2217 4.31224 22.8125 4.45362ZM35.9311 11.9471C31.4719 12.6348 29.1376 17.4193 30.9022 22.2546C31.229 23.1498 31.594 23.7284 32.4429 24.6964L33.0366 25.3734V26.3468V27.3203H27.1967C21.4923 27.3203 21.3522 27.325 21.1538 27.5234C20.8926 27.7846 20.8926 28.2779 21.1538 28.5391C21.3522 28.7375 21.4923 28.7422 27.1967 28.7422H33.0366V30.6257C33.0366 32.4901 33.0391 32.5118 33.2859 32.7585C33.5262 32.9989 33.5848 33.0078 34.9245 33.0078C36.5659 33.0078 36.9849 33.1107 37.4528 33.6287C38.2947 34.5605 38.0593 35.9224 36.9647 36.4522C36.5818 36.6376 36.3401 36.6641 35.0312 36.6641C33.5782 36.6641 33.5279 36.6713 33.2859 36.9134C33.042 37.1573 33.0366 37.1976 33.0366 38.7911V40.4196L32.2263 40.827C31.7807 41.0511 31.3693 41.2344 31.3122 41.2344C31.2552 41.2344 31.2079 41.0401 31.2072 40.8027C31.2046 39.8695 30.7592 38.7716 30.0875 38.0429C29.87 37.8068 28.3628 36.5888 26.7382 35.3361L23.7844 33.0586L25.1183 33.0078C26.287 32.9633 26.4699 32.9327 26.5959 32.7599C26.8105 32.4658 26.7757 31.9545 26.5255 31.7286C26.3354 31.5569 26.1445 31.5353 24.8243 31.5358C23.6567 31.5362 23.2246 31.5756 22.8124 31.7189L22.2874 31.9015L20.9843 30.8996C19.1879 29.5184 19.083 29.4512 18.3932 29.2365C17.82 29.0581 17.3048 29.0469 9.63993 29.0469C0.783982 29.0469 1.14879 29.0233 1.00305 29.6039C0.951661 29.8089 1.11142 30.3292 1.27554 30.4913C1.28804 30.5036 5.07215 30.5379 9.68472 30.5675L18.0711 30.6211L18.4699 30.8867C19.1272 31.3244 28.3838 38.4852 28.8085 38.8844C29.3988 39.4394 29.683 40.1206 29.683 40.9805C29.683 42.183 29.0292 43.1878 27.9318 43.6722C27.0959 44.0411 25.8964 43.9376 25.1655 43.4336C24.9979 43.318 23.3526 42.0595 21.5092 40.6368C19.6659 39.2142 18.0357 37.9795 17.8866 37.8932C17.3596 37.588 16.6706 38.1177 16.82 38.7132C16.8671 38.9009 17.8953 39.7505 20.6012 41.8373C22.6451 43.4137 24.5311 44.8108 24.7922 44.9418C25.5418 45.3179 26.1559 45.4319 27.1121 45.3721C28.3236 45.2966 29.2221 44.8506 30.1109 43.8838L30.7514 43.187L36.0327 40.624C41.2738 38.0804 41.3198 38.0604 42.0902 38.0102C42.766 37.9661 42.9377 37.9922 43.4173 38.2117C44.9605 38.9182 45.6144 40.6839 44.885 42.1748C44.7296 42.4926 44.4259 42.9023 44.2103 43.0853C43.7191 43.5022 33.4848 48.5402 31.5639 49.3107C29.3042 50.2171 28.4779 50.4086 26.7905 50.4175C24.0253 50.4318 22.6039 49.8638 13.8597 45.251L9.71143 43.0625H5.59236C1.81697 43.0625 1.45561 43.0773 1.26305 43.2402C0.919872 43.5306 0.8892 43.9028 1.18038 44.2415L1.43286 44.5352L5.47881 44.5859L9.52486 44.6367L13.2827 46.6305C17.6844 48.9658 19.4506 49.8569 21.0522 50.5504C25.0973 52.3021 27.5531 52.4134 31.31 51.0158C32.8158 50.4556 34.9348 49.4668 40.0707 46.9277C44.4062 44.7842 44.8674 44.5319 45.3694 44.03C45.7011 43.6982 46.0512 43.206 46.2521 42.7889C46.5409 42.1892 46.5906 41.9678 46.627 41.1173C46.6904 39.6291 46.3165 38.6738 45.2905 37.7035C44.4098 36.8706 43.4056 36.4645 42.2211 36.4622C41.3055 36.4603 40.8086 36.6464 37.7503 38.1365C36.2154 38.8844 34.8696 39.5248 34.7598 39.5597C34.5742 39.6185 34.56 39.5728 34.56 38.916V38.2089L35.7534 38.1704C36.7794 38.1373 37.0273 38.0945 37.5211 37.865C38.1979 37.5506 38.8222 36.9419 39.1494 36.2774C39.3453 35.8798 39.384 35.6409 39.3827 34.8359C39.3814 33.9879 39.3483 33.8082 39.1091 33.3523C38.7648 32.6962 37.9515 31.9598 37.327 31.7388C37.0444 31.6389 36.3726 31.5451 35.7026 31.5122L34.56 31.456V29.1744V26.8929L35.0424 27.3138C36.0903 28.2281 40.3009 31.7487 40.5458 31.9153C40.689 32.0127 40.9049 32.0927 41.0257 32.093C41.162 32.0934 42.087 31.3934 43.4632 30.2482C49.2496 25.4332 50.6681 23.8578 51.311 21.533C52.1403 18.5338 51.502 15.6267 49.606 13.7676C47.52 11.722 44.9036 11.3641 41.7393 12.6915L40.9458 13.0243L40.2666 12.7131C39.893 12.542 39.2464 12.3083 38.8297 12.1937C38.082 11.9882 36.5239 11.8557 35.9311 11.9471ZM35.5642 13.5468C34.2635 13.9244 33.0233 14.9592 32.4463 16.1484C31.9216 17.2297 31.7854 17.9506 31.8421 19.3477C31.8989 20.7489 32.2001 21.8296 32.7788 22.709C33.6319 24.0052 35.399 25.7079 39.0138 28.7167C40.9718 30.3464 40.9991 30.3647 41.206 30.1803C41.3212 30.0776 42.1239 29.4067 42.9897 28.6894C45.8739 26.2999 47.7632 24.5437 48.6849 23.3951C50.7041 20.879 50.6648 16.9513 48.5995 14.8633C46.9347 13.1802 44.5865 12.9508 42.0211 14.2209C41.5721 14.4431 41.1025 14.625 40.9775 14.625C40.8525 14.625 40.441 14.4693 40.063 14.2789C38.9182 13.7024 38.1679 13.4964 37.0483 13.4515C36.3848 13.4248 35.8703 13.4579 35.5642 13.5468ZM39.2681 15.94C38.8084 16.1349 38.7241 16.4146 38.7241 17.7453V18.9922H37.4214C35.6105 18.9922 35.6772 18.9072 35.6772 21.2123C35.6772 22.9349 35.6811 22.9662 35.9265 23.2116C36.1647 23.4499 36.2325 23.4609 37.45 23.4609H38.7241V24.735C38.7241 25.9525 38.7351 26.0203 38.9734 26.2585C39.2189 26.5041 39.2492 26.5078 40.9869 26.5078C43.2783 26.5078 43.1928 26.576 43.1928 24.7494V23.4609H44.4567C45.6463 23.4609 45.7373 23.4465 46.0055 23.2159L46.2905 22.9707V21.1756C46.2905 18.8871 46.3766 18.9922 44.5019 18.9922H43.1928V17.6831C43.1928 15.8271 43.2765 15.9011 41.1453 15.8712C40.2326 15.8583 39.3879 15.8894 39.2681 15.94ZM40.2475 18.6434C40.2475 19.3453 40.2027 20.0032 40.1481 20.1054C39.9889 20.4029 39.4816 20.5156 38.3027 20.5156H37.2006V21.2266V21.9375H38.4747C39.6922 21.9375 39.76 21.9486 39.9982 22.1868C40.2364 22.425 40.2475 22.4928 40.2475 23.7103V24.9844H40.9585H41.6694V23.8823C41.6694 22.7034 41.7821 22.1961 42.0796 22.0369C42.1818 21.9823 42.8397 21.9375 43.5416 21.9375H44.8178V21.2346V20.5318L43.5 20.4983C41.7131 20.453 41.7329 20.4728 41.6846 18.6848L41.649 17.3672H40.9483H40.2475V18.6434ZM23.0109 18.0224C21.7112 18.4285 20.9117 19.3263 20.6457 20.6784C20.3259 22.3044 21.4426 23.9871 23.1302 24.4221C23.5126 24.5206 24.1901 24.5781 24.97 24.5781C26.0651 24.5781 26.2347 24.5544 26.4721 24.3676C26.8074 24.1038 26.839 23.5603 26.5366 23.2578C26.3533 23.0745 26.1981 23.0547 24.9437 23.0547C23.735 23.0547 23.4958 23.0267 23.1088 22.8393C21.7676 22.19 21.7559 20.2788 23.089 19.5987C23.422 19.4289 23.6885 19.3984 24.843 19.3984C26.0666 19.3984 26.2316 19.3771 26.4721 19.1879C26.6618 19.0387 26.7393 18.8835 26.7382 18.6547C26.7349 17.9781 26.4712 17.8734 24.7913 17.8818C23.9764 17.8859 23.2688 17.9417 23.0109 18.0224Z" fill="white"/>
</g>
<defs>
<clipPath id="clip0_23_79">
<rect width="52" height="52" fill="white" transform="translate(0.333435)"/>
</clipPath>
</defs>
</svg>
