<svg width="52" height="52" viewBox="0 0 52 52" fill="none" xmlns="http://www.w3.org/2000/svg">
<g clip-path="url(#clip0_112_846)">
<path d="M25.9356 -0.0380874C26.0201 -0.0380322 26.1046 -0.037977 26.1917 -0.0379201C31.1919 -0.0229551 35.6719 1.99032 39.2212 5.47168C42.503 8.78478 44.0024 13.2046 44.0009 17.807C43.9534 22.8833 41.843 27.666 38.7377 31.605C38.4572 31.9614 38.1793 32.3198 37.9009 32.6777C37.8407 32.755 37.7806 32.8322 37.7186 32.9118C37.1409 33.6541 36.5698 34.4015 35.9991 35.1493C35.3848 35.9538 34.7652 36.7542 34.1431 37.5527C33.5048 38.3721 32.8732 39.1963 32.2431 40.022C31.936 40.4239 31.6274 40.8245 31.3188 41.2252C31.1586 41.4333 30.9986 41.6414 30.8387 41.8497C30.6291 42.1227 30.4193 42.3955 30.2091 42.6681C30.1026 42.8061 29.9962 42.9443 29.8898 43.0824C29.704 43.3236 29.5178 43.5644 29.3316 43.8052C29.2737 43.8804 29.2158 43.9557 29.1561 44.0332C27.5796 46.0671 27.5796 46.0671 26.2613 46.2439C25.4827 46.2798 24.7535 46.0994 24.1324 45.617C23.5239 45.0339 23.041 44.3506 22.5459 43.6719C22.388 43.464 22.2293 43.2566 22.0698 43.0498C22.0284 42.996 21.9869 42.9422 21.9442 42.8867C21.5772 42.4109 21.2077 41.937 20.8384 41.4629C20.1996 40.6428 19.5673 39.8178 18.9366 38.9914C18.3223 38.1868 17.7027 37.3864 17.0806 36.5879C16.4417 35.7678 15.8095 34.9428 15.1788 34.1164C14.9626 33.8332 14.7458 33.5506 14.5288 33.2681C14.4081 33.1108 14.4081 33.1108 14.2848 32.9503C14.0823 32.6877 13.8773 32.4272 13.6715 32.1671C12.9261 31.2227 12.2151 30.2706 11.5772 29.25C11.5144 29.1498 11.5144 29.1498 11.4504 29.0475C8.57705 24.4147 7.21766 18.7894 8.43905 13.4039C9.52291 8.92178 12.355 5.07501 16.2824 2.65927C19.2613 0.871771 22.4581 -0.0466662 25.9356 -0.0380874ZM14.4709 7.428C13.8669 8.05051 13.3608 8.71327 12.8975 9.44531C12.8269 9.55659 12.7564 9.66788 12.6837 9.78253C10.7695 12.974 10.167 16.6554 10.7647 20.3125C10.7827 20.4237 10.7827 20.4237 10.8011 20.5371C11.4225 24.1986 13.1849 27.351 15.4562 30.2354C15.7021 30.5481 15.9438 30.8638 16.1856 31.1797C16.3421 31.3828 16.4987 31.586 16.6553 31.7891C16.7818 31.9534 16.9083 32.1178 17.0347 32.2823C17.1627 32.4486 17.2906 32.615 17.4186 32.7813C17.5827 32.9946 17.7467 33.2081 17.9105 33.4216C18.3975 34.0557 18.887 34.6877 19.3784 35.3184C20.0173 36.1385 20.6496 36.9635 21.2802 37.7899C21.8946 38.5944 22.5142 39.3948 23.1363 40.1934C23.6209 40.8158 24.1037 41.4397 24.5835 42.0659C24.6633 42.1699 24.6633 42.1699 24.7447 42.2759C24.7953 42.3421 24.846 42.4083 24.8981 42.4765C24.9467 42.5399 24.9953 42.6034 25.0454 42.6687C25.141 42.7978 25.2334 42.9295 25.3226 43.0631C25.5498 43.4257 25.5498 43.4257 25.8975 43.653C26.1263 43.6983 26.1263 43.6983 26.3422 43.4731C26.654 43.1276 26.9326 42.7554 27.2115 42.3833C27.3287 42.2284 27.446 42.0735 27.5633 41.9187C27.6537 41.7995 27.6537 41.7995 27.7458 41.6778C28.0406 41.2905 28.3402 40.907 28.6397 40.5234C29.2718 39.7127 29.897 38.8968 30.5206 38.0795C30.8277 37.6777 31.1364 37.277 31.4449 36.8763C31.6051 36.6683 31.7651 36.4601 31.925 36.2519C32.4123 35.6172 32.9023 34.9847 33.3941 34.3535C33.98 33.6014 34.5606 32.8454 35.1389 32.0874C35.3249 31.8435 35.5115 31.6001 35.6991 31.3574C35.9055 31.0904 36.1107 30.8226 36.3157 30.5544C36.4194 30.4198 36.5239 30.2858 36.6289 30.1522C39.0694 27.0448 40.8256 23.5501 41.335 19.6016C41.3482 19.5135 41.3614 19.4253 41.3751 19.3346C41.8645 15.5825 40.797 11.5416 38.4912 8.54394C37.417 7.19741 36.1762 6.01944 34.7334 5.07812C34.6668 5.03445 34.6003 4.99077 34.5317 4.94577C28.0683 0.7732 19.7872 2.10037 14.4709 7.428Z" fill="white"/>
<path d="M14.118 36.9688C14.4347 37.1408 14.6655 37.3526 14.829 37.6797C14.8413 37.8444 14.8468 38.0097 14.848 38.1748C14.8495 38.2625 14.8509 38.3503 14.8524 38.4406C14.8268 38.7188 14.7824 38.8709 14.6259 39.1016C14.4338 39.2424 14.4338 39.2424 14.1942 39.3745C11.9506 40.6292 11.9506 40.6292 10.605 42.7483C10.4652 43.4621 10.6515 44.0722 11.0271 44.6788C12.8595 47.3449 16.8177 48.3351 19.8207 48.9192C25.9133 50.0271 33.8968 49.9243 39.2401 46.3268C40.0272 45.7807 40.6813 45.2384 41.1337 44.3828C41.1692 44.3161 41.2046 44.2493 41.2412 44.1805C41.4876 43.6351 41.4833 43.1309 41.3368 42.5547C40.7056 41.0472 39.3711 40.2327 37.9884 39.49C37.6338 39.2766 37.3597 39.0692 37.1727 38.6953C37.1204 38.2798 37.0769 37.8589 37.2791 37.4809C37.5179 37.1922 37.7162 36.9893 38.0938 36.943C38.7829 36.9192 39.2219 37.0658 39.807 37.4194C39.9257 37.4886 39.9257 37.4886 40.0468 37.5591C40.6986 37.9474 41.2876 38.3823 41.8446 38.8985C41.9331 38.9788 42.0216 39.0592 42.1128 39.142C43.3042 40.2728 44.0477 41.6206 44.1044 43.2783C44.0821 44.9243 43.2923 46.2833 42.1493 47.4297C41.2427 48.2732 40.2038 48.9059 39.1024 49.461C38.9997 49.5129 38.9997 49.5129 38.8948 49.566C35.4546 51.2722 31.3464 52.0043 27.5243 52.0206C27.4119 52.0214 27.2996 52.0221 27.1838 52.0228C26.8233 52.0246 26.4629 52.0252 26.1024 52.0254C25.9793 52.0255 25.8562 52.0255 25.7294 52.0256C23.9374 52.024 22.186 51.9904 20.4149 51.6953C20.2513 51.6692 20.2513 51.6692 20.0844 51.6425C16.664 51.0829 13.0848 50.0678 10.3602 47.836C10.2867 47.779 10.2131 47.7221 10.1373 47.6634C8.99302 46.7368 8.10363 45.3523 7.92274 43.875C7.79996 42.4456 8.18216 41.1181 9.09269 40.0085C9.36862 39.6946 9.65866 39.3973 9.95399 39.1016C10.026 39.0284 10.098 38.9552 10.1722 38.8798C11.1285 37.9693 12.7401 36.7231 14.118 36.9688Z" fill="white"/>
<path d="M31.3897 12.3652C32.7473 13.5037 33.7572 14.7619 34.3286 16.4531C34.3883 16.6253 34.3883 16.6253 34.4493 16.8011C35.1089 19.0066 34.8464 21.4126 33.8208 23.4609C33.3779 24.2657 32.8291 24.9321 32.1958 25.5937C32.1083 25.691 32.1083 25.691 32.0189 25.7901C30.6561 27.254 28.4767 28.0786 26.5024 28.1534C23.9718 28.1993 21.7697 27.4862 19.8996 25.7404C18.2305 24.1185 17.2877 22.0245 17.2253 19.6944C17.1982 17.161 17.9844 14.9176 19.7735 13.0762C22.8672 10.0213 27.952 9.70398 31.3897 12.3652ZM21.2878 15.2058C20.0316 16.7943 19.6262 18.4294 19.8052 20.4141C20.0539 21.9267 20.9073 23.3181 22.0967 24.2798C23.5172 25.2834 25.1694 25.8322 26.9145 25.5624C28.6132 25.2464 30.0465 24.4103 31.0973 23.0241C32.1495 21.4606 32.4569 19.7385 32.1256 17.8893C31.643 16.201 30.6278 14.8189 29.1224 13.9192C26.5006 12.5188 23.3003 12.9282 21.2878 15.2058Z" fill="white"/>
</g>
<defs>
<clipPath id="clip0_112_846">
<rect width="52" height="52" fill="white"/>
</clipPath>
</defs>
</svg>
