<svg width="52" height="52" viewBox="0 0 52 52" fill="none" xmlns="http://www.w3.org/2000/svg">
<g clip-path="url(#clip0_112_858)">
<path d="M32.0946 2.23437C32.1566 2.2671 32.2187 2.29983 32.2827 2.33355C34.4561 3.48863 36.3587 5.19128 37.8836 7.10937C37.9644 7.20756 38.0452 7.30575 38.1284 7.40691C40.3224 10.1398 41.6946 13.5947 42.1108 17.0633C42.2485 18.1743 42.4797 18.8931 43.1649 19.8047C43.2635 19.9416 43.2635 19.9416 43.364 20.0812C43.6558 20.4785 43.9579 20.8675 44.2602 21.2569C47.9433 26.0082 47.9433 26.0082 47.878 28.3173C47.7894 29.0115 47.5013 29.553 46.9608 29.999C46.1539 30.5395 45.213 30.7904 44.2503 30.7798C44.1418 30.7789 44.0333 30.7779 43.9214 30.777C43.7983 30.7752 43.7983 30.7752 43.6727 30.7734C43.6736 30.9007 43.6745 31.028 43.6754 31.1592C43.6837 32.362 43.6898 33.5648 43.6937 34.7676C43.6959 35.3859 43.6987 36.0042 43.7033 36.6225C43.7078 37.2198 43.7102 37.8171 43.7112 38.4144C43.712 38.6416 43.7134 38.8689 43.7156 39.0962C43.7299 40.6279 43.6993 41.9415 42.6571 43.1641C41.7994 43.9677 40.9391 44.3961 39.7671 44.4004C39.6914 44.4011 39.6157 44.4018 39.5377 44.4025C39.3735 44.4039 39.2094 44.4051 39.0453 44.4061C38.7847 44.4078 38.5241 44.4102 38.2636 44.4127C37.5228 44.4199 36.7821 44.426 36.0413 44.4312C35.5877 44.4345 35.1342 44.4387 34.6807 44.4434C34.5086 44.4451 34.3365 44.4463 34.1644 44.4472C32.2434 44.4235 32.2434 44.4235 30.6219 45.3425C29.9076 46.1525 29.847 46.9281 29.8459 47.9534C29.8441 48.1577 29.8421 48.362 29.84 48.5663C29.837 48.8873 29.8348 49.2081 29.8348 49.5291C29.8344 49.8397 29.8309 50.1501 29.8269 50.4607C29.8276 50.5564 29.8283 50.6522 29.829 50.7509C29.8274 50.8407 29.8257 50.9305 29.824 51.023C29.8236 51.1016 29.8233 51.1801 29.8229 51.261C29.7237 51.6179 29.5348 51.7676 29.2508 52C28.975 52.0502 28.7627 52.0689 28.4876 52.0645C28.4116 52.0653 28.3356 52.0661 28.2574 52.0669C28.0032 52.0689 27.7492 52.0673 27.4951 52.0657C27.3127 52.0664 27.1304 52.0673 26.948 52.0684C26.453 52.0707 25.958 52.0698 25.463 52.0682C24.9451 52.0669 24.4271 52.0681 23.9091 52.0689C23.0393 52.0698 22.1695 52.0686 21.2996 52.0662C20.2939 52.0634 19.2882 52.0643 18.2824 52.0671C17.419 52.0694 16.5556 52.0698 15.6922 52.0684C15.1765 52.0676 14.6608 52.0675 14.1451 52.0692C13.6602 52.0707 13.1755 52.0697 12.6906 52.0667C12.5126 52.066 12.3346 52.0662 12.1567 52.0674C11.9138 52.0688 11.671 52.067 11.4281 52.0645C11.3224 52.0662 11.3224 52.0662 11.2145 52.0679C10.8296 52.0601 10.6728 52.0064 10.3696 51.7611C10.0356 51.3385 10.0414 51.0148 10.0341 50.49C10.0315 50.3439 10.0288 50.1978 10.026 50.0517C10.0247 49.9742 10.0233 49.8967 10.0219 49.8169C9.88822 42.6698 8.3372 36.1054 6.09457 29.3516C5.48246 27.5074 4.8731 25.6691 4.46957 23.7656C4.45165 23.683 4.43373 23.6004 4.41527 23.5152C3.37268 18.4738 4.57438 12.9355 7.33752 8.64044C10.1354 4.43701 14.3774 1.38016 19.3403 0.331608C19.5628 0.287121 19.7856 0.244645 20.0086 0.203117C20.1292 0.180075 20.2498 0.157033 20.374 0.133293C24.4222 -0.501032 28.509 0.32155 32.0946 2.23437ZM11.2743 6.90624C11.2184 6.95969 11.1625 7.01314 11.1049 7.06821C10.664 7.49712 10.28 7.95184 9.90951 8.44237C9.85221 8.51804 9.79491 8.5937 9.73587 8.67166C6.78727 12.612 5.61508 17.4496 6.1668 22.3191C6.4835 24.2266 7.08168 26.0899 7.69108 27.92C7.79896 28.244 7.90587 28.5684 8.01256 28.8929C8.24658 29.6042 8.48171 30.3151 8.71732 31.0259C10.8067 37.3296 11.7396 43.4384 11.9852 50.0703C17.2136 50.0703 22.4421 50.0703 27.8289 50.0703C27.8625 48.9643 27.896 47.8583 27.9305 46.7187C28.3187 45.166 28.759 44.0375 30.1395 43.1767C31.2169 42.5395 32.3883 42.5114 33.6018 42.5161C33.8666 42.517 34.1314 42.5159 34.3962 42.5144C35.1483 42.5103 35.9003 42.5102 36.6523 42.5104C37.1147 42.5104 37.577 42.5085 38.0394 42.5054C38.2991 42.5043 38.5587 42.5055 38.8184 42.5068C39.7244 42.5047 40.4082 42.4794 41.136 41.8767C41.1813 41.8218 41.2266 41.767 41.2733 41.7104C41.3202 41.6564 41.367 41.6023 41.4153 41.5466C41.5872 41.256 41.6542 40.9493 41.743 40.625C41.6287 40.6251 41.6287 40.6251 41.5122 40.6252C40.7891 40.6255 40.0661 40.6227 39.3431 40.6168C38.9715 40.6139 38.6 40.612 38.2284 40.6128C37.8688 40.6135 37.5093 40.6111 37.1497 40.6069C36.9479 40.6052 36.7461 40.6065 36.5443 40.608C35.4352 40.5905 34.5734 40.282 33.7704 39.5015C33.2535 38.8651 33.0594 38.1077 32.9642 37.3052C33.0995 36.2807 33.4658 35.4712 34.2747 34.8063C35.1584 34.2108 36.2385 34.1657 37.2699 34.1647C37.3988 34.163 37.5277 34.1613 37.6604 34.1596C37.9982 34.1555 38.3359 34.1531 38.6737 34.1516C39.0203 34.1496 39.3669 34.1453 39.7135 34.1413C40.39 34.1338 41.0665 34.1285 41.743 34.125C41.745 33.9923 41.747 33.8596 41.7491 33.7228C41.7568 33.2297 41.7659 32.7367 41.7752 32.2436C41.7791 32.0304 41.7827 31.8171 41.7859 31.6038C41.7905 31.297 41.7964 30.9902 41.8025 30.6834C41.8037 30.5882 41.8049 30.4931 41.8061 30.3951C41.8256 29.5303 41.8256 29.5303 42.0477 29.1484C42.4637 28.9354 42.8305 28.9403 43.2903 28.9505C43.6472 28.9439 43.998 28.9068 44.3519 28.8628C44.478 28.8475 44.604 28.8321 44.7339 28.8164C45.211 28.7182 45.5756 28.5778 45.9071 28.2153C46.1021 27.6668 45.8395 27.1631 45.6087 26.6601C44.7631 25.0451 43.5452 23.5907 42.452 22.1394C41.9827 21.5133 41.538 20.8813 41.1336 20.2109C41.0785 20.1197 41.0785 20.1197 41.0222 20.0266C40.4984 19.1363 40.3379 18.371 40.1878 17.3545C39.4215 12.4575 37.0179 8.13615 33.0059 5.15429C30.1059 3.08956 26.7716 1.88164 23.1888 1.89794C22.9889 1.8988 22.9889 1.8988 22.785 1.89968C18.3934 1.95424 14.3942 3.87509 11.2743 6.90624ZM35.1097 36.5942C34.9102 36.912 34.8443 37.101 34.8368 37.4766C34.9914 37.9485 35.1661 38.2737 35.5477 38.5937C35.8178 38.7288 36.0216 38.7075 36.3239 38.7068C36.4439 38.7068 36.5639 38.7068 36.6874 38.7068C36.8825 38.706 36.8825 38.706 37.0815 38.7052C37.2805 38.705 37.2805 38.705 37.4836 38.7048C37.8366 38.7044 38.1896 38.7034 38.5425 38.7023C38.9026 38.7012 39.2628 38.7008 39.6229 38.7003C40.3296 38.6992 41.0363 38.6972 41.743 38.6953C41.743 37.8239 41.743 36.9525 41.743 36.0547C40.9994 36.0483 40.2559 36.0422 39.5122 36.0389C39.1659 36.0373 38.8196 36.0352 38.4733 36.0317C38.0755 36.0277 37.6776 36.0263 37.2798 36.0249C37.1563 36.0234 37.0328 36.0218 36.9056 36.0202C36.1661 36.02 35.6554 36.0485 35.1097 36.5942Z" fill="white"/>
<path d="M10.9681 16.2236C11.0508 16.2229 11.1336 16.2222 11.2188 16.2214C11.3096 16.2217 11.4005 16.2219 11.4941 16.2222C11.6389 16.2214 11.6389 16.2214 11.7866 16.2205C12.1115 16.219 12.4364 16.2189 12.7613 16.2189C12.9937 16.2181 13.226 16.2173 13.4584 16.2163C14.0906 16.2141 14.7229 16.2132 15.3551 16.2127C15.7498 16.2123 16.1445 16.2117 16.5393 16.211C17.632 16.209 18.7247 16.2073 19.8174 16.207C19.8874 16.207 19.9573 16.207 20.0293 16.2069C20.1711 16.2069 20.3129 16.2069 20.4547 16.2068C20.5251 16.2068 20.5954 16.2068 20.6679 16.2068C20.7736 16.2068 20.7736 16.2068 20.8815 16.2067C22.0235 16.2064 23.1656 16.2036 24.3077 16.1998C25.48 16.196 26.6524 16.194 27.8247 16.194C28.4831 16.1939 29.1414 16.193 29.7997 16.1901C30.4187 16.1874 31.0377 16.1872 31.6568 16.1888C31.8842 16.189 32.1117 16.1883 32.3391 16.1867C32.6492 16.1847 32.9591 16.1857 33.2691 16.1876C33.4047 16.1856 33.4047 16.1856 33.543 16.1835C33.9889 16.1896 34.1711 16.2075 34.5356 16.4873C34.7785 16.8178 34.8073 17.0236 34.8232 17.4307C34.8292 17.5451 34.8353 17.6595 34.8415 17.7774C34.8359 18.0781 34.8359 18.0781 34.7343 18.3828C34.8148 18.3807 34.8952 18.3786 34.978 18.3764C35.3432 18.3679 35.7084 18.3626 36.0737 18.3574C36.2002 18.354 36.3268 18.3506 36.4571 18.3471C36.6403 18.3451 36.6403 18.3451 36.8271 18.3431C36.9954 18.3399 36.9954 18.3399 37.1672 18.3367C37.5514 18.394 37.7155 18.5124 37.9843 18.7891C38.0945 19.1066 38.0999 19.4087 38.1023 19.7429C38.1033 19.8524 38.1042 19.9619 38.1052 20.0748C38.1059 20.2516 38.1059 20.2516 38.1065 20.4319C38.1071 20.5536 38.1077 20.6754 38.1083 20.8008C38.1093 21.0583 38.1099 21.3159 38.1103 21.5735C38.1113 21.9667 38.1144 22.3598 38.1177 22.753C38.1183 23.0034 38.1188 23.2538 38.1192 23.5042C38.1205 23.6214 38.1217 23.7387 38.123 23.8595C38.1213 24.4772 38.1069 24.9576 37.7812 25.4922C37.4651 25.7415 37.1503 25.719 36.7577 25.7151C36.6398 25.7145 36.522 25.7138 36.4006 25.7132C36.2168 25.7106 36.2168 25.7106 36.0293 25.708C35.9052 25.7071 35.781 25.7062 35.6532 25.7052C35.3469 25.7028 35.0406 25.6995 34.7343 25.6953C34.7679 25.7623 34.8014 25.8294 34.8359 25.8984C34.8668 26.4948 34.8978 27.2215 34.4807 27.6967C34.0896 27.8989 33.7169 27.8708 33.2827 27.8682C33.1378 27.8691 33.1378 27.8691 32.9899 27.8701C32.6653 27.8717 32.3408 27.8713 32.0162 27.8708C31.7838 27.8715 31.5514 27.8724 31.3191 27.8734C30.6872 27.8756 30.0554 27.8759 29.4236 27.8757C28.8966 27.8757 28.3696 27.8766 27.8426 27.8774C26.5284 27.8795 25.2142 27.8796 23.9001 27.8789C22.7586 27.8783 21.6173 27.8804 20.4758 27.8838C19.3039 27.8872 18.1321 27.8887 16.9601 27.8883C16.3022 27.8881 15.6442 27.8886 14.9862 27.8911C14.3676 27.8934 13.749 27.8932 13.1304 27.8911C12.9031 27.8908 12.6758 27.8913 12.4486 27.8928C12.1387 27.8946 11.829 27.8933 11.5192 27.8912C11.4289 27.8925 11.3385 27.8938 11.2455 27.8951C10.8037 27.8887 10.6177 27.8699 10.2551 27.5957C9.98051 27.2185 9.94079 26.9557 9.93884 26.4998C9.93826 26.4183 9.93768 26.3367 9.93708 26.2527C9.93691 26.1198 9.93691 26.1198 9.93673 25.9842C9.93623 25.8902 9.93573 25.7962 9.93521 25.6993C9.93372 25.3884 9.93303 25.0775 9.93247 24.7666C9.93189 24.5503 9.9313 24.3339 9.93072 24.1176C9.92965 23.664 9.92906 23.2104 9.9287 22.7568C9.92814 22.1762 9.9257 21.5957 9.92281 21.0151C9.92092 20.5682 9.92039 20.1214 9.92024 19.6745C9.91993 19.4605 9.91912 19.2465 9.91778 19.0325C9.91604 18.7327 9.91624 18.4331 9.9169 18.1333C9.91596 18.0454 9.91503 17.9574 9.91406 17.8668C9.91781 17.3203 9.99283 16.935 10.2578 16.4531C10.5657 16.2478 10.6233 16.2245 10.9681 16.2236ZM11.8828 18.1797C11.8828 20.7269 11.8828 23.2741 11.8828 25.8984C13.0893 25.8984 14.2959 25.8984 15.539 25.8984C15.539 23.3512 15.539 20.8041 15.539 18.1797C14.3325 18.1797 13.1259 18.1797 11.8828 18.1797ZM17.4687 18.1797C17.4687 20.7269 17.4687 23.2741 17.4687 25.8984C22.5296 25.8984 27.5904 25.8984 32.8047 25.8984C32.8047 23.3512 32.8047 20.8041 32.8047 18.1797C27.7438 18.1797 22.6829 18.1797 17.4687 18.1797ZM34.7343 20.2109C34.7343 21.384 34.7343 22.557 34.7343 23.7656C35.2036 23.7656 35.6728 23.7656 36.1562 23.7656C36.1562 22.5926 36.1562 21.4195 36.1562 20.2109C35.687 20.2109 35.2178 20.2109 34.7343 20.2109Z" fill="white"/>
<path d="M24.2734 3.65625C24.7406 3.87969 24.7406 3.87969 24.8827 4.16406C24.9759 4.93674 24.7023 5.39395 24.3051 6.04297C24.2512 6.13422 24.1974 6.22547 24.1419 6.31949C23.8219 6.85894 23.4904 7.39114 23.1562 7.92188C23.3563 7.9258 23.3563 7.9258 23.5604 7.92981C23.7367 7.93553 23.913 7.94135 24.0893 7.94727C24.1771 7.94871 24.2649 7.95015 24.3553 7.95163C24.7794 7.96788 25.0275 7.98734 25.3949 8.21466C25.6662 8.50817 25.7102 8.63646 25.6952 9.03906C25.4591 9.77627 24.9552 10.4025 24.5068 11.0229C24.1591 11.5056 23.8241 11.995 23.497 12.4918C23.436 12.5843 23.436 12.5843 23.3737 12.6787C23.2096 12.9278 23.0456 13.177 22.883 13.427C22.7684 13.6033 22.6529 13.7789 22.5373 13.9545C22.4706 14.0568 22.4039 14.1591 22.3352 14.2645C22.0891 14.5919 21.8754 14.7811 21.4867 14.9106C21.1002 14.9389 20.852 14.8218 20.5409 14.5996C20.3507 14.3333 20.325 14.1392 20.3124 13.8125C20.5126 13.2619 20.7926 12.8149 21.1313 12.3398C21.2306 12.1982 21.3297 12.0564 21.4288 11.9146C21.4792 11.8427 21.5296 11.7708 21.5815 11.6967C21.8299 11.3389 22.0711 10.9763 22.3119 10.6133C22.356 10.547 22.4001 10.4807 22.4455 10.4123C22.5471 10.2593 22.6485 10.1062 22.7499 9.95313C22.5991 10.0034 22.5991 10.0034 22.4452 10.0547C22.2466 10.0669 22.0476 10.0725 21.8486 10.0737C21.7441 10.0752 21.6396 10.0766 21.532 10.0781C21.148 10.0487 20.8589 9.9467 20.5409 9.73096C20.3376 9.43614 20.2712 9.18656 20.3124 8.83594C20.4122 8.6099 20.4122 8.6099 20.5568 8.3551C20.6125 8.25659 20.6682 8.15807 20.7256 8.05657C20.7903 7.94509 20.8551 7.83361 20.9218 7.71875C20.9756 7.62602 20.9756 7.62602 21.0305 7.53142C21.2729 7.11462 21.518 6.69944 21.7643 6.28497C21.8935 6.06753 22.0221 5.84975 22.1507 5.63196C22.2342 5.49123 22.3177 5.35053 22.4012 5.20984C22.4389 5.14592 22.4766 5.08201 22.5154 5.01616C23.3633 3.59455 23.3633 3.59455 24.2734 3.65625Z" fill="white"/>
</g>
<defs>
<clipPath id="clip0_112_858">
<rect width="52" height="52" fill="white"/>
</clipPath>
</defs>
</svg>
