<svg width="52" height="52" viewBox="0 0 52 52" fill="none" xmlns="http://www.w3.org/2000/svg">
<path d="M29.9159 27.625C31.1427 28.6713 31.965 30.2151 32.1156 31.8266C32.1957 33.5001 31.9805 35.0972 30.8393 36.4157C30.4443 36.8432 30.0398 37.2543 29.5541 37.5781C29.68 37.6206 29.8059 37.663 29.9356 37.7067C30.4085 37.8664 30.8808 38.0279 31.353 38.19C31.5563 38.2595 31.7598 38.3285 31.9635 38.3971C33.9426 39.0638 35.5371 39.7106 36.5619 41.6406C37.0505 42.7964 37.0896 43.9041 37.0951 45.1445C37.0982 45.323 37.0982 45.323 37.1014 45.5052C37.1051 46.3289 37.0273 47.0081 36.5873 47.7153C35.9667 48.3187 35.3372 48.4606 34.4965 48.4596C34.3836 48.46 34.3836 48.46 34.2684 48.4605C34.0161 48.4614 33.7638 48.4615 33.5115 48.4617C33.3307 48.4622 33.1498 48.4627 32.969 48.4632C32.4775 48.4645 31.9861 48.4652 31.4946 48.4656C31.1875 48.4659 30.8804 48.4664 30.5732 48.4668C29.6121 48.4682 28.651 48.4692 27.6898 48.4696C26.5808 48.47 25.4717 48.4718 24.3626 48.4748C23.5051 48.477 22.6476 48.478 21.79 48.4781C21.278 48.4782 20.766 48.4788 20.2539 48.4806C19.7721 48.4823 19.2903 48.4825 18.8084 48.4816C18.6319 48.4816 18.4554 48.482 18.2788 48.483C18.0372 48.4843 17.7956 48.4837 17.5539 48.4826C17.4846 48.4835 17.4154 48.4843 17.344 48.4851C16.6818 48.4784 16.162 48.2827 15.6146 47.9248C14.8831 47.16 14.8671 46.2966 14.8817 45.2904C14.8846 45.0702 14.8838 44.8502 14.8825 44.63C14.885 42.8797 15.2775 41.4365 16.5156 40.1454C17.3984 39.3002 18.355 38.9652 19.496 38.5938C20.0836 38.4 20.667 38.1942 21.2513 37.9907C21.4804 37.9115 21.7094 37.8322 21.9385 37.7531C22.0362 37.7193 22.1339 37.6855 22.2345 37.6508C22.3386 37.6148 22.3386 37.6148 22.4447 37.5781C22.3765 37.5257 22.3082 37.4733 22.2379 37.4194C20.9292 36.3971 20.0971 35.0813 19.8644 33.4252C19.6751 31.6442 20.1181 29.9757 21.1815 28.5363C23.3623 25.8767 27.2233 25.5907 29.9159 27.625ZM22.5359 29.5908C21.7648 30.6229 21.4369 31.7964 21.5564 33.082C21.7653 34.2957 22.385 35.3046 23.3235 36.0948C24.3578 36.8021 25.487 36.956 26.7103 36.8672C28.0818 36.6097 29.086 35.8923 29.8802 34.7625C30.4403 33.8044 30.5618 32.5429 30.3463 31.4749C30.0371 30.3525 29.3909 29.3103 28.3865 28.6863C26.4339 27.6787 24.0446 27.8998 22.5359 29.5908ZM23.1556 39.2031C22.9819 39.2583 22.8081 39.3134 22.6343 39.3684C22.1748 39.5145 21.7165 39.6642 21.2587 39.8155C21.0707 39.8773 20.8826 39.9386 20.6943 39.9994C18.571 40.6742 18.571 40.6742 17.0619 42.25C16.6693 43.1754 16.5948 44.0606 16.6112 45.0557C16.6105 45.1828 16.6098 45.3099 16.609 45.4409C16.5779 46.0375 16.5779 46.0375 16.7655 46.5811C17.064 46.792 17.319 46.7575 17.6812 46.7581C17.7551 46.7587 17.829 46.7592 17.9051 46.7598C18.1533 46.7612 18.4014 46.7605 18.6496 46.7598C18.8273 46.7604 19.0049 46.7611 19.1826 46.7619C19.6656 46.7637 20.1486 46.7636 20.6317 46.763C21.0345 46.7627 21.4374 46.7633 21.8402 46.7639C22.7903 46.7654 23.7403 46.7652 24.6904 46.7641C25.6715 46.7629 26.6527 46.7643 27.6338 46.767C28.4754 46.7693 29.317 46.77 30.1586 46.7694C30.6616 46.769 31.1646 46.7693 31.6676 46.771C32.1404 46.7726 32.6132 46.7722 33.086 46.7703C33.2598 46.7699 33.4336 46.7702 33.6074 46.7713C33.8442 46.7726 34.0808 46.7715 34.3175 46.7697C34.5165 46.7696 34.5165 46.7696 34.7195 46.7696C35.0447 46.7492 35.0447 46.7492 35.2334 46.5287C35.3709 46.2578 35.3825 46.0637 35.3836 45.7603C35.384 45.6525 35.3844 45.5448 35.3848 45.4338C35.3836 45.3216 35.3824 45.2094 35.3812 45.0938C35.383 44.9302 35.383 44.9302 35.3848 44.7633C35.3796 43.3343 35.0482 42.2377 34.0355 41.2153C33.6487 40.8963 33.2814 40.7171 32.8112 40.5457C32.7415 40.5202 32.6719 40.4948 32.6001 40.4685C31.7149 40.1493 30.8193 39.8599 29.9239 39.5709C29.6263 39.4748 29.3289 39.3782 29.0316 39.2815C28.8413 39.2198 28.651 39.1581 28.4607 39.0964C28.3724 39.0677 28.284 39.0391 28.193 39.0095C28.1109 38.9831 28.0287 38.9566 27.9441 38.9293C27.8723 38.9061 27.8005 38.8829 27.7265 38.859C27.1712 38.6897 26.6608 38.666 26.0819 38.6572C25.9916 38.6534 25.9014 38.6496 25.8084 38.6457C24.8704 38.6339 24.036 38.9166 23.1556 39.2031Z" fill="white"/>
<path d="M17.4191 3.53974C17.4951 3.53937 17.571 3.539 17.6493 3.53861C17.9033 3.5375 18.1574 3.5371 18.4115 3.53672C18.5939 3.53608 18.7762 3.5354 18.9586 3.53469C19.5572 3.53256 20.1557 3.5315 20.7543 3.53049C20.9607 3.53008 21.1671 3.52966 21.3734 3.52924C22.3432 3.5273 23.313 3.52586 24.2827 3.52501C25.4006 3.52402 26.5185 3.52135 27.6364 3.51724C28.5015 3.51417 29.3665 3.51267 30.2316 3.51234C30.7478 3.5121 31.264 3.5112 31.7802 3.50863C32.2662 3.50626 32.7521 3.50584 33.2382 3.50688C33.4159 3.50693 33.5936 3.5063 33.7713 3.5049C35.015 3.49566 36.1581 3.55461 37.0999 4.46704C37.7712 5.26017 37.8551 6.05565 37.8468 7.06395C37.8475 7.19954 37.8484 7.33512 37.8495 7.47071C37.8518 7.83606 37.8509 8.20134 37.8493 8.56669C37.848 8.95076 37.8492 9.33483 37.85 9.7189C37.8509 10.3636 37.8497 11.0083 37.8473 11.6531C37.8445 12.3963 37.8454 13.1394 37.8482 13.8826C37.8505 14.5231 37.8509 15.1635 37.8495 15.804C37.8488 16.1855 37.8486 16.5669 37.8503 16.9484C37.8518 17.3072 37.8507 17.666 37.8478 18.0248C37.8469 18.2177 37.8483 18.4106 37.8499 18.6035C37.838 19.5753 37.5908 20.2762 36.9496 21.0107C36.136 21.7483 35.2343 21.781 34.185 21.731C33.8812 21.7176 33.5774 21.7124 33.2734 21.7066C32.71 21.6958 32.1472 21.6822 31.5845 21.654C29.8419 21.5038 29.8419 21.5038 28.2573 22.0399C27.7988 22.5351 27.5115 23.0908 27.2423 23.7048C27.0543 24.101 26.8182 24.4696 26.5077 24.7813C26.1143 24.9124 25.9203 24.9382 25.5413 24.7682C25.2257 24.5305 25.1284 24.3135 24.9644 23.9554C24.2841 22.5697 24.2841 22.5697 23.0832 21.6866C22.1281 21.4684 21.1145 21.5583 20.1459 21.6243C19.667 21.654 19.1874 21.6656 18.7078 21.6788C18.3345 21.6891 17.9623 21.7024 17.5896 21.7256C16.6408 21.778 15.9753 21.646 15.1581 21.1631C14.5896 20.563 14.2076 19.8736 14.203 19.0435C14.2017 18.8695 14.2017 18.8695 14.2003 18.6919C14.1999 18.5645 14.1995 18.4371 14.199 18.3058C14.1982 18.1703 14.1974 18.0349 14.1965 17.8994C14.1938 17.4542 14.1923 17.009 14.1908 16.5638C14.1903 16.4103 14.1897 16.2568 14.1892 16.1033C14.187 15.4644 14.1851 14.8256 14.184 14.1867C14.1823 13.2726 14.1789 12.3585 14.1731 11.4444C14.1692 10.8009 14.1672 10.1575 14.1667 9.51401C14.1663 9.13012 14.1651 8.74628 14.1618 8.3624C14.1587 8.00067 14.1581 7.63902 14.1593 7.27728C14.1593 7.08268 14.1569 6.88808 14.1543 6.69349C14.1606 5.81567 14.3157 5.10949 14.9304 4.45459C15.6877 3.74876 16.4019 3.53947 17.4191 3.53974ZM16.1483 5.6875C15.7902 6.34334 15.8006 6.97432 15.8058 7.70906C15.8054 7.8279 15.8051 7.94674 15.8047 8.06918C15.8039 8.46033 15.8052 8.85144 15.8067 9.24259C15.8068 9.51525 15.8067 9.78791 15.8066 10.0606C15.8065 10.6313 15.8076 11.202 15.8095 11.7727C15.8116 12.4312 15.812 13.0897 15.8113 13.7482C15.8108 14.3835 15.8113 15.0188 15.8125 15.6542C15.8129 15.9237 15.813 16.1933 15.8128 16.4628C15.8128 16.8396 15.8141 17.2164 15.8157 17.5932C15.8155 17.7042 15.8152 17.8153 15.8149 17.9298C15.8189 18.4907 15.8413 18.9748 16.0467 19.5C16.5238 19.9532 16.8073 20.0206 17.4549 20.0254C17.5624 20.0265 17.5624 20.0265 17.6721 20.0275C17.828 20.0289 17.9839 20.0301 18.1398 20.0312C18.3865 20.0328 18.6332 20.0352 18.8799 20.0377C19.5815 20.0449 20.283 20.051 20.9846 20.0562C21.4136 20.0595 21.8425 20.0637 22.2714 20.0684C22.4349 20.0701 22.5984 20.0713 22.7619 20.0722C22.9907 20.0734 23.2195 20.0759 23.4482 20.0786C23.6435 20.0802 23.6435 20.0802 23.8428 20.0818C24.1524 20.1078 24.323 20.1416 24.578 20.3125C24.7421 20.522 24.7421 20.522 24.8993 20.7767C24.9567 20.8677 25.014 20.9587 25.0731 21.0524C25.1318 21.1476 25.1904 21.2428 25.2508 21.3408C25.3679 21.5298 25.4855 21.7184 25.6039 21.9066C25.6556 21.9904 25.7073 22.0742 25.7605 22.1605C25.806 22.221 25.8514 22.2815 25.8983 22.3438C25.9653 22.3438 26.0324 22.3438 26.1014 22.3438C26.2606 22.1418 26.2606 22.1418 26.4216 21.8808C26.4837 21.785 26.5458 21.6892 26.6098 21.5906C26.7403 21.3864 26.8707 21.1823 27.001 20.978C27.0944 20.8342 27.0944 20.8342 27.1896 20.6874C27.2463 20.5986 27.303 20.5098 27.3614 20.4183C27.5233 20.2109 27.5233 20.2109 27.828 20.1094C28.063 20.0994 28.2983 20.0956 28.5335 20.095C28.6406 20.0944 28.6406 20.0944 28.7498 20.0939C28.9047 20.0932 29.0597 20.0926 29.2146 20.0922C29.4601 20.0915 29.7056 20.0899 29.9511 20.0881C30.6491 20.0827 31.3471 20.0779 32.0452 20.0763C32.4723 20.0753 32.8993 20.0723 33.3264 20.068C33.4889 20.0668 33.6514 20.0662 33.8139 20.0665C34.0417 20.0667 34.2693 20.0645 34.4971 20.0616C34.6913 20.0608 34.6913 20.0608 34.8893 20.0598C35.3069 19.9982 35.5252 19.8651 35.8514 19.6016C36.1419 19.1659 36.1686 18.7818 36.1704 18.2669C36.171 18.164 36.1715 18.0611 36.1721 17.955C36.1722 17.8432 36.1724 17.7314 36.1725 17.6162C36.173 17.4976 36.1735 17.379 36.174 17.2567C36.1755 16.8644 36.1762 16.4721 36.1767 16.0798C36.177 15.9444 36.1773 15.8089 36.1776 15.6734C36.179 15.037 36.18 14.4006 36.1804 13.7642C36.1808 13.0312 36.1826 12.2982 36.1856 11.5652C36.1878 10.9974 36.1888 10.4297 36.1889 9.86196C36.189 9.52339 36.1898 9.18485 36.1914 8.84627C36.1932 8.46826 36.193 8.0903 36.1923 7.71228C36.1937 7.54549 36.1937 7.54549 36.1951 7.37533C36.1917 6.74385 36.1574 6.24734 35.8514 5.6875C35.3394 5.33121 35.0003 5.2304 34.3657 5.22967C34.2536 5.22872 34.2536 5.22872 34.1392 5.22775C33.8904 5.22614 33.6417 5.22741 33.3929 5.22869C33.2138 5.22814 33.0348 5.22741 32.8557 5.22653C32.3706 5.22468 31.8854 5.2254 31.4003 5.22668C30.8921 5.22771 30.3838 5.22676 29.8756 5.22612C29.0221 5.22538 28.1687 5.22636 27.3153 5.22829C26.3293 5.2305 25.3433 5.22979 24.3573 5.22755C23.51 5.2257 22.6628 5.22545 21.8155 5.22651C21.3097 5.22714 20.804 5.22723 20.2983 5.22588C19.8228 5.22471 19.3473 5.22553 18.8718 5.22787C18.6975 5.22841 18.5232 5.22826 18.3489 5.22736C18.1106 5.22625 17.8723 5.22765 17.634 5.22967C17.5007 5.22982 17.3675 5.22997 17.2302 5.23013C16.7657 5.29415 16.5323 5.42027 16.1483 5.6875Z" fill="white"/>
<path d="M15.3986 29.2543C16.5248 30.228 17.2648 31.3505 17.4525 32.8523C17.5188 34.3891 17.1046 35.8328 16.052 36.9806C15.8839 37.1498 15.7138 37.3151 15.5383 37.4765C15.6388 37.5834 15.6388 37.5834 15.7414 37.6924C15.9816 38.0376 16.0132 38.182 15.9445 38.5937C15.7533 38.9246 15.6384 39.0718 15.2689 39.1817C14.8459 39.2083 14.5153 39.0931 14.1227 38.9556C13.0107 38.6026 12.0125 38.5923 10.8803 38.8639C10.8061 38.8816 10.7318 38.8993 10.6553 38.9175C9.88094 39.109 9.13054 39.3612 8.38023 39.6306C8.15258 39.7121 7.92432 39.7917 7.69595 39.8712C7.54839 39.9235 7.40087 39.9758 7.2534 40.0283C7.15294 40.0632 7.15294 40.0632 7.05045 40.0989C6.1959 40.4091 5.61929 40.8699 5.20429 41.685C4.97034 42.3518 4.95969 43.0117 4.96308 43.7099C4.96269 43.7931 4.9623 43.8762 4.96189 43.9619C4.92364 44.3563 4.92364 44.3563 5.07734 44.6875C5.32236 44.6975 5.56456 44.701 5.80963 44.7003C5.92457 44.7006 5.92457 44.7006 6.04183 44.7009C6.20881 44.7013 6.37578 44.7015 6.54276 44.7015C6.89741 44.7019 7.25203 44.704 7.60667 44.7061C8.26764 44.71 8.92858 44.7131 9.58956 44.7129C10.0487 44.7128 10.5078 44.7152 10.9669 44.7192C11.142 44.7203 11.3171 44.7204 11.4923 44.7197C11.7374 44.7187 11.9824 44.7208 12.2275 44.7237C12.3 44.7227 12.3724 44.7216 12.4471 44.7205C12.8233 44.7284 12.9722 44.763 13.2474 45.028C13.4421 45.3592 13.4685 45.5278 13.4055 45.9062C13.2503 46.1752 13.2503 46.1752 12.9992 46.414C12.7066 46.4648 12.4737 46.4826 12.1812 46.4781C12.0991 46.4789 12.017 46.4796 11.9324 46.4803C11.661 46.4821 11.3897 46.4801 11.1183 46.4779C10.9293 46.478 10.7403 46.4783 10.5514 46.4787C10.1551 46.479 9.75892 46.4775 9.36268 46.4747C8.85586 46.4712 8.34914 46.4718 7.84232 46.4737C7.45188 46.4748 7.06146 46.4739 6.67103 46.4724C6.48424 46.4718 6.29745 46.4719 6.11067 46.4725C5.84885 46.4731 5.58717 46.471 5.32537 46.4682C5.24879 46.4689 5.17221 46.4696 5.09331 46.4702C4.53937 46.4603 4.21578 46.3204 3.75703 46.0078C3.29336 45.5075 3.23205 45.1102 3.22501 44.4494C3.22419 44.3759 3.22337 44.3023 3.22253 44.2265C3.22113 44.0705 3.22004 43.9144 3.21924 43.7583C3.21807 43.6006 3.21601 43.4428 3.21299 43.285C3.18359 41.7477 3.46296 40.604 4.52747 39.432C5.53456 38.4863 7.66676 37.5781 9.03828 37.5781C8.9952 37.5312 8.95213 37.4844 8.90775 37.4361C7.79642 36.2002 7.05502 34.9248 7.08082 33.2145C7.22715 31.5902 7.88293 30.307 9.13984 29.25C10.9631 27.919 13.5884 27.8455 15.3986 29.2543ZM9.85078 30.9765C9.60689 31.2638 9.41756 31.5581 9.2414 31.8906C9.20697 31.9529 9.17254 32.0152 9.13706 32.0795C8.77469 32.861 8.80644 33.8661 9.09541 34.6645C9.53959 35.6121 10.1492 36.283 11.1271 36.664C12.0635 36.9624 12.9239 36.9181 13.8058 36.4764C13.8748 36.4378 13.9438 36.3992 14.0148 36.3594C14.0786 36.3239 14.1424 36.2884 14.208 36.2518C14.8743 35.8305 15.3459 35.1074 15.5914 34.3634C15.8 33.3358 15.6753 32.3827 15.132 31.4844C14.4917 30.6399 13.6503 30.1226 12.5993 29.9609C11.5482 29.9076 10.6203 30.2674 9.85078 30.9765Z" fill="white"/>
<path d="M43.2054 29.5547C44.3028 30.5824 44.8116 31.8916 44.9153 33.3696C44.8895 34.843 44.3662 36.0092 43.3653 37.0572C43.149 37.277 43.149 37.277 42.9602 37.5781C43.0872 37.6039 43.2142 37.6297 43.345 37.6563C45.0443 38.0354 47.0156 38.6048 48.0383 40.1172C48.5039 40.9375 48.7635 41.5704 48.7735 42.5122C48.7743 42.5866 48.7751 42.661 48.776 42.7376C48.7774 42.8948 48.7784 43.052 48.7792 43.2091C48.7804 43.369 48.7825 43.5288 48.7855 43.6887C48.7898 43.9207 48.7915 44.1527 48.7925 44.3848C48.7943 44.4554 48.7961 44.526 48.7979 44.5987C48.7955 45.155 48.647 45.4575 48.343 45.9062C47.8216 46.3895 47.4059 46.4296 46.7192 46.432C46.6366 46.4327 46.554 46.4334 46.4689 46.4341C46.1956 46.4361 45.9222 46.4372 45.6488 46.4383C45.5555 46.4387 45.4622 46.4391 45.366 46.4395C44.8723 46.4416 44.3786 46.4431 43.8849 46.444C43.3745 46.4452 42.8642 46.4487 42.3539 46.4527C41.9617 46.4553 41.5695 46.4562 41.1774 46.4566C40.9892 46.4571 40.801 46.4582 40.6129 46.4601C40.3498 46.4626 40.0868 46.4625 39.8237 46.4618C39.7069 46.4637 39.7069 46.4637 39.5878 46.4657C39.2293 46.4622 39.0361 46.4424 38.748 46.2206C38.5801 45.99 38.5378 45.8834 38.5422 45.6016C38.5412 45.5345 38.5401 45.4675 38.5391 45.3984C38.6199 45.0942 38.7518 44.9825 38.9993 44.7891C39.2703 44.7486 39.5001 44.7327 39.771 44.7352C39.8481 44.7343 39.9253 44.7335 40.0048 44.7325C40.2593 44.7301 40.5138 44.7304 40.7683 44.7307C40.9451 44.7295 41.1219 44.728 41.2986 44.7264C41.7636 44.7225 42.2285 44.721 42.6935 44.72C43.4389 44.718 44.1842 44.7122 44.9296 44.7069C45.1905 44.7054 45.4513 44.7046 45.7122 44.7041C45.8711 44.7034 46.03 44.7026 46.1889 44.7019C46.2985 44.702 46.2985 44.702 46.4103 44.7021C46.7452 44.729 46.7452 44.729 47.0227 44.5859C47.1306 42.637 47.1306 42.637 46.3118 40.9297C45.9002 40.5473 45.5585 40.3334 45.0232 40.1426C44.9559 40.1185 44.8887 40.0943 44.8194 40.0695C44.5727 39.982 44.3251 39.8972 44.0774 39.8125C43.9695 39.7752 43.8615 39.7379 43.7503 39.6994C43.39 39.5752 43.0292 39.4524 42.6682 39.3301C42.5524 39.2906 42.4366 39.2511 42.3172 39.2104C40.7165 38.6759 39.2769 38.464 37.6597 39.0314C37.2187 39.1821 36.9108 39.2356 36.4602 39.1016C36.1729 38.837 36.0675 38.675 36.0032 38.2891C36.065 37.9181 36.2055 37.7472 36.4602 37.4766C36.4086 37.4297 36.357 37.3828 36.3039 37.3345C35.2468 36.3329 34.6117 35.0695 34.5273 33.6013C34.5446 32.0323 35.0919 30.7755 36.1547 29.6439C38.1269 27.7332 41.1543 27.8554 43.2054 29.5547ZM37.2473 31.0337C36.6121 31.7133 36.3339 32.4907 36.2952 33.4141C36.3304 34.349 36.6528 35.1515 37.2727 35.8516C38.0648 36.5434 38.9168 36.9185 39.9768 36.8608C40.9769 36.7271 41.9123 36.2165 42.5349 35.4136C43.0787 34.5684 43.1621 33.694 43.0618 32.7031C42.8228 31.7216 42.2486 30.9257 41.3935 30.393C39.9093 29.67 38.45 29.9484 37.2473 31.0337Z" fill="white"/>
<path d="M23.0529 7.81475C23.4821 8.03935 23.7143 8.37807 23.8669 8.83593C23.8786 9.02481 23.885 9.21404 23.8884 9.40325C23.8912 9.51453 23.8941 9.62581 23.8971 9.74047C23.9024 9.97452 23.9069 10.2086 23.9106 10.4427C23.9137 10.5542 23.9169 10.6658 23.9201 10.7807C23.9221 10.8825 23.9241 10.9842 23.9262 11.0891C23.978 11.4391 24.0431 11.6117 24.2732 11.8828C24.5405 12.0148 24.7993 12.0983 25.0857 12.1875C25.0841 12.0768 25.0825 11.9662 25.0809 11.8522C25.0753 11.44 25.0718 11.0277 25.069 10.6155C25.0674 10.4374 25.0653 10.2593 25.0627 10.0812C25.059 9.8245 25.0573 9.56789 25.0559 9.31121C25.0544 9.23216 25.0528 9.1531 25.0512 9.07166C25.051 8.58041 25.1187 8.24635 25.3904 7.8203C25.7082 7.66139 26.0618 7.64795 26.406 7.71874C26.6497 7.88722 26.7931 8.02042 26.8477 8.31883C26.8593 8.56464 26.8579 8.80732 26.8519 9.05334C26.8513 9.14293 26.8508 9.23253 26.8502 9.32484C26.8479 9.61049 26.8428 9.89602 26.8376 10.1816C26.8356 10.3755 26.8337 10.5694 26.8321 10.7632C26.8276 11.238 26.8206 11.7127 26.8122 12.1875C26.9417 12.1441 27.0707 12.0994 27.1995 12.0542C27.2713 12.0294 27.3432 12.0047 27.4173 11.9792C27.6446 11.8736 27.7707 11.7711 27.9294 11.5781C28.0279 11.2828 28.0435 11.0908 28.0453 10.7835C28.0482 10.6392 28.0482 10.6392 28.0512 10.4921C28.0546 10.2913 28.0565 10.0906 28.0568 9.88984C28.0779 9.06859 28.3048 8.57115 28.8752 7.98534C29.4536 7.63563 30.0147 7.56403 30.6728 7.66518C30.9882 7.74883 31.115 7.84343 31.281 8.12499C31.3591 8.52535 31.3429 8.82778 31.1414 9.18505C30.737 9.42574 30.3225 9.42762 29.8591 9.4453C29.8607 9.50205 29.8623 9.55879 29.864 9.61726C29.8704 9.87943 29.8743 10.1416 29.8782 10.4038C29.8807 10.493 29.8833 10.5822 29.8859 10.6742C29.8957 11.556 29.705 12.3 29.1482 13C28.6115 13.5128 28.0875 13.7981 27.3474 13.8712C27.266 13.8795 27.1845 13.8878 27.1006 13.8963C27.0081 13.9051 27.0081 13.9051 26.9138 13.9141C26.9129 14.0319 26.9119 14.1498 26.9109 14.2712C26.9069 14.7089 26.9002 15.1464 26.8927 15.584C26.8899 15.7734 26.8877 15.9627 26.8863 16.152C26.8841 16.4244 26.8794 16.6966 26.8741 16.9689C26.874 17.0957 26.874 17.0957 26.8738 17.2251C26.8589 17.8134 26.8589 17.8134 26.618 18.1314C26.3234 18.3396 26.1372 18.3389 25.7867 18.3213C25.4888 18.2595 25.3605 18.1176 25.1872 17.875C25.0579 17.4869 25.0731 17.1227 25.0758 16.7185C25.0759 16.6355 25.0761 16.5526 25.0762 16.4671C25.0768 16.2022 25.078 15.9373 25.0793 15.6724C25.0798 15.4927 25.0803 15.313 25.0807 15.1334C25.0818 14.6931 25.0836 14.2528 25.0857 13.8125C25.0228 13.8132 24.9599 13.814 24.895 13.8147C24.8126 13.8153 24.7301 13.8159 24.6452 13.8165C24.5634 13.8172 24.4816 13.818 24.3974 13.8187C23.8016 13.8023 23.3026 13.4787 22.8704 13.0889C22.1759 12.311 22.0817 11.4559 22.115 10.4482C22.1168 10.3414 22.1187 10.2346 22.1205 10.1245C22.1253 9.86415 22.1319 9.604 22.1404 9.34374C22.0702 9.34551 21.9999 9.34728 21.9276 9.3491C21.7898 9.35116 21.7898 9.35116 21.6492 9.35326C21.5581 9.35503 21.4669 9.3568 21.373 9.35862C21.1248 9.34374 21.1248 9.34374 20.8581 9.1914C20.6607 8.83244 20.6354 8.52558 20.7185 8.12499C21.274 7.37799 22.2676 7.52647 23.0529 7.81475Z" fill="white"/>
</svg>
