<svg width="52" height="52" viewBox="0 0 52 52" fill="none" xmlns="http://www.w3.org/2000/svg">
<path d="M15.3356 21.3281C15.4412 21.3724 15.5469 21.4166 15.6557 21.4622C16.3778 21.7955 16.9774 22.2227 17.5699 22.75C17.6764 22.8421 17.6764 22.8421 17.785 22.9361C19.1003 24.1516 19.825 25.9343 19.9281 27.7012C19.993 29.7157 19.3692 31.4685 18.0778 33.0078C18.0107 33.0748 17.9437 33.1419 17.8746 33.2109C17.9543 33.2507 17.9543 33.2507 18.0357 33.2913C20.0119 34.2844 20.0119 34.2844 20.8199 35.0391C20.8986 35.1109 20.9773 35.1828 21.0584 35.2569C22.5567 36.6851 23.621 38.7508 23.6817 40.8462C23.6844 41.0077 23.6864 41.1693 23.6879 41.3308C23.6887 41.4174 23.6895 41.5041 23.6904 41.5934C23.6918 41.7763 23.6929 41.9592 23.6937 42.1422C23.6948 42.3274 23.6969 42.5126 23.6999 42.6979C23.7252 44.2605 23.5678 45.513 22.4676 46.7124C21.6984 47.4422 20.7438 47.8468 19.6886 47.8509C19.5606 47.8516 19.4326 47.8523 19.3008 47.8531C19.1592 47.8534 19.0175 47.8536 18.8759 47.8539C18.7266 47.8545 18.5773 47.8552 18.4279 47.8559C17.9376 47.8581 17.4473 47.8591 16.957 47.8601C16.7879 47.8605 16.6188 47.861 16.4496 47.8614C15.6547 47.8633 14.8598 47.8648 14.0649 47.8656C13.149 47.8666 12.2333 47.8693 11.3174 47.8734C10.6085 47.8765 9.89959 47.8779 9.19065 47.8783C8.76777 47.8785 8.34492 47.8794 7.92205 47.882C7.52365 47.8844 7.12529 47.8848 6.72689 47.8837C6.58143 47.8837 6.43597 47.8843 6.29052 47.8857C4.9061 47.8983 3.78295 47.589 2.74816 46.6398C1.56461 45.3925 1.47335 43.8022 1.50481 42.171C1.59194 39.2717 2.41705 37.0592 4.50051 35.0109C5.35935 34.2104 6.33608 33.6632 7.41369 33.2109C7.3718 33.1688 7.3299 33.1266 7.28674 33.0832C5.88085 31.5832 5.31928 29.7366 5.35507 27.7059C5.43411 25.7606 6.33456 24.0774 7.71838 22.75C7.77991 22.6889 7.84144 22.6277 7.90484 22.5647C9.81058 20.7938 12.9539 20.3282 15.3356 21.3281ZM8.83557 24.0703C7.7845 25.0467 7.19676 26.3469 7.08044 27.7718C7.03882 29.3499 7.52881 30.8281 8.61538 32.0017C8.95387 32.2993 9.32428 32.5489 9.70465 32.7901C10.0225 32.9953 10.2438 33.1468 10.359 33.5156C10.3408 33.8132 10.3187 34.034 10.1503 34.2841C9.84877 34.5063 9.50689 34.5486 9.1466 34.6201C7.95183 34.8815 6.95727 35.2907 5.99181 36.0547C5.90711 36.1203 5.8224 36.1859 5.73513 36.2534C4.34688 37.4064 3.47057 39.1749 3.28771 40.9614C3.06713 43.2108 3.06713 43.2108 3.88122 45.2132C4.37682 45.7207 4.83502 46.0875 5.5583 46.123C5.66534 46.1234 5.77238 46.1239 5.88266 46.1243C6.06738 46.1254 6.06738 46.1254 6.25584 46.1265C6.39201 46.1268 6.52817 46.1271 6.66434 46.1273C6.80801 46.128 6.95167 46.1287 7.09534 46.1294C7.56684 46.1315 8.03834 46.1326 8.50985 46.1336C8.67244 46.134 8.83502 46.1344 8.9976 46.1348C9.76162 46.1368 10.5256 46.1382 11.2897 46.139C12.1703 46.14 13.0509 46.1427 13.9315 46.1468C14.613 46.1499 15.2945 46.1514 15.976 46.1517C16.3827 46.152 16.7893 46.1529 17.1959 46.1554C17.5788 46.1578 17.9617 46.1582 18.3446 46.1572C18.5509 46.1571 18.7573 46.159 18.9637 46.161C19.8329 46.1561 20.5037 46.054 21.1814 45.4849C21.2443 45.4103 21.3073 45.3357 21.3722 45.2588C21.437 45.1847 21.5018 45.1106 21.5686 45.0342C21.9199 44.5135 21.9693 43.9878 21.9712 43.3739C21.9719 43.2972 21.9726 43.2206 21.9733 43.1416C21.9743 42.9795 21.9748 42.8174 21.9748 42.6553C21.9752 42.4125 21.9789 42.17 21.9828 41.9273C21.9982 39.8485 21.3605 38.0942 19.9059 36.5625C18.8109 35.5064 17.582 34.9383 16.1167 34.6249C15.7183 34.5254 15.3953 34.415 15.0309 34.2266C14.9056 33.8507 14.89 33.6306 15.0182 33.2554C15.2228 33.0207 15.3869 32.8994 15.6466 32.7349C16.9072 31.9224 17.7433 30.7316 18.1285 29.2817C18.3804 27.6827 18.0375 26.2338 17.1637 24.8828C16.2354 23.6156 14.9103 22.8565 13.3678 22.604C11.6363 22.4201 10.151 22.9515 8.83557 24.0703Z" fill="white"/>
<path d="M43.5132 22.1025C45.0969 23.2862 46.1943 24.8692 46.5665 26.8264C46.828 28.8159 46.4849 30.7598 45.2743 32.4008C45.1329 32.5755 44.9888 32.748 44.8411 32.9173C44.6673 33.095 44.6673 33.095 44.6883 33.3125C44.8449 33.3863 44.8449 33.3863 45.0045 33.4617C47.1943 34.5126 48.987 36.0303 49.8533 38.3578C50.2994 39.6527 50.444 40.8348 50.4344 42.1984C50.433 42.4797 50.4365 42.7606 50.4403 43.0419C50.4466 44.4912 50.1914 45.6371 49.1571 46.7187C48.3748 47.4338 47.4605 47.8467 46.4007 47.8509C46.2728 47.8516 46.1448 47.8523 46.0129 47.8531C45.8713 47.8534 45.7297 47.8536 45.5881 47.8539C45.4388 47.8545 45.2894 47.8552 45.1401 47.8559C44.6498 47.8581 44.1595 47.8591 43.6692 47.8601C43.5 47.8605 43.3309 47.861 43.1618 47.8614C42.3669 47.8633 41.5719 47.8648 40.777 47.8656C39.8612 47.8666 38.9454 47.8693 38.0296 47.8734C37.3207 47.8764 36.6117 47.8779 35.9028 47.8783C35.4799 47.8785 35.0571 47.8794 34.6342 47.882C34.2358 47.8844 33.8374 47.8848 33.439 47.8837C33.2936 47.8837 33.1481 47.8843 33.0027 47.8857C31.6531 47.898 30.5885 47.6125 29.5555 46.7187C28.6842 45.8057 28.3237 44.835 28.3126 43.5909C28.3118 43.5029 28.3109 43.4149 28.3101 43.3243C28.3087 43.1375 28.3076 42.9507 28.3068 42.7639C28.3056 42.5758 28.3036 42.3877 28.3006 42.1997C28.2571 39.4982 29.028 37.242 30.9012 35.2612C31.837 34.3638 32.9584 33.7561 34.1258 33.2109C34.0612 33.1442 34.0612 33.1442 33.9953 33.076C32.5554 31.5191 32.0035 29.6244 32.0808 27.5303C32.2069 25.6153 33.1497 23.8381 34.5759 22.578C37.1006 20.4746 40.7751 20.2712 43.5132 22.1025ZM35.3486 24.2461C34.3311 25.2888 33.835 26.746 33.7894 28.1709C33.8222 29.816 34.4993 31.0513 35.6493 32.1953C35.9835 32.5112 36.3032 32.7719 36.703 33.0015C36.9696 33.2109 36.9696 33.2109 37.0712 33.5664C37.0712 34.062 37.0712 34.062 36.868 34.3281C36.6193 34.4109 36.3934 34.4687 36.1381 34.5185C34.8684 34.8032 33.7276 35.2273 32.704 36.0547C32.6271 36.1139 32.5503 36.173 32.4711 36.234C31.1719 37.2984 30.3465 38.8814 30.0633 40.5234C30.0156 41.0571 30.0151 41.5919 30.018 42.1273C30.0189 42.3713 30.016 42.6151 30.0128 42.8592C30.0082 43.8182 30.05 44.594 30.6878 45.3536C30.7624 45.4166 30.837 45.4795 30.9139 45.5444C30.988 45.6092 31.0621 45.674 31.1385 45.7408C31.6073 46.0572 32.0628 46.1348 32.6206 46.1358C32.7443 46.1366 32.8681 46.1373 32.9955 46.138C33.1313 46.1378 33.267 46.1375 33.4028 46.1373C33.5468 46.1377 33.6908 46.1382 33.8349 46.1388C34.225 46.1402 34.615 46.1403 35.0051 46.14C35.3312 46.1399 35.6573 46.1404 35.9834 46.1409C36.7529 46.142 37.5223 46.142 38.2918 46.1414C39.0847 46.1408 39.8776 46.1421 40.6705 46.1442C41.3522 46.146 42.0339 46.1466 42.7156 46.1463C43.1223 46.1461 43.529 46.1464 43.9358 46.1478C44.3183 46.1491 44.7008 46.1489 45.0834 46.1475C45.2235 46.1473 45.3635 46.1476 45.5036 46.1484C46.5862 46.1544 47.2496 46.039 48.0605 45.2925C48.9585 44.3145 48.7978 42.878 48.7508 41.6406C48.6221 39.5181 47.8507 37.7203 46.3007 36.2451C45.2465 35.3504 44.062 34.8456 42.717 34.559C42.6072 34.5352 42.4973 34.5114 42.3841 34.4868C42.2853 34.4681 42.1865 34.4494 42.0846 34.4301C41.8446 34.3281 41.8446 34.3281 41.7085 34.0806C41.629 33.7718 41.6354 33.6124 41.743 33.3125C42.0249 32.9981 42.3331 32.7726 42.6825 32.5381C43.8138 31.7201 44.6197 30.4798 44.8665 29.0905C45.0298 27.4775 44.74 25.9958 43.7513 24.6844C42.6655 23.4229 41.343 22.7501 39.6987 22.5663C37.9956 22.4821 36.6042 23.138 35.3486 24.2461Z" fill="white"/>
<path d="M25.4922 5.28125C25.5969 5.37375 25.5969 5.37375 25.7037 5.46811C25.768 5.50699 25.8323 5.54588 25.8985 5.58594C26.2606 5.49284 26.5418 5.30256 26.8506 5.09717C28.4262 4.13052 30.4253 3.91865 32.2279 4.22635C34.1638 4.69284 35.7565 5.8694 36.8672 7.51562C37.9259 9.28082 38.2269 11.3038 37.7813 13.3047C37.1996 15.4485 35.7355 16.8316 34.2031 18.3493C33.9322 18.618 33.6624 18.8879 33.3925 19.1576C32.9405 19.609 32.4877 20.0596 32.0344 20.5097C31.4523 21.0876 30.8714 21.6668 30.2909 22.2463C29.7906 22.7458 29.2899 23.2448 28.789 23.7436C28.6817 23.8505 28.5744 23.9575 28.4672 24.0644C28.1156 24.4148 27.7637 24.7647 27.4114 25.1144C27.3224 25.2031 27.2334 25.2919 27.1417 25.3833C27.0607 25.4636 26.9797 25.5438 26.8963 25.6265C26.8258 25.6966 26.7552 25.7667 26.6826 25.8389C26.4636 26.0408 26.332 26.0964 26.0381 26.1523C25.2234 26.0316 24.5219 25.0463 23.9567 24.4841C23.8235 24.3521 23.8235 24.3521 23.6877 24.2175C23.3961 23.9285 23.105 23.639 22.8139 23.3495C22.7128 23.2489 22.6118 23.1484 22.5107 23.0478C22.0897 22.629 21.6689 22.2101 21.2484 21.7908C20.6502 21.1943 20.0512 20.5986 19.4509 20.0041C19.0264 19.5836 18.6029 19.162 18.1801 18.7398C17.9287 18.4888 17.677 18.2382 17.4241 17.9887C15.5374 16.1256 14.0665 14.3742 14.0117 11.5788C14.0192 9.65165 14.6632 7.93793 15.9454 6.5C16.0091 6.42786 16.0729 6.35573 16.1386 6.2814C18.6085 3.6498 22.5086 3.56434 25.4922 5.28125ZM17.9766 7.00781C17.869 7.08401 17.869 7.08401 17.7592 7.16174C16.6895 7.99565 16.0256 9.34444 15.7906 10.6561C15.5935 12.3123 16.0626 13.7317 17.0405 15.0511C17.3819 15.4829 17.7588 15.8692 18.1504 16.2552C18.2347 16.3396 18.319 16.424 18.4059 16.5109C18.681 16.7858 18.9572 17.0596 19.2335 17.3335C19.4259 17.5254 19.6183 17.7173 19.8106 17.9093C20.2628 18.3606 20.7158 18.8111 21.1691 19.2613C21.6858 19.7745 22.2015 20.2887 22.7173 20.8028C23.7767 21.8591 24.8372 22.9143 25.8985 23.9687C26.2134 23.8285 26.4291 23.667 26.6727 23.4242C26.744 23.3536 26.8153 23.283 26.8888 23.2102C26.966 23.1328 27.0432 23.0553 27.1227 22.9755C27.2049 22.8939 27.287 22.8123 27.3716 22.7282C27.6435 22.4578 27.9146 22.1866 28.1856 21.9153C28.3746 21.7267 28.5636 21.5382 28.7526 21.3496C29.1492 20.9539 29.5454 20.5576 29.9413 20.1611C30.3971 19.7047 30.8538 19.2493 31.311 18.7943C31.7523 18.3549 32.1928 17.9148 32.6329 17.4743C32.8195 17.2878 33.0063 17.1015 33.1933 16.9155C33.4558 16.6543 33.7173 16.3921 33.9786 16.1296C34.0552 16.0538 34.1318 15.978 34.2107 15.8999C35.477 14.6211 36.2186 13.1917 36.2579 11.375C36.19 9.76397 35.5474 8.39375 34.3837 7.2764C33.0503 6.15893 31.5896 5.76687 29.8762 5.86871C28.6121 5.99469 27.5872 6.61434 26.6757 7.45731C26.314 7.67197 25.9986 7.70219 25.5938 7.61719C25.3481 7.46452 25.1639 7.33037 24.9527 7.14111C22.9125 5.44727 20.0984 5.42663 17.9766 7.00781Z" fill="white"/>
</svg>
