<svg width="52" height="52" viewBox="0 0 52 52" fill="none" xmlns="http://www.w3.org/2000/svg">
<path d="M4.37034 43.1226C4.44358 43.1219 4.51682 43.1211 4.59228 43.1203C4.83835 43.1182 5.08437 43.1182 5.33045 43.1182C5.50662 43.1171 5.68278 43.1159 5.85894 43.1146C6.33802 43.1115 6.81708 43.1103 7.29616 43.1098C7.5954 43.1093 7.89464 43.1085 8.19389 43.1075C9.23768 43.104 10.2815 43.1023 11.3253 43.102C12.2985 43.1017 13.2716 43.0976 14.2448 43.0917C15.0801 43.0869 15.9154 43.0848 16.7507 43.0848C17.2497 43.0847 17.7486 43.0835 18.2476 43.0796C18.717 43.0759 19.1864 43.0757 19.6558 43.0781C19.828 43.0784 20.0002 43.0774 20.1724 43.0752C21.4794 43.0593 21.4794 43.0593 21.8654 43.3245C22.0164 43.5013 22.1264 43.6741 22.2413 43.875C22.5309 44.0198 22.7789 43.9919 23.1027 43.9945C23.204 43.9955 23.204 43.9955 23.3074 43.9966C23.5314 43.9986 23.7554 43.9997 23.9793 44.0008C24.0941 44.0014 24.0941 44.0014 24.2111 44.002C24.6161 44.0041 25.021 44.0056 25.4259 44.0065C25.8439 44.0077 26.2619 44.0112 26.6799 44.0152C27.0015 44.0178 27.3231 44.0187 27.6447 44.0191C27.7988 44.0196 27.9529 44.0207 28.1069 44.0226C28.3228 44.0251 28.5386 44.025 28.7545 44.0243C28.9386 44.0252 28.9386 44.0252 29.1265 44.0261C29.5209 43.9661 29.678 43.8476 29.96 43.5703C30.0204 43.4644 30.0204 43.4644 30.0819 43.3563C30.2647 43.1641 30.2647 43.1641 30.5821 43.1132C30.7799 43.1132 30.7799 43.1132 30.9818 43.1132C31.0552 43.1126 31.1287 43.112 31.2044 43.1115C31.4512 43.1101 31.6979 43.1116 31.9447 43.1131C32.1213 43.1127 32.298 43.1122 32.4746 43.1114C32.955 43.11 33.4352 43.1112 33.9156 43.1128C34.4176 43.1142 34.9197 43.1136 35.4218 43.1132C36.265 43.113 37.1082 43.1143 37.9514 43.1167C38.927 43.1194 39.9026 43.1196 40.8782 43.1184C41.8158 43.1173 42.7533 43.1179 43.6909 43.1193C44.0903 43.1199 44.4897 43.1199 44.8892 43.1194C45.3594 43.1189 45.8295 43.12 46.2997 43.1222C46.4725 43.1227 46.6453 43.1228 46.8181 43.1223C47.0535 43.1217 47.2888 43.1229 47.5242 43.1247C47.6561 43.1249 47.788 43.1252 47.9239 43.1254C48.2413 43.1641 48.2413 43.1641 48.436 43.3C48.6122 43.5704 48.5855 43.8178 48.5864 44.1364C48.5868 44.2693 48.5872 44.4021 48.5876 44.5389C48.587 44.6082 48.5863 44.6775 48.5857 44.7489C48.5841 44.958 48.5857 45.1669 48.5876 45.376C48.5845 46.4295 48.4755 47.1628 47.7442 47.955C47.1104 48.5053 46.3696 48.7624 45.5425 48.7636C45.474 48.7639 45.4056 48.7641 45.335 48.7644C45.104 48.765 44.8729 48.765 44.6418 48.7649C44.4751 48.7653 44.3084 48.7657 44.1417 48.7661C43.6823 48.7671 43.223 48.7675 42.7636 48.7677C42.2686 48.7681 41.7737 48.7691 41.2787 48.77C40.0827 48.772 38.8866 48.773 37.6906 48.7739C37.1275 48.7744 36.5645 48.7749 36.0014 48.7755C34.1299 48.7772 32.2583 48.7787 30.3868 48.7794C29.901 48.7796 29.4152 48.7798 28.9294 48.78C28.7482 48.78 28.7482 48.78 28.5634 48.7801C26.6073 48.781 24.6512 48.7835 22.6951 48.7868C20.6874 48.7902 18.6796 48.792 16.6719 48.7923C15.5444 48.7926 14.4169 48.7935 13.2894 48.7961C12.3292 48.7983 11.369 48.7991 10.4087 48.7981C9.91883 48.7976 9.42896 48.7978 8.93908 48.7998C8.4903 48.8016 8.04156 48.8015 7.59279 48.7999C7.43073 48.7997 7.26867 48.8001 7.10662 48.8013C5.89332 48.8098 4.93877 48.6777 4.03025 47.8224C3.31416 47.0319 3.3291 46.2125 3.32626 45.1999C3.32527 44.9862 3.32211 44.7725 3.31892 44.5588C3.31825 44.4227 3.31772 44.2867 3.31733 44.1507C3.31638 44.0273 3.31543 43.9038 3.31445 43.7766C3.35065 43.4687 3.35065 43.4687 3.46057 43.2998C3.7579 43.0926 4.01095 43.1244 4.37034 43.1226ZM4.46784 44.2812C4.45291 44.6028 4.44401 44.9243 4.4361 45.2461C4.43185 45.3362 4.42759 45.4262 4.42321 45.519C4.41097 46.1848 4.51513 46.6325 4.97565 47.125C5.78383 47.7245 6.66143 47.7045 7.62255 47.6966C7.78742 47.6971 7.95228 47.6979 8.11714 47.6988C8.56819 47.7007 9.01917 47.6995 9.47021 47.6977C9.9574 47.6963 10.4446 47.6979 10.9318 47.6991C11.8854 47.701 12.8389 47.7001 13.7925 47.6983C14.5676 47.6969 15.3426 47.6965 16.1177 47.6968C16.228 47.6969 16.3384 47.6969 16.4521 47.697C16.6764 47.6971 16.9006 47.6972 17.1248 47.6973C19.1068 47.6981 21.0888 47.6965 23.0708 47.6934C24.9936 47.6905 26.9163 47.6898 28.839 47.6914C30.9335 47.6931 33.028 47.6935 35.1224 47.6917C35.3458 47.6915 35.5692 47.6913 35.7926 47.6911C35.9574 47.691 35.9574 47.691 36.1256 47.6908C36.8997 47.6903 37.6737 47.6906 38.4478 47.6913C39.3912 47.6921 40.3346 47.6914 41.278 47.6888C41.7592 47.6876 42.2404 47.6869 42.7217 47.6881C43.1624 47.6891 43.6031 47.6882 44.0438 47.6859C44.203 47.6854 44.3623 47.6855 44.5215 47.6864C45.7271 47.6947 45.7271 47.6947 46.8194 47.2266C47.26 46.7859 47.4395 46.3577 47.4486 45.7392C47.4473 45.5643 47.4449 45.3893 47.4415 45.2144C47.4401 45.0797 47.4401 45.0797 47.4387 44.9424C47.4363 44.722 47.4327 44.5016 47.4288 44.2812C45.2791 44.2694 43.1294 44.2604 40.9797 44.2549C39.9816 44.2523 38.9834 44.2487 37.9853 44.2429C37.1154 44.2379 36.2455 44.2346 35.3756 44.2335C34.9149 44.2328 34.4543 44.2312 33.9936 44.2276C33.5601 44.2241 33.1266 44.223 32.693 44.2238C32.5338 44.2237 32.3747 44.2227 32.2155 44.2207C31.9982 44.2182 31.781 44.2188 31.5636 44.2202C31.442 44.2197 31.3204 44.2192 31.1951 44.2188C30.7811 44.2994 30.6397 44.4768 30.3663 44.7891C29.9011 45.081 29.5467 45.1325 29.0014 45.1348C28.8918 45.1358 28.8918 45.1358 28.7799 45.1369C28.5398 45.1387 28.2998 45.1384 28.0597 45.1378C27.8917 45.1382 27.7238 45.1388 27.5558 45.1394C27.2043 45.1403 26.8527 45.1401 26.5012 45.139C26.0522 45.1379 25.6033 45.1399 25.1544 45.1429C24.8076 45.1448 24.4608 45.1447 24.114 45.1442C23.9486 45.1441 23.7831 45.1447 23.6177 45.146C21.9883 45.1567 21.9883 45.1567 21.3272 44.6875C21.2841 44.6168 21.241 44.5462 21.1966 44.4733C21.0315 44.2514 21.0315 44.2514 20.7265 44.2313C20.6047 44.2316 20.4829 44.232 20.3574 44.2324C20.2895 44.232 20.2217 44.2317 20.1518 44.2313C19.9239 44.2307 19.6961 44.2329 19.4683 44.2351C19.3051 44.2352 19.142 44.2352 18.9788 44.2349C18.5355 44.2348 18.0921 44.2372 17.6488 44.2401C17.1856 44.2426 16.7224 44.2428 16.2593 44.2433C15.382 44.2446 14.5047 44.2479 13.6274 44.252C12.6288 44.2565 11.6301 44.2588 10.6314 44.2608C8.57688 44.2651 6.52236 44.2722 4.46784 44.2812Z" fill="white" stroke="white" stroke-width="0.5"/>
<path d="M21.8806 28.7168C22 28.7252 22.1194 28.7336 22.2425 28.7422C22.4997 29.128 22.5022 29.414 22.4456 29.8594C22.2391 30.788 21.7633 31.5774 20.954 32.1035C20.3622 32.4478 19.78 32.7204 19.094 32.8047C19.094 32.8717 19.094 32.9387 19.094 33.0078C19.1827 33.0508 19.1827 33.0508 19.2732 33.0946C19.4844 33.2028 19.6823 33.3198 19.8827 33.4466C22.6743 35.299 22.6743 35.299 25.8166 35.9178C27.8846 35.4375 30.3771 34.3185 31.8909 32.8047C31.8 32.7713 31.7092 32.7379 31.6156 32.7035C30.4484 32.2444 29.5671 31.6803 29.0309 30.4953C28.8912 30.1191 28.8283 29.7916 28.825 29.3896C28.8235 29.3108 28.8221 29.232 28.8206 29.1508C28.844 28.9453 28.844 28.9453 29.0472 28.7422C29.4026 28.7168 29.4026 28.7168 29.7581 28.7422C30 28.9841 30.0003 29.09 30.0501 29.4214C30.1882 30.1634 30.4556 30.6291 31.0784 31.0781C32.0502 31.5737 33.0909 31.8932 34.1316 32.208C34.2706 32.2507 34.4095 32.2934 34.5484 32.3362C35.3351 32.5781 35.3351 32.5781 36.1244 32.8115C37.2751 33.1492 38.0593 33.6497 38.7527 34.6447C39.2137 35.5692 39.2507 36.4485 39.2415 37.4702C39.2427 37.6036 39.2438 37.7369 39.2451 37.8743C39.2447 38.0016 39.2443 38.1289 39.2439 38.2601C39.2435 38.3754 39.2432 38.4908 39.2428 38.6096C39.2034 38.8984 39.2034 38.8984 39.0715 39.0919C38.8987 39.2031 38.8987 39.2031 38.5306 39.1841C38.4174 39.1569 38.3043 39.1296 38.1878 39.1016C38.0547 38.8355 38.0699 38.6308 38.0648 38.3331C38.0619 38.2187 38.059 38.1044 38.0561 37.9866C38.0508 37.7467 38.0463 37.5068 38.0426 37.2669C38.0132 36.1891 37.8575 35.4219 37.1011 34.6269C36.7218 34.3068 36.3229 34.1631 35.8518 34.0234C35.756 33.9933 35.6602 33.9632 35.5614 33.9322C35.3204 33.858 35.0788 33.7876 34.8362 33.7188C34.8314 33.7789 34.8266 33.839 34.8216 33.901C34.7534 34.6666 34.6138 35.4094 34.4589 36.1616C34.3335 36.8089 34.2796 37.317 34.5379 37.9399C34.6556 38.2462 34.6685 38.4714 34.6331 38.7969C34.5252 38.9937 34.5252 38.9937 34.3284 39.1016C33.9856 39.146 33.9856 39.146 33.6175 39C32.7743 37.7279 33.1456 36.309 33.4143 34.9185C33.4438 34.7621 33.4731 34.6057 33.5024 34.4493C33.5736 34.0702 33.6459 33.6913 33.719 33.3125C33.2341 33.3911 32.9959 33.5567 32.6145 33.8711C31.9054 34.4373 31.1576 34.8997 30.3675 35.3438C30.2994 35.3824 30.2313 35.421 30.1611 35.4608C28.4782 36.4087 26.3789 37.5886 24.4086 37.0521C22.1627 36.3757 19.7849 35.2211 18.0498 33.6196C17.7939 33.3789 17.7939 33.3789 17.5026 33.452C17.4245 33.473 17.3464 33.494 17.2659 33.5156C17.2844 33.6098 17.3028 33.704 17.3218 33.8011C17.3906 34.1538 17.4586 34.5066 17.5263 34.8595C17.5555 35.0117 17.5851 35.1638 17.6149 35.3158C17.658 35.5355 17.7001 35.7554 17.742 35.9753C17.7553 36.0422 17.7686 36.1091 17.7824 36.1781C17.9241 36.933 17.9274 37.5556 17.6341 38.2764C17.5893 38.3892 17.5445 38.5021 17.4984 38.6183C17.3675 38.8984 17.3675 38.8984 17.1643 39.1016C16.8597 39.127 16.8597 39.127 16.555 39.1016C16.3518 38.8984 16.3518 38.8984 16.3201 38.543C16.3252 38.2023 16.3967 37.9527 16.5208 37.6372C16.7335 36.9521 16.5745 36.3525 16.4217 35.6675C16.3709 35.4257 16.3205 35.1838 16.2705 34.9419C16.2473 34.8361 16.2241 34.7303 16.2002 34.6214C16.152 34.3469 16.1389 34.0981 16.1487 33.8203C14.6381 34.2244 14.6381 34.2244 13.6104 35.3275C13.3793 35.823 13.2799 36.2584 13.2736 36.8049C13.2711 36.9253 13.2685 37.0457 13.2659 37.1697C13.2623 37.422 13.2591 37.6743 13.2564 37.9267C13.2537 38.0466 13.251 38.1666 13.2482 38.2903C13.2469 38.3997 13.2455 38.5091 13.2441 38.6218C13.2034 38.8984 13.2034 38.8984 13.0713 39.0904C12.8987 39.2031 12.8987 39.2031 12.5306 39.1777C12.1878 39.1016 12.1878 39.1016 12.0862 39C12.0589 38.57 12.0586 38.1393 12.0562 37.7085C12.0545 37.4936 12.0501 37.2789 12.0456 37.064C12.0321 35.9004 12.2314 34.938 12.9986 34.0281C13.7474 33.2683 14.5928 32.9431 15.6028 32.6587C15.798 32.6008 15.9931 32.5429 16.1882 32.4847C16.3854 32.426 16.5828 32.3679 16.7802 32.3098C17.3599 32.137 17.9354 31.9526 18.51 31.7637C18.6071 31.7327 18.7042 31.7018 18.8043 31.6699C19.5967 31.4086 20.4717 31.1121 20.9222 30.3672C21.0984 29.9739 21.2253 29.5694 21.3411 29.1548C21.4574 28.7476 21.4574 28.7476 21.8806 28.7168Z" fill="white" stroke="white" stroke-width="0.5"/>
<path d="M31.164 11.1175C33.0126 12.5658 34.1865 14.5668 34.5893 16.8832C34.7866 18.581 34.6255 20.352 34.5634 22.0561C34.5553 22.2807 34.5477 22.5053 34.5405 22.73C34.53 23.0509 34.5176 23.3718 34.5048 23.6926C34.502 23.7887 34.4991 23.8848 34.4961 23.9838C34.4604 24.7924 34.3308 25.6242 33.7197 26.2031C33.3073 26.4994 32.9232 26.7674 32.3994 26.6983C32.0947 26.6094 32.0947 26.6094 31.9931 26.5078C31.9551 26.165 31.9551 26.165 31.9931 25.7969C32.2153 25.6255 32.2153 25.6255 32.501 25.4922C32.9467 25.1916 33.0829 24.9967 33.2119 24.4766C33.2513 24.0728 33.2639 23.6692 33.2762 23.2638C33.2825 23.0872 33.2825 23.0872 33.289 22.907C33.3022 22.531 33.3142 22.1549 33.3261 21.7788C33.3349 21.5285 33.3438 21.2783 33.3527 21.028C33.3611 20.7851 33.3695 20.5423 33.3777 20.2994C33.3815 20.1882 33.3853 20.0769 33.3893 19.9623C33.4638 17.6076 33.3383 15.4105 31.79 13.5078C31.7234 13.4235 31.6567 13.3392 31.5881 13.2523C30.3219 11.7431 28.551 10.9039 26.6103 10.6641C25.3661 10.5726 23.8567 10.6307 22.8525 11.4766C22.7607 11.6259 22.6741 11.7786 22.5923 11.9336C22.2723 12.4752 21.8165 12.5626 21.2453 12.7153C20.0524 13.0393 19.1459 13.7541 18.5139 14.817C17.4227 16.9032 17.6397 18.9685 17.922 21.2265C17.965 21.5706 18.0065 21.9149 18.0477 22.2593C18.0748 22.4808 18.1019 22.7023 18.1291 22.9238C18.1413 23.0254 18.1536 23.1269 18.1663 23.2316C18.2715 24.4728 18.2715 24.4728 18.8916 25.4922C19.1246 25.6138 19.3556 25.7037 19.6025 25.7969C19.7041 25.8984 19.7041 25.8984 19.7295 26.2476C19.7211 26.367 19.7127 26.4864 19.7041 26.6094C19.3275 26.8605 19.1638 26.8391 18.7305 26.7784C18.1597 26.6214 17.79 26.2705 17.459 25.7933C17.2019 25.3185 17.1382 24.8217 17.0635 24.2925C17.0473 24.1837 17.0311 24.075 17.0144 23.9629C16.9606 23.5927 16.9101 23.2223 16.8603 22.8516C16.851 22.7832 16.8417 22.7148 16.832 22.6443C15.9408 16.1126 15.9408 16.1126 17.9775 13.4063C18.8842 12.3515 19.8804 11.7236 21.2275 11.375C21.3281 11.375 21.4286 11.375 21.5322 11.375C21.549 11.3059 21.5657 11.2368 21.583 11.1655C21.968 10.4115 22.6725 10.0632 23.4294 9.75437C26.0425 8.93354 28.9718 9.52008 31.164 11.1175Z" fill="white" stroke="white" stroke-width="0.5"/>
<path d="M46.195 4.46875C47.2184 5.25486 47.8876 6.21214 48.3441 7.41406C48.3766 7.49562 48.409 7.57719 48.4425 7.66122C48.9476 9.16002 48.7603 10.9624 48.0734 12.3611C47.227 13.999 45.9408 15.0217 44.2078 15.6374C43.0102 15.9938 41.7245 15.9459 40.5238 15.6406C40.1151 15.6837 39.8396 15.828 39.4955 16.0469C38.8521 16.4536 38.3808 16.4717 37.6356 16.4722C37.5387 16.4734 37.4417 16.4747 37.3418 16.4759C37.2483 16.4761 37.1547 16.4763 37.0584 16.4765C36.9731 16.4769 36.8878 16.4774 36.7999 16.4778C36.538 16.4505 36.377 16.3932 36.1566 16.25C36.036 15.9834 36.036 15.9834 36.055 15.6406C36.2619 15.3416 36.5153 15.0905 36.766 14.8281C37.1131 14.4118 37.3514 14.0626 37.3754 13.5078C37.2253 13.195 37.2253 13.195 37.0008 12.8921C36.0568 11.4802 35.8596 9.77772 36.163 8.125C36.5442 6.55435 37.4469 5.21675 38.783 4.29617C41.1738 2.84336 43.8842 2.84129 46.195 4.46875ZM38.391 6.19531C37.4912 7.35878 37.0254 8.71321 37.2 10.1876C37.3648 11.1594 37.7138 11.9983 38.3339 12.7651C38.6893 13.2311 38.6893 13.2311 38.7167 13.5491C38.6679 13.7927 38.5968 13.9934 38.4925 14.2187C38.4584 14.2935 38.4242 14.3683 38.389 14.4453C38.3217 14.5837 38.2516 14.7208 38.1779 14.8559C38.0719 15.0474 38.0719 15.0474 37.9847 15.3359C38.6535 15.2707 39.1345 15.0038 39.597 14.5361C39.9144 14.3203 39.9144 14.3203 40.1235 14.3263C40.3636 14.3799 40.5943 14.4481 40.8285 14.5234C42.2432 14.9156 43.6477 14.7705 44.9477 14.0735C46.2714 13.2221 47.1165 12.0357 47.4923 10.5133C47.7198 9.03358 47.358 7.62855 46.516 6.39843C45.7298 5.39025 44.4605 4.58647 43.1767 4.38504C41.2903 4.2287 39.6864 4.79158 38.391 6.19531Z" fill="white" stroke="white" stroke-width="0.5"/>
<path d="M24.1651 13.165C26.3569 13.2071 28.722 14.0573 30.3208 15.5684C31.0868 16.4149 31.6886 17.3791 31.9918 18.4844C32.0143 18.5528 32.0368 18.6213 32.06 18.6919C32.6143 20.6281 32.0403 22.8584 31.1154 24.5817C30.7049 25.259 30.2088 25.8413 29.6559 26.4062C29.6034 26.4624 29.5509 26.5186 29.4968 26.5764C28.7002 27.3481 27.405 27.9464 26.3043 28.0312C26.1792 28.0434 26.1792 28.0434 26.0516 28.0558C24.4477 28.1366 23.0134 27.5046 21.8102 26.4824C20.2877 25.0379 19.3471 22.9721 19.2759 20.8723C19.2537 19.5011 19.3667 18.4022 20.3129 17.3418C20.893 16.7435 21.5274 16.2312 22.2101 15.7549C22.8437 15.1727 23.1362 14.4747 23.3733 13.6606C23.5296 13.2049 23.7147 13.1714 24.1651 13.165ZM24.4762 14.3203C24.4355 14.4112 24.3947 14.502 24.3528 14.5956C23.7777 15.837 23.0157 16.652 21.9338 17.4786C21.1091 18.1122 20.5923 18.7566 20.4137 19.8047C20.2415 21.5969 20.8432 23.4021 21.9244 24.8193C22.8089 25.8529 23.8574 26.6814 25.2387 26.8954C26.6432 26.9989 27.7879 26.495 28.8434 25.5938C30.324 24.1964 30.9519 22.3045 31.1095 20.3188C31.0544 18.6896 30.3624 17.4691 29.3131 16.2817C27.9213 15.0557 26.2629 14.615 24.4762 14.3203Z" fill="white" stroke="white" stroke-width="0.5"/>
<path d="M11.2541 39.8885C11.358 39.888 11.4619 39.8874 11.569 39.8869C11.6841 39.8873 11.7991 39.8878 11.9177 39.8883C12.0392 39.8879 12.1608 39.8876 12.286 39.8873C12.6244 39.8866 12.9629 39.8869 13.3013 39.8875C13.6659 39.888 14.0305 39.8873 14.395 39.8867C15.1097 39.8858 15.8243 39.886 16.5389 39.8866C17.1195 39.887 17.7001 39.8871 18.2806 39.8869C18.3631 39.8868 18.4456 39.8868 18.5306 39.8868C18.6982 39.8867 18.8658 39.8867 19.0334 39.8866C20.6063 39.886 22.1792 39.8867 23.7521 39.8878C25.103 39.8887 26.4538 39.8885 27.8046 39.8876C29.3718 39.8865 30.9389 39.8861 32.506 39.8867C32.673 39.8867 32.84 39.8868 33.007 39.8869C33.0891 39.8869 33.1713 39.8869 33.2559 39.887C33.8361 39.8871 34.4163 39.8868 34.9964 39.8864C35.703 39.8858 36.4097 39.886 37.1163 39.887C37.4771 39.8876 37.8379 39.8878 38.1987 39.8871C38.5891 39.8864 38.9795 39.8872 39.3699 39.8883C39.485 39.8878 39.6 39.8874 39.7186 39.8869C39.8225 39.8874 39.9265 39.888 40.0335 39.8885C40.1689 39.8885 40.1689 39.8885 40.3069 39.8886C40.5227 39.9141 40.5227 39.9141 40.7258 40.1172C40.7639 40.4155 40.7639 40.4155 40.7258 40.7266C40.4307 41.0142 40.2181 41.0694 39.8123 41.0696C39.7095 41.0704 39.6067 41.0712 39.5008 41.072C39.3881 41.0713 39.2753 41.0706 39.1592 41.0699C38.9793 41.0706 38.9793 41.0706 38.7958 41.0714C38.4628 41.0724 38.1299 41.072 37.7969 41.0711C37.4379 41.0704 37.0788 41.0714 36.7198 41.0723C36.0164 41.0736 35.313 41.0733 34.6096 41.0725C34.0381 41.0718 33.4665 41.0717 32.8949 41.072C32.773 41.0721 32.773 41.0721 32.6486 41.0722C32.4835 41.0723 32.3183 41.0724 32.1532 41.0725C30.6041 41.0733 29.055 41.0723 27.5059 41.0707C26.1762 41.0693 24.8464 41.0696 23.5167 41.071C21.9732 41.0726 20.4297 41.0732 18.8863 41.0723C18.7217 41.0722 18.5572 41.0721 18.3927 41.072C18.3117 41.072 18.2308 41.0719 18.1474 41.0719C17.5764 41.0716 17.0054 41.0721 16.4343 41.0728C15.7387 41.0736 15.043 41.0734 14.3473 41.0718C13.9922 41.071 13.6371 41.0707 13.2821 41.0717C12.8975 41.0725 12.513 41.0715 12.1284 41.0699C12.0157 41.0706 11.9029 41.0713 11.7868 41.072C11.684 41.0712 11.5812 41.0704 11.4753 41.0696C11.3865 41.0695 11.2977 41.0695 11.2062 41.0694C10.9134 41.0225 10.7731 40.9325 10.5618 40.7266C10.5237 40.4155 10.5237 40.4155 10.5618 40.1172C10.8176 39.8613 10.9002 39.8886 11.2541 39.8885Z" fill="white" stroke="white" stroke-width="0.5"/>
<path d="M9.74847 17.7571C9.8759 17.7561 10.0033 17.7551 10.1346 17.7541C10.2743 17.7536 10.414 17.7532 10.5536 17.7528C10.6963 17.7522 10.839 17.7516 10.9817 17.7511C11.2808 17.75 11.58 17.7494 11.8791 17.749C12.263 17.7485 12.6469 17.746 13.0308 17.7432C13.3255 17.7413 13.6201 17.7407 13.9148 17.7406C14.0563 17.7403 14.1979 17.7394 14.3395 17.7381C14.5372 17.7364 14.7348 17.7368 14.9325 17.7372C15.0451 17.7369 15.1577 17.7365 15.2737 17.7361C15.3615 17.7484 15.4493 17.7607 15.5397 17.7734C15.7578 18.1006 15.7998 18.206 15.7428 18.5859C15.4291 18.8922 15.1974 18.9285 14.7671 18.9281C14.6529 18.9288 14.5386 18.9295 14.421 18.9302C14.298 18.9296 14.1751 18.929 14.0484 18.9283C13.7882 18.9301 13.528 18.9319 13.2678 18.9337C12.8575 18.935 12.4472 18.9351 12.0369 18.9349C11.641 18.9349 11.2451 18.938 10.8492 18.941C10.6651 18.9398 10.6651 18.9398 10.4773 18.9385C10.3627 18.9395 10.2482 18.9405 10.1301 18.9416C10.0297 18.9416 9.92917 18.9415 9.82564 18.9415C9.46787 19.0067 9.2974 19.1463 9.03971 19.3984C8.9111 19.7843 8.92394 20.1455 8.92482 20.5474C8.9246 20.6346 8.92439 20.7217 8.92417 20.8115C8.92356 21.1046 8.92366 21.3976 8.92375 21.6907C8.92344 21.9004 8.92308 22.1101 8.92268 22.3198C8.92187 22.7718 8.92135 23.2239 8.92102 23.6759C8.92042 24.3902 8.91874 25.1045 8.91682 25.8187C8.91618 26.0631 8.91554 26.3074 8.9149 26.5517C8.91457 26.6741 8.91425 26.7965 8.91392 26.9225C8.90964 28.5859 8.9063 30.2493 8.90505 31.9126C8.9042 33.0341 8.90192 34.1556 8.89801 35.277C8.89599 35.8708 8.89474 36.4646 8.89525 37.0585C8.89572 37.6167 8.89433 38.1748 8.89149 38.733C8.89078 38.9383 8.89078 39.1435 8.89151 39.3488C8.8924 39.6282 8.89083 39.9075 8.88862 40.187C8.88947 40.2689 8.89033 40.3507 8.89121 40.4351C8.88318 40.9806 8.88318 40.9806 8.64688 41.2376C8.36175 41.3671 8.21537 41.3346 7.92253 41.2344C7.66135 40.9732 7.69439 40.7991 7.69129 40.4431C7.6916 40.3601 7.69192 40.2772 7.69224 40.1917C7.69178 40.1038 7.69132 40.016 7.69085 39.9254C7.68956 39.6292 7.68973 39.3331 7.6899 39.0369C7.68929 38.8252 7.6886 38.6135 7.68783 38.4018C7.68603 37.8254 7.68556 37.2489 7.68543 36.6725C7.68524 36.1914 7.68449 35.7104 7.68377 35.2294C7.68211 34.0941 7.68162 32.9589 7.68176 31.8236C7.68188 30.6527 7.67974 29.4818 7.67653 28.3109C7.67388 27.306 7.67279 26.3011 7.67292 25.2961C7.67297 24.6958 7.67239 24.0955 7.67024 23.4952C7.66827 22.9301 7.66826 22.365 7.66974 21.7999C7.66995 21.5928 7.66947 21.3856 7.66824 21.1785C7.66667 20.8951 7.66762 20.6117 7.66918 20.3283C7.66814 20.2469 7.66709 20.1655 7.66602 20.0817C7.67427 19.4011 7.85614 18.7651 8.33592 18.2654C8.40478 18.2203 8.47365 18.1753 8.5446 18.1289C8.61399 18.0818 8.68337 18.0346 8.75486 17.9861C9.10888 17.7715 9.33232 17.7596 9.74847 17.7571Z" fill="white" stroke="white" stroke-width="0.5"/>
<path d="M36.5219 17.7439C36.6413 17.7426 36.7607 17.7413 36.8837 17.74C37.0782 17.7397 37.0782 17.7397 37.2767 17.7393C37.4097 17.7386 37.5428 17.738 37.6798 17.7373C37.9621 17.7361 38.2443 17.7357 38.5266 17.7358C38.8866 17.7358 39.2464 17.7331 39.6064 17.7295C39.9512 17.7267 40.2961 17.7269 40.6409 17.7266C40.8336 17.7244 40.8336 17.7244 41.0302 17.7222C41.7561 17.7259 42.2443 17.7822 42.8586 18.1797C43.0677 18.4086 43.0677 18.4086 43.2078 18.6431C43.2558 18.7207 43.3039 18.7983 43.3534 18.8783C43.5949 19.3322 43.5846 19.749 43.5845 20.2498C43.5849 20.3376 43.5853 20.4255 43.5857 20.5161C43.5868 20.8118 43.5872 21.1074 43.5876 21.4031C43.5882 21.6146 43.5889 21.8261 43.5896 22.0376C43.5913 22.613 43.5924 23.1884 43.5933 23.7637C43.5938 24.1229 43.5944 24.4821 43.595 24.8413C43.597 25.9644 43.5984 27.0874 43.5993 28.2105C43.6003 29.5084 43.6029 30.8063 43.607 32.1042C43.6101 33.1065 43.6116 34.1089 43.6119 35.1112C43.6122 35.7103 43.6131 36.3094 43.6156 36.9085C43.618 37.4718 43.6184 38.0351 43.6174 38.5984C43.6173 38.8054 43.618 39.0124 43.6194 39.2194C43.6212 39.5014 43.6205 39.7834 43.6191 40.0655C43.6202 40.1479 43.6213 40.2302 43.6225 40.3151C43.6183 40.68 43.5991 40.8896 43.38 41.1876C43.1633 41.3359 43.1633 41.3359 42.8967 41.3232C42.6555 41.2344 42.6555 41.2344 42.4524 41.0312C42.4322 40.751 42.4248 40.4809 42.4262 40.2005C42.4258 40.1136 42.4254 40.0267 42.425 39.9372C42.424 39.6442 42.4244 39.3513 42.4248 39.0584C42.4244 38.8491 42.4239 38.6397 42.4232 38.4304C42.4221 37.9787 42.4215 37.5271 42.4214 37.0754C42.4212 36.3615 42.4194 35.6476 42.4173 34.9337C42.4123 33.1602 42.4091 31.3866 42.407 29.6131C42.4053 28.2356 42.403 26.8581 42.3986 25.4806C42.3963 24.7707 42.3955 24.0608 42.3958 23.3508C42.3956 22.9093 42.3942 22.4677 42.3924 22.0262C42.3918 21.8212 42.3918 21.6162 42.3923 21.4112C42.3929 21.1316 42.3917 20.8521 42.39 20.5725C42.3909 20.4505 42.3909 20.4505 42.3919 20.3259C42.3867 19.8635 42.3369 19.5606 42.0461 19.1953C41.7069 18.9692 41.5965 18.9664 41.2005 18.9646C41.09 18.9636 40.9795 18.9626 40.8657 18.9615C40.6867 18.9612 40.6867 18.9612 40.5041 18.9608C40.2523 18.9583 40.0006 18.9557 39.7489 18.9531C39.3513 18.9502 38.9536 18.9477 38.556 18.9458C38.1728 18.9436 37.7896 18.9396 37.4064 18.9355C37.2277 18.9354 37.2277 18.9354 37.0454 18.9354C36.8792 18.9334 36.8792 18.9334 36.7096 18.9313C36.5635 18.9305 36.5635 18.9305 36.4144 18.9298C36.1088 18.8836 35.9679 18.8024 35.7493 18.5859C35.7112 18.2749 35.7112 18.2749 35.7493 17.9766C36.0186 17.7072 36.1458 17.7467 36.5219 17.7439Z" fill="white" stroke="white" stroke-width="0.5"/>
<path d="M42.459 6.21436C42.7574 6.29688 42.7574 6.29688 42.9605 6.60157C42.9929 6.91585 42.9929 6.91585 43.0025 7.29783C43.0045 7.36503 43.0065 7.43222 43.0085 7.50146C43.0146 7.71564 43.0193 7.92983 43.024 8.14405C43.0278 8.28945 43.0318 8.43486 43.0359 8.58025C43.0456 8.9363 43.0542 9.29236 43.0621 9.64845C43.4653 9.27866 43.5293 9.0511 43.6016 8.50587C43.7164 7.80805 43.9145 7.34388 44.4839 6.90626C44.935 6.61486 45.373 6.55034 45.9058 6.60157C46.0064 6.6686 46.1069 6.73563 46.2105 6.8047C46.2422 7.16016 46.2422 7.16016 46.2105 7.51563C45.9401 7.78598 45.668 7.83134 45.306 7.93418C45.0584 8.01509 45.0584 8.01509 44.8902 8.32813C44.8593 8.53687 44.8347 8.74656 44.814 8.95655C44.7213 9.59693 44.5658 10.0262 44.0777 10.4609C43.7099 10.705 43.4058 10.8672 42.9605 10.8672C42.9605 11.4034 42.9605 11.9397 42.9605 12.4922C43.1951 12.4922 43.4297 12.4922 43.6714 12.4922C43.8809 12.6572 43.8809 12.6572 43.9761 12.8984C43.9063 13.2222 43.9063 13.2222 43.773 13.5078C43.3554 13.7166 42.8164 13.6326 42.3575 13.6348C42.2447 13.6369 42.1319 13.639 42.0157 13.6411C41.9076 13.6416 41.7995 13.6422 41.6882 13.6427C41.589 13.6437 41.4897 13.6446 41.3875 13.6456C41.1324 13.6094 41.1324 13.6094 40.9473 13.4744C40.7641 13.2145 40.7949 13.0037 40.8277 12.6953C40.8947 12.6283 40.9617 12.5613 41.0308 12.4922C41.2989 12.4922 41.5671 12.4922 41.8433 12.4922C41.8433 11.9559 41.8433 11.4197 41.8433 10.8672C41.6422 10.8337 41.4411 10.8002 41.2339 10.7656C40.7811 10.5491 40.4287 10.2207 40.1937 9.77341C40.0572 9.37151 40.0285 8.95138 39.9934 8.53007C39.8907 8.13929 39.7429 8.03274 39.4058 7.82032C39.2078 7.73285 39.2078 7.73285 39.0186 7.69337C38.9118 7.66823 38.8049 7.64309 38.6949 7.6172C38.5611 6.97277 38.5611 6.97277 38.6885 6.70948C39.0936 6.50081 39.498 6.54199 39.9227 6.66108C40.5233 6.91235 40.8715 7.33206 41.1324 7.92188C41.1971 8.23484 41.2389 8.53797 41.2629 8.85658C41.3589 9.23202 41.5663 9.38613 41.8433 9.64845C41.8417 9.55106 41.8401 9.45367 41.8385 9.35333C41.833 8.99258 41.8295 8.63183 41.8266 8.27105C41.825 8.1148 41.823 7.95856 41.8203 7.80232C41.8166 7.57794 41.8149 7.35362 41.8136 7.12922C41.812 7.05918 41.8104 6.98914 41.8088 6.91697C41.8087 6.71985 41.8087 6.71985 41.8433 6.39845C42.148 6.19532 42.148 6.19532 42.459 6.21436Z" fill="white" stroke="white" stroke-width="0.5"/>
</svg>
