<svg width="32" height="32" viewBox="0 0 32 32" fill="none" xmlns="http://www.w3.org/2000/svg">
<path d="M16.6521 6.55878H20.1846L14.7778 0.871094V4.67722C14.7778 5.70828 15.6141 6.55884 16.6521 6.55884L16.6521 6.55878ZM20.2493 14.7698C15.4988 14.7698 11.6348 18.6335 11.6348 23.3843C11.6348 28.1348 15.4988 31.9988 20.2493 31.9988C25 31.9988 28.864 28.1348 28.864 23.3843C28.864 18.6335 25 14.7698 20.2493 14.7698ZM24.8775 24.1197L20.6531 28.6538C20.545 28.7693 20.3936 28.8342 20.2278 28.8342C20.062 28.8342 19.9178 28.7693 19.8096 28.6538L15.5925 24.1197C15.3763 23.8889 15.3906 23.5212 15.6213 23.3049C15.8521 23.0887 16.2268 23.103 16.4431 23.3337L19.6726 26.794V18.5542C19.6726 18.237 19.9321 17.9775 20.2493 17.9775C20.5666 17.9775 20.8261 18.237 20.8261 18.5542V26.794L24.0413 23.3337C24.2576 23.103 24.618 23.0887 24.8486 23.305C25.0865 23.5212 25.0938 23.8816 24.8775 24.1197Z" fill="black"/>
<path d="M10.7917 20.9055H4.52712C4.20994 20.9055 3.95044 20.6462 3.95044 20.3289C3.95044 20.0117 4.20994 19.7522 4.52712 19.7522H11.1737C11.5412 18.8152 12.0314 18.022 12.6371 17.2291H4.52712C4.20994 17.2291 3.95044 16.9697 3.95044 16.6523C3.95044 16.3352 4.20994 16.0757 4.52712 16.0757H13.7329C15.4629 14.5617 17.7554 13.5959 20.2568 13.5959C20.4946 13.5959 20.6894 13.6174 20.9778 13.6392V7.71338H16.6524C14.98 7.71338 13.6248 6.34375 13.6248 4.67844V0H2.56638C1.13894 0 0 1.16775 0 2.60231V24.6038C0 26.0383 1.13894 27.1772 2.56644 27.1772H11.2529C10.7556 26.0239 10.4817 24.7263 10.4817 23.3711C10.4744 22.5205 10.5898 21.6985 10.7917 20.9055ZM4.52712 12.4712H11.8298C12.147 12.4712 12.4065 12.7308 12.4065 13.0481C12.4065 13.3653 12.147 13.6248 11.8298 13.6248H4.52712C4.20994 13.6248 3.95044 13.3653 3.95044 13.0482C3.95044 12.7307 4.20994 12.4713 4.52712 12.4713V12.4712Z" fill="black"/>
</svg>
